<svg xmlns="http://www.w3.org/2000/svg" xmlns:xlink="http://www.w3.org/1999/xlink" id="bitmap:320-24" width="320" height="60" version="1.0"><defs id="defs9903"><radialGradient id="radialGradient6201" cx="11.156" cy="2.063" r=".906" gradientTransform="matrix(1,0,0,0.6206897,0,0.7823276)" gradientUnits="userSpaceOnUse"><stop id="stop7584" offset="0" stop-color="#FFF"/><stop id="stop7586" offset="1" stop-color="#FFF" stop-opacity="0"/></radialGradient><linearGradient id="linearGradient6195" x1="20.723" x2="22.697" y1="16.83" y2="15.894" gradientTransform="matrix(1.1304264,-0.235981,0.915432,0.6373638,-15.020125,7.538008)" gradientUnits="userSpaceOnUse"><stop id="stop7569" offset="0" stop-color="#000"/><stop id="stop7571" offset="1" stop-color="#000" stop-opacity="0"/></linearGradient><radialGradient id="radialGradient6191" cx="24.091" cy="5.053" r="4.492" gradientTransform="matrix(1.6372128,-0.3629926,2.1525103,1.8500902,-36.53018,2.08716)" gradientUnits="userSpaceOnUse"><stop id="stop7551" offset="0" stop-color="#FFF"/><stop id="stop7553" offset="1" stop-color="#eeeeec"/></radialGradient><radialGradient id="radialGradient6183" cx="23.681" cy="5.341" r="5.055" gradientTransform="matrix(-1.5922835,-0.1907818,-1.1802872,-1.4345654,57.810344,15.557175)" gradientUnits="userSpaceOnUse"><stop id="stop7493" offset="0" stop-color="#eeeeec"/><stop id="stop7495" offset="1" stop-color="#babdb6"/></radialGradient><radialGradient id="radialGradient6179" cx="17.813" cy="14.729" r="9.5" gradientTransform="matrix(1,0,0,0.6315789,0,2.947369)" gradientUnits="userSpaceOnUse"><stop id="stop7559" offset="0" stop-color="#eeeeec"/><stop id="stop7561" offset="1" stop-color="#eeeeec"/></radialGradient><radialGradient id="radialGradient7612" cx="20" cy="46" r="8" gradientTransform="matrix(1,0,0,0.25,0,34.5)" gradientUnits="userSpaceOnUse"><stop id="stop7606" offset="0" stop-color="#000"/><stop id="stop7608" offset="1" stop-color="#000" stop-opacity="0"/></radialGradient><linearGradient id="linearGradient7433" x1="33.12" x2="22.328" y1="20.5" y2="20.5" gradientTransform="matrix(0.727273,0,0,0.999999,12.27273,-34.84375)" gradientUnits="userSpaceOnUse"><stop id="stop4544" offset="0" stop-color="#888a85"/><stop id="stop4546" offset="1" stop-color="#888a85" stop-opacity="0"/></linearGradient><linearGradient id="linearGradient7431" x1="15.406" x2="16.865" y1="37.344" y2="24.25" gradientTransform="matrix(0,0.673693,-0.676136,0,37.10227,14.81577)" gradientUnits="userSpaceOnUse"><stop id="stop2818" offset="0" stop-color="#FFF"/><stop id="stop2820" offset="1" stop-color="#FFF" stop-opacity="0"/></linearGradient><linearGradient id="linearGradient7427" x1="17" x2="17" y1="45.248" y2="30.759" gradientTransform="matrix(0,0.625,-0.676136,0,37.10227,15.875)" gradientUnits="userSpaceOnUse"><stop id="stop6960" offset="0" stop-color="#000"/><stop id="stop6962" offset="1" stop-color="#888a85" stop-opacity="0"/></linearGradient><linearGradient id="linearGradient7425" x1="13.819" x2="36.228" y1="30.03" y2="45.195" gradientTransform="matrix(0,0.673693,-0.676136,0,37.10227,14.81577)" gradientUnits="userSpaceOnUse"><stop id="stop6828" offset="0" stop-color="#babdb6"/><stop id="stop6830" offset="1" stop-color="#eeeeec"/></linearGradient><linearGradient id="linearGradient6789" x1="6.719" x2="44.344" y1="22.936" y2="42.605" gradientTransform="matrix(0,0.673693,-0.676136,0,37.10227,14.81577)" gradientUnits="userSpaceOnUse"><stop id="stop7616" offset="0" stop-color="#babdb6"/><stop id="stop7628" offset=".487" stop-color="#FFF"/><stop id="stop7618" offset="1" stop-color="#d3d7cf"/></linearGradient><linearGradient id="linearGradient10083" x2="320" y1="58.5" y2="58.5" gradientUnits="userSpaceOnUse"><stop id="stop10079" offset="0" stop-color="#f57900"/><stop id="stop10095" offset=".5" stop-color="#fcaf3e"/><stop id="stop10081" offset="1" stop-color="#ce5c00"/></linearGradient><radialGradient id="radialGradient10097" cx="3.5" cy="-117.1" r="160" gradientTransform="matrix(0,0.6565365,-1.840261,-1.042065e-4,-211.99016,0.1899138)" gradientUnits="userSpaceOnUse"><stop id="stop10091" offset="0" stop-color="#729fcf"/><stop id="stop10093" offset="1" stop-color="#204a87"/></radialGradient></defs><rect id="rect10085" width="320" height="58.414" x="0" y="0" fill="url(#radialGradient10097)"/><rect id="rect10075" width="320" height="3" x="0" y="57" fill="url(#linearGradient10083)"/><g id="g10778" fill="#FFF" fill-opacity=".188" fill-rule="evenodd" transform="matrix(-1.2234375,0,0,-1.2234375,320,71.15)"><g id="g10765"><path id="path10751" d="M0,28v21s106-16,160-16v-2c-53.33,0-160-3-160-3z"/><path id="path10744" d="M0,29v14s106-10,160-10v-2c-53,0-160-2-160-2z"/><path id="path10749" d="m0,30v7s106-4,160-4v-2c-53,0-160-1-160-1z"/></g><g id="g10770" transform="matrix(-1,0,0,-1,320,64)"><path id="path10772" d="M0,28v21s106-16,160-16v-2c-53.33,0-160-3-160-3z"/><path id="path10774" d="M0,29v14s106-10,160-10v-2c-53,0-160-2-160-2z"/><path id="path10776" d="m0,30v7s106-4,160-4v-2c-53,0-160-1-160-1z"/></g></g><g id="layer1" transform="translate(1.428271,4.3656115)"><path id="path7600" fill="url(#radialGradient7612)" opacity=".163" style="marker-end:none;marker-start:none;enable-background:accumulate;marker-mid:none" fill-rule="evenodd" d="m28,46a8,2,0,1,1,-16,0,8,2,0,1,1,16,0z" transform="matrix(1.1875,0,0,1.75,9.75,-37.5)"/><path id="path7602" fill="url(#radialGradient7612)" opacity=".163" style="marker-end:none;marker-start:none;enable-background:accumulate;marker-mid:none" fill-rule="evenodd" d="m28,46a8,2,0,1,1,-16,0,8,2,0,1,1,16,0z" transform="matrix(1.25,0,0,1.75,-8,-37.5)"/><path id="use6159" fill="none" stroke="#babdb6" stroke-dashoffset=".7" stroke-linecap="round" stroke-linejoin="miter" stroke-miterlimit="4" stroke-width="3" d="M24.281,13.418c-2.496,0.521-8.007-1.484-12.303-4.4741-4.2949-2.9905-5.7552-5.8404-3.2592-6.3615"/><path id="use6161" fill="none" stroke="url(#radialGradient6179)" stroke-dashoffset=".7" stroke-linecap="round" stroke-linejoin="miter" stroke-miterlimit="4" stroke-width="1" d="m21.022,7.0561c4.295,2.9909,5.755,5.8409,3.259,6.3619s-8.007-1.484-12.303-4.4741c-4.2949-2.9905-5.7552-5.8404-3.2592-6.3615,2.4962-0.521,8.0072,1.4832,12.303,4.4737z"/><path id="use6173" style="marker-end:none;marker-start:none;enable-background:accumulate;marker-mid:none" fill="url(#radialGradient6201)" fill-rule="evenodd" d="m12.062,2.0625a0.90625,0.5625,0,1,1,-1.812,0,0.90625,0.5625,0,1,1,1.812,0z" transform="matrix(1.1034483,0,0,1.7777778,2.636801,7.009256)"/><g id="g7413" transform="matrix(1.222459,0.3275569,-0.3275569,1.222459,15.102844,-16.514282)"><path id="path7415" stroke-linejoin="miter" style="stroke-dasharray:none" fill="url(#linearGradient7425)" fill-rule="evenodd" stroke="#888a85" stroke-linecap="round" stroke-miterlimit="4" stroke-width=".79" d="m13.438,16.5c-3.9194,0-7.0942,3.158-7.0942,7.062,0,2.819,1.6046,5.301,4.0002,6.438v1.5l1.5,1.5-1.5,1.5v1l2,1v1l-2,1v1l1.5,1.5-1.5,1.5v1l2.5,2h2.5l1-1.5v-14c2.372-1.145,4-3.699,4-6.5,0-3.905-2.988-7-6.906-7zm-0.094,2c1.104,0,2,0.896,2,2s-0.896,2-2,2-2-0.896-2-2,0.896-2,2-2z"/><path id="path7417" fill="url(#linearGradient7427)" fill-rule="evenodd" d="M18.847,24h-10.819c0,2.76,2.4236,5,5.4096,5,2.985,0,5.409-2.24,5.409-5z" opacity=".3"/><path id="path7419" stroke-linejoin="miter" style="stroke-dasharray:none" fill="none" stroke="#FFF" stroke-linecap="round" stroke-miterlimit="4" stroke-width=".79" d="m13.438,17.281c-3.5022,0-6.313,2.798-6.313,6.281,0,2.524,1.4414,4.744,3.563,5.75,0.263,0.129,0.433,0.395,0.437,0.688v1.156l1.281,1.282c0.154,0.146,0.241,0.349,0.241,0.562s-0.087,0.416-0.241,0.562l-1.281,1.282v0.187l1.563,0.781c0.263,0.129,0.433,0.395,0.437,0.688v1c-0.004,0.293-0.174,0.559-0.437,0.688l-1.563,0.781v0.187l1.281,1.282c0.154,0.146,0.241,0.349,0.241,0.562s-0.087,0.416-0.241,0.562l-1.281,1.282v0.281l2,1.594h1.781l0.656-0.969v-13.75c0.005-0.293,0.174-0.559,0.438-0.688,2.091-1.009,3.562-3.311,3.562-5.812,0-3.509-2.615-6.219-6.124-6.219zm-0.094,0.438c1.524,0,2.781,1.257,2.781,2.781s-1.257,2.781-2.781,2.781-2.782-1.257-2.782-2.781,1.258-2.781,2.782-2.781z" xlink:href="#path1884"/><path id="path7421" fill="url(#linearGradient7431)" fill-rule="evenodd" d="m13.406,17.625c-0.218,0.004-0.466,0.034-0.687,0.063-0.933,0.119-1.776,0.46-2.531,0.937,0.173,0.635,0.424,1.158,0.718,1.625,0.126-1.319,1.242-2.344,2.594-2.344,1.436,0,2.594,1.158,2.594,2.594s-1.158,2.594-2.594,2.594c-0.077,0-0.147-0.021-0.219-0.032,1.06,1.271,2.022,2.945,2.281,6.094,2.267-0.909,3.876-2.925,3.876-5.594-0.086-2.601-1.542-4.611-4-5.624-0.681-0.226-1.364-0.326-2.032-0.313zm1.969,17.063c-0.279,2.585-0.855,5.742-1.813,9.687h1.157l0.656-1.313v-8.374z" opacity=".6"/><rect id="rect7423" width="16.312" height=".981" x="29" y="-14.844" fill="url(#linearGradient7433)" fill-rule="evenodd" opacity=".615" transform="matrix(0,1,-1,0,0,0)"/></g><path id="path7441" fill="#000" fill-rule="evenodd" stroke="#000" stroke-linecap="round" stroke-linejoin="miter" stroke-miterlimit="4" stroke-width="1" d="m25.688,8.875c-0.589,0.0368-1.183,0.1208-1.782,0.2812-4.79,1.2838-7.654,6.1958-6.375,10.969,0.923,3.445,3.7,5.957,7,6.563l0.188,0.75,0.531-1.938c3.275-0.623,6.114-3.2,7.031-6.625,1.018-3.799-0.444-7.588-3.5-9.625-0.98-0.3059-2.019-0.4422-3.093-0.375zm-0.844,1.5c0.168,0.01,0.331,0.049,0.5,0.094,1.075,0.288,1.807,1.228,1.875,2.281,0.129,0.207,0.246,0.439,0.312,0.688,0.362,1.349-0.431,2.732-1.781,3.093-1.35,0.362-2.732-0.431-3.094-1.781-0.042-0.159-0.082-0.311-0.094-0.469-0.004-0.007,0.005-0.024,0-0.031-0.359-0.575-0.501-1.294-0.312-2,0.316-1.181,1.419-1.945,2.594-1.875z" opacity=".15" style="stroke-dasharray:none"/><g id="g6765" transform="matrix(1.222459,-0.3275569,0.3275569,1.222459,2.064799,-7.6041513)"><path id="path6767" stroke-linejoin="miter" style="stroke-dasharray:none" fill="url(#linearGradient6789)" fill-rule="evenodd" stroke="#888a85" stroke-linecap="round" stroke-miterlimit="4" stroke-width=".79" d="m13.438,16.5c-3.9194,0-7.0942,3.158-7.0942,7.062,0,2.819,1.6046,5.301,4.0002,6.438v1.5l1.5,1.5-1.5,1.5v1l2,1v1l-2,1v1l1.5,1.5-1.5,1.5v1l2.5,2h2.5l1-1.5v-14c2.372-1.145,4-3.699,4-6.5,0-3.905-2.988-7-6.906-7zm-0.094,2c1.104,0,2,0.896,2,2s-0.896,2-2,2-2-0.896-2-2,0.896-2,2-2z"/><path id="path6769" fill="url(#linearGradient7427)" fill-rule="evenodd" d="M18.847,24h-10.819c0,2.76,2.4236,5,5.4096,5,2.985,0,5.409-2.24,5.409-5z" opacity=".3"/><path id="path6771" stroke-linejoin="miter" style="stroke-dasharray:none" fill="none" stroke="#FFF" stroke-linecap="round" stroke-miterlimit="4" stroke-width=".79" d="m13.438,17.281c-3.5022,0-6.313,2.798-6.313,6.281,0,2.524,1.4414,4.744,3.563,5.75,0.263,0.129,0.433,0.395,0.437,0.688v1.156l1.281,1.282c0.154,0.146,0.241,0.349,0.241,0.562s-0.087,0.416-0.241,0.562l-1.281,1.282v0.187l1.563,0.781c0.263,0.129,0.433,0.395,0.437,0.688v1c-0.004,0.293-0.174,0.559-0.437,0.688l-1.563,0.781v0.187l1.281,1.282c0.154,0.146,0.241,0.349,0.241,0.562s-0.087,0.416-0.241,0.562l-1.281,1.282v0.281l2,1.594h1.781l0.656-0.969v-13.75c0.005-0.293,0.174-0.559,0.438-0.688,2.091-1.009,3.562-3.311,3.562-5.812,0-3.509-2.615-6.219-6.124-6.219zm-0.094,0.438c1.524,0,2.781,1.257,2.781,2.781s-1.257,2.781-2.781,2.781-2.782-1.257-2.782-2.781,1.258-2.781,2.782-2.781z" xlink:href="#path1884"/><path id="path6832" fill="url(#linearGradient7431)" fill-rule="evenodd" d="m13.406,17.625c-0.218,0.004-0.466,0.034-0.687,0.063-0.933,0.119-1.776,0.46-2.531,0.937,0.173,0.635,0.424,1.158,0.718,1.625,0.126-1.319,1.242-2.344,2.594-2.344,1.436,0,2.594,1.158,2.594,2.594s-1.158,2.594-2.594,2.594c-0.077,0-0.147-0.021-0.219-0.032,1.06,1.271,2.022,2.945,2.281,6.094,2.267-0.909,3.876-2.925,3.876-5.594-0.086-2.601-1.542-4.611-4-5.624-0.681-0.226-1.364-0.326-2.032-0.313zm1.969,17.063c-0.279,2.585-0.855,5.742-1.813,9.687h1.157l0.656-1.313v-8.374z" opacity=".6"/><rect id="rect6776" width="16.312" height=".981" x="29" y="-14.844" fill="url(#linearGradient7433)" fill-rule="evenodd" opacity=".615" transform="matrix(0,1,-1,0,0,0)"/></g><path id="use6163" fill="none" stroke="url(#radialGradient6183)" stroke-dashoffset=".7" stroke-linecap="round" stroke-linejoin="miter" stroke-miterlimit="4" stroke-width="3" d="M7.9739,5.1441c-1.5901-2.5941,0.939-3.42,5.6451-1.8436,4.707,1.5764,9.817,4.9612,11.407,7.5555,0.789,1.287,0.644,2.113-0.437,2.479"/><path id="use6165" style="marker-end:none;marker-start:none;enable-background:accumulate;marker-mid:none" fill="url(#radialGradient6201)" fill-rule="evenodd" d="m12.062,2.0625a0.90625,0.5625,0,1,1,-1.812,0,0.90625,0.5625,0,1,1,1.812,0z" transform="matrix(1.5911082,0,0,2.563452,-6.228703,-2.588246)"/><path id="use6167" fill="none" stroke="url(#radialGradient6191)" stroke-dashoffset=".7" stroke-linecap="round" stroke-linejoin="miter" stroke-miterlimit="4" stroke-width="1" d="M10.813,8.0821c-3.85-3.0352-4.4273-5.5354-1.2883-5.5807,3.1393-0.0453,8.8113,2.3812,12.662,5.4165,3.791,2.9891,4.422,5.4611,1.422,5.5771"/><path id="use6169" fill="none" stroke="url(#linearGradient6195)" stroke-dashoffset=".7" stroke-linecap="round" stroke-linejoin="miter" stroke-miterlimit="4" stroke-width="1" d="m22.186,7.9174c3.792,2.9886,4.423,5.4616,1.423,5.5776" opacity=".104"/><path id="use6171" style="marker-end:none;marker-start:none;enable-background:accumulate;marker-mid:none" fill="#FFF" fill-rule="evenodd" d="m12.062,2.0625a0.90625,0.5625,0,1,1,-1.812,0,0.90625,0.5625,0,1,1,1.812,0z" transform="matrix(1.1034483,0,0,1.7777778,-0.69986,-0.945696)"/></g></svg>