<svg xmlns="http://www.w3.org/2000/svg" xmlns:xlink="http://www.w3.org/1999/xlink" id="bitmap:192-32" width="192" height="32" version="1.1"><metadata id="metadata280"/><defs id="defs4"><radialGradient id="radialGradient2004" cx="22.292" cy="32.798" r="16.956" gradientTransform="matrix(-0.589125,0,0,0.685598,29.3555,0.773753)" gradientUnits="userSpaceOnUse"><stop id="stop2593" offset="0" stop-color="#73d216"/><stop id="stop2595" offset="1" stop-color="#4e9a06"/></radialGradient><radialGradient id="radialGradient2001" cx="25.076" cy="5.786" r="17.171" gradientTransform="matrix(-1.430305,0,0,1.046783,46.13938,2.164948)" gradientUnits="userSpaceOnUse"><stop id="stop8652" offset="0" stop-color="#FFF"/><stop id="stop8654" offset="1" stop-color="#FFF" stop-opacity="0"/></radialGradient><radialGradient id="radialGradient1992" cx="24.837" cy="36.421" r="15.645" gradientTransform="matrix(1,0,0,0.536723,0,16.87306)" gradientUnits="userSpaceOnUse"><stop id="stop8664" offset="0" stop-color="#000"/><stop id="stop8666" offset="1" stop-color="#000" stop-opacity="0"/></radialGradient><linearGradient id="linearGradient5060"><stop id="stop5062" offset="0" stop-color="#000"/><stop id="stop5064" offset="1" stop-color="#000" stop-opacity="0"/></linearGradient><linearGradient id="linearGradient2797"><stop id="stop2799" offset="0" stop-color="#FFF"/><stop id="stop2801" offset="1" stop-color="#FFF" stop-opacity="0"/></linearGradient><linearGradient id="linearGradient2871"><stop id="stop2873" offset="0" stop-color="#3465a4"/><stop id="stop2875" offset="1" stop-color="#3465a4"/></linearGradient><linearGradient id="linearGradient2380"><stop id="stop2382-9" offset="0" stop-color="#b9cfe7"/><stop id="stop2384" offset="1" stop-color="#729fcf"/></linearGradient><linearGradient id="linearGradient2402"><stop id="stop2404" offset="0" stop-color="#729fcf"/><stop id="stop2406" offset="1" stop-color="#528ac5"/></linearGradient><radialGradient id="radialGradient3588" cx="22.292" cy="32.798" r="16.956" gradientTransform="matrix(0.588566,0,0,0.691503,34.980416,1020.9693)" gradientUnits="userSpaceOnUse"><stop id="stop2593-1" offset="0" stop-color="#73d216"/><stop id="stop2595-2" offset="1" stop-color="#4e9a06"/></radialGradient><radialGradient id="radialGradient3590" cx="19.701" cy="2.897" r="17.171" gradientTransform="matrix(1.364487,0,0,1.038407,19.299385,1022.6636)" gradientUnits="userSpaceOnUse"><stop id="stop8652-8" offset="0" stop-color="#FFF"/><stop id="stop8654-8" offset="1" stop-color="#FFF" stop-opacity="0"/></radialGradient><radialGradient id="radialGradient3593" cx="16.75" cy="10.666" r="21.25" gradientTransform="matrix(2.737165,0,0,2.125222,29.37911,1006.2414)" gradientUnits="userSpaceOnUse"><stop id="stop2250" offset="0" stop-color="#FFF"/><stop id="stop2252" offset="1" stop-color="#FFF" stop-opacity="0"/></radialGradient><linearGradient id="linearGradient3596" x1="15.737" x2="53.57" y1="12.504" y2="47.374" gradientTransform="matrix(0.658703,0,0,0.658681,64.193874,1020.5559)" gradientUnits="userSpaceOnUse"><stop id="stop11782" offset="0" stop-color="#ff8b8b"/><stop id="stop11784" offset="1" stop-color="#ec1b1b"/></linearGradient><radialGradient id="radialGradient3599" cx="24.302" cy="33.302" r="12.302" gradientTransform="matrix(1.105562,0,0,1.105705,53.33881,1005.6202)" gradientUnits="userSpaceOnUse"><stop id="stop9649" offset="0" stop-color="#FFF"/><stop id="stop9651" offset="1" stop-color="#dbdbdb"/></radialGradient><linearGradient id="linearGradient3601" x1="21.75" x2="24.302" y1="15.802" y2="35.052" gradientTransform="matrix(0.652641,0,0,0.652725,64.345805,1020.7054)" gradientUnits="userSpaceOnUse"><stop id="stop2258" offset="0" stop-color="#ff0202"/><stop id="stop2260" offset="1" stop-color="#ff9b9b"/></linearGradient><linearGradient id="linearGradient3604" x1="23.996" x2="41.048" y1="20.105" y2="37.96" gradientTransform="matrix(0.67419,0,0,0.674276,63.822139,1020.1817)" gradientUnits="userSpaceOnUse"><stop id="stop4983" offset="0" stop-color="#C00"/><stop id="stop4985" offset="1" stop-color="#b30000"/></linearGradient><radialGradient id="radialGradient3607" cx="25.125" cy="36.75" r="15.75" gradientTransform="matrix(1,0,0,0.595238,0,14.875)" gradientUnits="userSpaceOnUse"><stop id="stop21646" offset="0" stop-color="#000"/><stop id="stop21648" offset="1" stop-color="#000" stop-opacity="0"/></radialGradient><linearGradient id="linearGradient3681" x1="13.479" x2="15.419" y1="10.612" y2="19.115" gradientTransform="matrix(0.666667,0,0,0.646309,96.83003,1019.302)" gradientUnits="userSpaceOnUse"><stop id="stop2833" offset="0" stop-color="#3465a4"/><stop id="stop2855" offset=".333" stop-color="#5b86be"/><stop id="stop2835" offset="1" stop-color="#83a8d8" stop-opacity="0"/></linearGradient><linearGradient id="linearGradient3683" x1="37.128" x2="37.065" y1="29.73" y2="26.194" gradientTransform="matrix(-0.666667,0,0,-0.646309,128.20505,1049.113)" gradientUnits="userSpaceOnUse"><stop id="stop2849" offset="0" stop-color="#3465a4"/><stop id="stop2851" offset="1" stop-color="#3465a4" stop-opacity="0"/></linearGradient><linearGradient id="linearGradient3685" x1="62.514" x2="15.985" y1="36.061" y2="20.609" gradientUnits="userSpaceOnUse" xlink:href="#linearGradient2380"/><linearGradient id="linearGradient3687" x1="46.835" x2="45.38" y1="45.264" y2="50.94" gradientUnits="userSpaceOnUse" xlink:href="#linearGradient2871"/><linearGradient id="linearGradient3691" x1="32.648" x2="37.124" y1="30.749" y2="24.842" gradientTransform="matrix(0.666667,0,0,0.647455,96.519755,1019.8536)" gradientUnits="userSpaceOnUse"><stop id="stop2692" offset="0" stop-color="#c4d7eb"/><stop id="stop2694" offset="1" stop-color="#c4d7eb" stop-opacity="0"/></linearGradient><linearGradient id="linearGradient3693" x1="36.714" x2="37.124" y1="31.456" y2="24.842" gradientTransform="matrix(0.666667,0,0,0.647455,96.519755,1019.8536)" gradientUnits="userSpaceOnUse"><stop id="stop2684" offset="0" stop-color="#3977c3"/><stop id="stop2686" offset="1" stop-color="#89aedc" stop-opacity="0"/></linearGradient><linearGradient id="linearGradient3695" x1="18.936" x2="53.589" y1="23.668" y2="26.649" gradientUnits="userSpaceOnUse" xlink:href="#linearGradient2402"/><linearGradient id="linearGradient3703" x1="5.965" x2="52.854" y1="26.048" y2="26.048" gradientUnits="userSpaceOnUse" xlink:href="#linearGradient2797"/><radialGradient id="radialGradient3821" cx="9.13" cy="26.926" r="2.123" gradientUnits="userSpaceOnUse"><stop id="stop4700" offset="0" stop-color="#fffffd"/><stop id="stop4706" offset=".5" stop-color="#bbbbb9"/><stop id="stop4702" offset="1" stop-color="#000"/></radialGradient><radialGradient id="radialGradient3832" cx="29.913" cy="30.443" r="4.002" gradientTransform="matrix(2.525807,0,0,1.713442,72.53038,988.81062)" gradientUnits="userSpaceOnUse"><stop id="stop2370" offset="0" stop-color="#FFF"/><stop id="stop2372" offset="1" stop-color="#FFF" stop-opacity="0"/></radialGradient><radialGradient id="radialGradient3837" cx="11.681" cy="19.554" r="8.245" gradientTransform="matrix(2.733392,0,0,-2.800883,124.51812,1090.5979)" gradientUnits="userSpaceOnUse"><stop id="stop2343" offset="0" stop-color="#000"/><stop id="stop2345" offset="1" stop-color="#000" stop-opacity="0"/></radialGradient><radialGradient id="radialGradient3840" cx="7.533" cy="24.203" r="8.245" gradientTransform="matrix(2.733392,0,0,2.800883,111.04015,968.00238)" gradientUnits="userSpaceOnUse"><stop id="stop2301" offset="0" stop-color="#FFF"/><stop id="stop2303" offset="1" stop-color="#FFF" stop-opacity="0"/></radialGradient><linearGradient id="linearGradient3844" x1="64.388" x2="64.388" y1="65.124" y2="35.569" gradientTransform="matrix(0.236067,0,0,0.236067,129.07598,1020.3064)" gradientUnits="userSpaceOnUse"><stop id="stop336" offset="0" stop-color="#FFF"/><stop id="stop338" offset=".854" stop-color="#ff6200"/><stop id="stop340" offset="1" stop-color="#f25d00"/></linearGradient><radialGradient id="radialGradient3847" cx="19.986" cy="36.778" r="1.082" gradientTransform="matrix(0.845492,0,0,0.650968,124.14222,1020.5274)" gradientUnits="userSpaceOnUse"><stop id="stop2309" offset="0" stop-color="#edd400"/><stop id="stop2311" offset="1" stop-color="#980"/></radialGradient><radialGradient id="radialGradient3850" cx="20.444" cy="37.426" r="1.082" gradientTransform="matrix(0.845492,0,0,0.650968,124.14222,1020.6369)" gradientUnits="userSpaceOnUse"><stop id="stop2321" offset="0" stop-color="#000"/><stop id="stop2323" offset="1" stop-color="#000" stop-opacity="0"/></radialGradient><linearGradient id="linearGradient3853" x1="17.85" x2="19.04" y1="28.939" y2="41.032" gradientTransform="matrix(0.667809,0,0,0.721564,128.52999,1019.1429)" gradientUnits="userSpaceOnUse"><stop id="stop2408" offset="0" stop-color="#7c7e79"/><stop id="stop2414" offset=".172" stop-color="#848681"/><stop id="stop2410" offset="1" stop-color="#898c86"/></linearGradient><radialGradient id="radialGradient3856" cx="24.195" cy="10.578" r="15.243" gradientTransform="matrix(0.750176,-2.390279e-8,2.846547e-8,0.893373,125.97906,1021.2658)" gradientUnits="userSpaceOnUse"><stop id="stop2380" offset="0" stop-color="#575757"/><stop id="stop2382" offset="1" stop-color="#575757" stop-opacity="0"/></radialGradient><linearGradient id="linearGradient3860" x1="17.603" x2="17.683" y1="26.057" y2="32.654" gradientTransform="matrix(0.675325,0,0,0.710034,127.07761,1018.7743)" gradientUnits="userSpaceOnUse"><stop id="stop2331" offset="0" stop-color="#000" stop-opacity=".186"/><stop id="stop2333" offset="1" stop-color="#FFF"/></linearGradient><linearGradient id="linearGradient3864" x1="52.006" x2="14.049" y1="166.13" y2="-42.219" gradientTransform="matrix(0.221835,0,0,0.110024,140.0235,1030.616)" gradientUnits="userSpaceOnUse"><stop id="stop17" offset="0" stop-color="#CCC"/><stop id="stop19" offset=".983" stop-color="#FFF"/></linearGradient><linearGradient id="linearGradient3870" x1="302.86" x2="302.86" y1="366.65" y2="609.51" gradientTransform="matrix(2.774389,0,0,1.969706,-1892.179,-872.8854)" gradientUnits="userSpaceOnUse"><stop id="stop5050" offset="0" stop-color="#000" stop-opacity="0"/><stop id="stop5056" offset=".5" stop-color="#000"/><stop id="stop5052" offset="1" stop-color="#000" stop-opacity="0"/></linearGradient><radialGradient id="radialGradient3872" cx="605.71" cy="486.65" r="117.14" gradientTransform="matrix(2.774389,0,0,1.969706,-1891.633,-872.8854)" gradientUnits="userSpaceOnUse" xlink:href="#linearGradient5060"/><radialGradient id="radialGradient3874" cx="605.71" cy="486.65" r="117.14" gradientTransform="matrix(-2.774389,0,0,1.969706,112.7623,-872.8854)" gradientUnits="userSpaceOnUse" xlink:href="#linearGradient5060"/><linearGradient id="linearGradient3907" x1="9.87" x2="9.913" y1="57.228" y2="72.064" gradientTransform="matrix(1.848058,0,0,0.217548,160.26603,1024.7799)" gradientUnits="userSpaceOnUse"><stop id="stop4735" offset="0" stop-color="#000" stop-opacity=".237"/><stop id="stop4737" offset="1" stop-color="#000" stop-opacity="0"/></linearGradient><linearGradient id="linearGradient3911" x1="10.338" x2="10.338" y1="64.652" y2="54.136" gradientTransform="matrix(1.544788,0,0,0.264367,160.01852,1023.7146)" gradientUnits="userSpaceOnUse"><stop id="stop4682" offset="0" stop-color="#f7f6f5"/><stop id="stop4684" offset="1" stop-color="#f7f6f5" stop-opacity="0"/></linearGradient><linearGradient id="linearGradient3913" x1="9.732" x2="9.705" y1="70.725" y2="62.282" gradientTransform="matrix(1.544788,0,0,0.264367,160.01852,1023.7146)" gradientUnits="userSpaceOnUse"><stop id="stop4690" offset="0" stop-color="#666"/><stop id="stop4692" offset="1" stop-color="#000" stop-opacity="0"/></linearGradient><linearGradient id="linearGradient3916" x1="20.771" x2="20.718" y1="25.14" y2="19.337" gradientTransform="matrix(0.814222,0,0,0.576573,159.61207,1022.5218)" gradientUnits="userSpaceOnUse"><stop id="stop15664" offset="0" stop-color="#FFF" stop-opacity="0"/><stop id="stop15666" offset="1" stop-color="#f8f8f8"/></linearGradient><linearGradient id="linearGradient3919" x1="25.057" x2="24.79" y1="3.679" y2="25.247" gradientTransform="matrix(0.665463,0,0,0.744457,159.14802,1023.5823)" gradientUnits="userSpaceOnUse"><stop id="stop260" offset="0" stop-color="#e0e0e0"/><stop id="stop4886" offset=".405" stop-color="#FFF"/><stop id="stop4884" offset=".534" stop-color="#cdcdcd"/><stop id="stop261" offset="1" stop-color="#494949"/></linearGradient><linearGradient id="linearGradient3922" x1="15.388" x2="15.488" y1="32.539" y2="62.101" gradientTransform="matrix(0.955896,0,0,0.432698,160.6615,1023.6066)" gradientUnits="userSpaceOnUse"><stop id="stop4764" offset="0" stop-color="#FFF" stop-opacity=".124"/><stop id="stop4768" offset=".103" stop-color="#FFF"/><stop id="stop4766" offset="1" stop-color="#FFF" stop-opacity="0"/></linearGradient><linearGradient id="linearGradient3926" x1="1.846" x2="18.972" y1="88.295" y2="88.295" gradientTransform="matrix(1.510349,0,0,0.297131,160.25238,1022.5201)" gradientUnits="userSpaceOnUse"><stop id="stop4743" offset="0" stop-color="#dcdcda"/><stop id="stop4745" offset="1" stop-color="#bab9b7"/></linearGradient><linearGradient id="linearGradient3929" x1="1.846" x2="18.972" y1="88.295" y2="88.295" gradientTransform="matrix(1.501108,0,0,0.291945,160.40355,1021.921)" gradientUnits="userSpaceOnUse"><stop id="stop4670" offset="0" stop-color="#8e8d87"/><stop id="stop4676" offset=".276" stop-color="#cbc9c1"/><stop id="stop4672" offset="1" stop-color="#8e8d87"/></linearGradient><radialGradient id="radialGradient3932" cx="605.71" cy="486.65" r="117.14" gradientTransform="matrix(-0.04372487,0,0,0.02533308,191.79481,1036.9981)" gradientUnits="userSpaceOnUse" xlink:href="#linearGradient5060"/><radialGradient id="radialGradient3935" cx="605.71" cy="486.65" r="117.14" gradientTransform="matrix(0.04372487,0,0,0.02533308,160.20518,1036.9981)" gradientUnits="userSpaceOnUse" xlink:href="#linearGradient5060"/><linearGradient id="linearGradient3938" x1="302.86" x2="302.86" y1="366.65" y2="609.51" gradientTransform="matrix(0.04372487,0,0,0.02533308,160.19658,1036.9981)" gradientUnits="userSpaceOnUse"><stop id="stop5050-7" offset="0" stop-color="#000" stop-opacity="0"/><stop id="stop5056-6" offset=".5" stop-color="#000"/><stop id="stop5052-3" offset="1" stop-color="#000" stop-opacity="0"/></linearGradient></defs><g id="layer1" transform="translate(0,-1020.3622)"><g id="layer1-9" transform="translate(1.0000011,1020.3622)"><path id="path8660" fill="url(#radialGradient1992)" opacity=".299" style="color:#000" fill-rule="evenodd" d="m40.482,36.421a15.645,8.3969,0,1,1,-31.289,0,15.645,8.3969,0,1,1,31.289,0z" transform="matrix(-0.847458,0,0,0.847458,37.46345,-10.18573)"/><path id="path8643" stroke-linejoin="round" style="color:#000;stroke-dasharray:none" fill="url(#radialGradient2004)" fill-rule="evenodd" stroke="#3a7304" stroke-dashoffset="0" stroke-linecap="round" stroke-miterlimit="10" stroke-width="1" d="m26.453,10.472,0.04687,11.046-8.9853,0,0,5.9819l-14.015-11.425,14.01-11.589-0.04687,5.9893,8.9896-0.0036z"/><path id="path8645" opacity=".508" style="color:#000" fill="url(#radialGradient2001)" fill-rule="evenodd" d="m17.065,5.3254,0,5.6956,8.9193,0,0,5.6895c-11.706-4.2-11.15,3.559-21.807-0.642l12.888-10.743z"/><path id="path8658" fill="none" stroke="#FFF" stroke-dashoffset="0" stroke-linecap="butt" stroke-linejoin="miter" stroke-miterlimit="10" stroke-width="1" d="m25.5,11.502,0,9.0144-8.9812,0,0,4.9833l-11.47-9.464,11.481-9.535v5.0054l8.9704-0.0031z" opacity=".481" style="color:#000;stroke-dasharray:none"/></g><g id="g3892"><path id="path8660-9" fill="url(#radialGradient1992)" opacity=".299" style="color:#000" fill-rule="evenodd" d="m40.482,36.421a15.645,8.3969,0,1,1,-31.289,0,15.645,8.3969,0,1,1,31.289,0z" transform="matrix(0.847458,0,0,0.847458,26.898465,1010.2943)"/><g id="g3583" transform="translate(-1.3113835,-0.4798)"><path id="path8643-6" stroke-linejoin="round" style="color:#000;stroke-dasharray:none" fill="url(#radialGradient3588)" fill-rule="evenodd" stroke="#3a7304" stroke-dashoffset="0" stroke-linecap="round" stroke-miterlimit="10" stroke-width="1" d="m37.811,1030.9,0,10.989,9.0648,0,0,5.9689,13.935-11.46-14.018-11.54,0,6.0457-8.9818,0z"/><path id="path8645-3" opacity=".508" style="color:#000" fill="url(#radialGradient3590)" fill-rule="evenodd" d="m47.307,1025.9,0,5.5579-8.8983,0,0,5.6736c11.833,1.3333,11.752-5.0586,21.585-0.7253l-12.687-10.506z"/><path id="path8658-8" fill="none" stroke="#FFF" stroke-dashoffset="0" stroke-linecap="butt" stroke-linejoin="miter" stroke-miterlimit="10" stroke-width="1" d="m38.811,1031.8,0,9.0074,9.0567,0,0,5.0159,11.464-9.5049-11.475-9.4951,0,4.9798-9.0459,0z" opacity=".481" style="color:#000;stroke-dasharray:none"/></g></g><g id="g3609"><path id="path21642" fill="url(#radialGradient3607)" opacity=".631" style="color:#000" fill-rule="evenodd" d="m40.875,36.75a15.75,9.375,0,1,1,-31.5,0,15.75,9.375,0,1,1,31.5,0z" transform="matrix(0.782536,0,0,0.36,60.663725,1035.7572)"/><path id="path9480" stroke-linejoin="miter" style="stroke-dasharray:none" fill="url(#linearGradient3604)" fill-rule="evenodd" stroke="#860000" stroke-linecap="butt" stroke-miterlimit="4" stroke-width="1" d="m74.333,1021.9,11.519,0,8.644,8.8292,0,12.065-8.5276,8.1027-11.751,0-8.7134-8.6568,0-11.594,8.8296-8.7468z"/><path id="path2787" stroke-linejoin="round" style="stroke-dasharray:none" fill="url(#radialGradient3599)" fill-rule="evenodd" stroke="url(#linearGradient3601)" stroke-linecap="round" stroke-miterlimit="4" stroke-width=".8" d="m75.289,1028.9-2.7849,2.7853,4.9177,4.9183-4.9177,4.9184,2.7849,2.7853,4.9177-4.9184,4.9177,4.9184,2.7849-2.7853-4.9177-4.9184,4.9177-4.9183-2.7849-2.7853-4.9177,4.9183-4.9177-4.9183z"/><path id="path9482" fill="none" stroke="url(#linearGradient3596)" stroke-linecap="butt" stroke-linejoin="miter" stroke-miterlimit="4" stroke-width="1" d="m74.747,1022.9,10.689,0,8.0677,8.1824,0,11.273-7.8109,7.5425-11.045,0-8.1423-8.088,0-10.778,8.2414-8.1316z" opacity=".813"/><path id="path2241" fill="url(#radialGradient3593)" fill-rule="evenodd" d="m74.527,1022.4-8.5228,8.5126,0,11.295,1.9351,1.9309c11.043,0.038,10.855-8.6495,26.063-7.8897v-5.2529l-8.3582-8.5956h-11.117z" opacity=".29"/></g><g id="g3961"><g id="g5022" fill-rule="nonzero" transform="matrix(0.01379016,0,0,0.01239639,156.26546,1048.1206)"><rect id="rect4173" opacity=".402" style="color:#000" width="1339.6" height="478.36" x="-1559.3" y="-150.7" fill="url(#linearGradient3870)"/><path id="path5058" opacity=".402" style="color:#000" fill="url(#radialGradient3872)" d="m-219.62-150.68v478.33c142.87,0.90045,345.4-107.17,345.4-239.2s-159.44-239.13-345.4-239.13z"/><path id="path5018" opacity=".402" style="color:#000" fill="url(#radialGradient3874)" d="m-1559.3-150.68v478.33c-142.87,0.90045-345.4-107.17-345.4-239.2s159.44-239.13,345.4-239.13z"/></g><path id="rect1512" stroke-linejoin="miter" style="color:#000" fill="url(#linearGradient3864)" fill-rule="nonzero" stroke="#757575" stroke-dashoffset="0" stroke-linecap="butt" stroke-miterlimit="4" stroke-width="1" d="m142.42,1025.8,3.9225,0c0.55289,0,9.1431,10.176,9.1431,10.773l-0.29203,12.194c0,0.5968-0.44511,1.0773-0.998,1.0773h-20.712c-0.55289,0-0.998-0.4805-0.998-1.0773l0.0372-12.194c0-0.5969,9.3443-10.773,9.8972-10.773z"/><path id="path5" fill="none" d="m159.29,1050.9-30.217,0,0-30.217,30.217,0,0,30.217z"/><path id="path2327" fill="url(#linearGradient3860)" fill-rule="evenodd" d="m144,1039.4-0.0344,9.9962-8.8984,0-0.0838-9.9962,9.0165,0z"/><path id="path2357" fill="none" stroke="#FFF" stroke-dashoffset="0" stroke-linecap="butt" stroke-linejoin="miter" stroke-miterlimit="4" stroke-width="1" d="m142.61,1026.6,3.5558,0c0.50121,0,8.3159,9.3803,8.3159,9.9305l-0.22206,11.864c0,0.2992-0.0919,0.4257-0.32774,0.4257l-20.077,0.01c-0.2358,0-0.37353-0.052-0.37353-0.2955l0.13774-12.004c0-0.5502,8.4892-9.9305,8.9905-9.9305z" opacity=".313" style="color:#000"/><path id="path23" fill="url(#radialGradient3856)" fill-rule="evenodd" d="m132.79,1039-0.0362,1.7301,12.245-8.7861,10.191,7.4362,0.0476-0.2078-10.914-10.603-11.534,10.43z" opacity=".2"/><path id="path188" fill="url(#linearGradient3853)" fill-rule="evenodd" d="m143.25,1040,0,9.3338-7.3717,0-0.14199-9.3338,7.5137,0z"/><path id="path2315" fill="url(#radialGradient3850)" fill-rule="evenodd" d="m141.43,1044.3c0.50552,0,0.91413,0.3144,0.91413,0.7012,0,0.3907-0.40861,0.7077-0.91413,0.7077-0.50513,0-0.91569-0.317-0.91569-0.7077,0.00039-0.3868,0.41056-0.7012,0.91569-0.7012z" opacity=".409"/><path id="path217" fill="url(#radialGradient3847)" fill-rule="evenodd" d="m141.34,1044c0.50551,0,0.91413,0.3144,0.91413,0.7011,0,0.3907-0.40862,0.7077-0.91413,0.7077-0.50513,0-0.91569-0.317-0.91569-0.7077,0.00039-0.3867,0.41056-0.7011,0.91569-0.7011z"/><path id="path342" fill="url(#linearGradient3844)" d="m144.28,1028.1,12.618,11.447,0.32979,0.2613,0.26912-0.1142-0.24858-0.5078-0.18508-0.149-12.783-10.382-12.926,10.496-0.1584,0.096-0.14448,0.4712,0.28895,0.086,0.25637-0.2056,12.684-11.499z"/><path id="path362" fill="#ef2929" stroke-linejoin="round" style="stroke-dasharray:none" stroke="#a40000" stroke-miterlimit="4" stroke-width=".8" d="m144.2,1021.9-14.72,11.986,0,5,1,1s13.654-11.203,13.798-11.317l13.202,11.317,1-1v-4l-14.202-13.055-0.0784,0.07z"/><path id="path1536" opacity=".409" style="color:#000" fill="url(#radialGradient3840)" fill-rule="nonzero" d="m129.98,1034.1,0,4.25,14.246-12.013-0.0469-3.9289-14.199,11.692z"/><path id="path2337" opacity=".149" style="color:#000" fill="url(#radialGradient3837)" fill-rule="nonzero" d="m144.31,1026.2,0.0663-3.8941,13.589,12.76-0.0175,3.2098-13.637-12.075z"/><path id="rect2361" fill="none" stroke="#FFF" stroke-dashoffset="0" stroke-linecap="butt" stroke-linejoin="miter" stroke-miterlimit="4" stroke-width="1" d="m145.82,1039.2,6.6456,0c0.56648,0,1.0225,0.4065,1.0225,0.9114l-0.006,5.9496c0,0.505-0.43838,0.8296-1.0049,0.8296h-6.6574c-0.56649,0-1.0225-0.4065-1.0225-0.9115v-5.8677c0-0.5049,0.45605-0.9114,1.0225-0.9114z" opacity=".318" style="color:#000"/><rect id="rect3263" width="7" height="6" x="145.48" y="1039.9" fill="#3465a4" stroke-linejoin="miter" style="color:#000;stroke-dasharray:none" fill-rule="nonzero" stroke="#757575" stroke-dashoffset="0" stroke-linecap="butt" stroke-miterlimit="4" stroke-width="1" rx=".267" ry=".23"/><path id="rect2363" opacity=".398" style="color:#000" fill="url(#radialGradient3832)" fill-rule="nonzero" d="m146,1043.3c2.4359,0.1802,3.7217-0.787,5.9708-0.8452l0.0166-2.0954h-6l0.0126,2.9439z"/></g><g id="g3876"><path id="path8660-0" fill="url(#radialGradient1992)" opacity=".383" style="color:#000" fill-rule="evenodd" d="m40.482,36.421a15.645,8.3969,0,1,1,-31.289,0,15.645,8.3969,0,1,1,31.289,0z" transform="matrix(-0.993158,0,0,-0.667502,137.20489,1070.0684)"/><g id="g3667" transform="translate(-0.41059,1.42455)"><path id="path2865" stroke-linejoin="miter" style="color:#000;stroke-dasharray:none" fill="url(#linearGradient3681)" fill-rule="nonzero" stroke="url(#linearGradient3683)" stroke-dashoffset="0" stroke-linecap="butt" stroke-miterlimit="4" stroke-width="1" d="m109.96,1026.2s-5.9583-0.4039-4.125,6.3823h-5.125s0.33334-7.6749,9.25-6.3823z" display="block"/><g id="g1878" fill="url(#linearGradient3685)" stroke="#3465a4" stroke-width="1.523" transform="matrix(-0.386034,-0.316192,-0.326152,0.374245,134.46368,1028.1234)"><path id="path1880" stroke-linejoin="miter" style="color:#000;stroke-dasharray:none" fill="url(#linearGradient3685)" fill-rule="nonzero" stroke="url(#linearGradient3687)" stroke-dashoffset="0" stroke-linecap="butt" stroke-miterlimit="4" stroke-width="2.01" d="M44.307,50.23c18.514-14.411,5.358-36.818-21.845-37.732l-0.348-9.3465-14.49,17.346,15.09,12.722s-0.25192-9.8812-0.25192-9.8812c18.83,0.99898,32.982,14.072,21.844,26.892z" display="block"/></g><path id="path2839" stroke-linejoin="miter" style="color:#000;stroke-dasharray:none" fill="url(#linearGradient3691)" fill-rule="nonzero" stroke="url(#linearGradient3693)" stroke-dashoffset="0" stroke-linecap="butt" stroke-miterlimit="4" stroke-width="1" d="m115.44,1041.5s5.9583,0.4046,4.125-6.3936h5.1839c0,0.9728-0.39226,7.6885-9.3089,6.3936z" display="block"/><g id="g2779" stroke-linejoin="miter" style="color:#000;stroke-dasharray:none" fill="url(#linearGradient3695)" fill-rule="nonzero" stroke="url(#linearGradient3687)" stroke-dashoffset="0" stroke-linecap="butt" stroke-miterlimit="4" stroke-width="2.008" display="block" transform="matrix(0.386034,0.316753,0.326152,-0.374909,91.23907,1039.6243)"><path id="path2781" stroke-linejoin="miter" style="color:#000;stroke-dasharray:none" fill="url(#linearGradient3695)" fill-rule="nonzero" stroke="url(#linearGradient3687)" stroke-dashoffset="0" stroke-linecap="butt" stroke-miterlimit="4" stroke-width="2.008" d="M44.307,50.23c18.514-14.411,5.358-36.818-21.845-37.732l-0.063-9.429-14.605,17.355,14.668,12.582v-9.6684c18.83,0.99898,32.982,14.072,21.844,26.892z" display="block"/></g><path id="path2791" opacity=".272" style="color:#000" fill="#FFF" fill-rule="nonzero" d="m101.42,1044.2-0.005-9.2715,8.1406-0.04-2.8009,3.2437,2.7032,1.7397c-2,1.4568-2.9393,1.3182-3.606,2.9773l-1.9248-1.4913-2.5069,2.8418z"/><g id="g2793" fill="none" stroke="#FFF" stroke-width="1.59" opacity=".5" transform="matrix(0.328713,0.262901,0.277723,-0.311169,94.451191,1039.6682)"><path id="path2795" fill="none" stroke="url(#linearGradient3703)" stroke-linejoin="miter" style="color:#000;stroke-dasharray:none" stroke-dashoffset="0" stroke-linecap="butt" stroke-miterlimit="4" stroke-width="2.388" d="M51.77,46.731c9.12-15.22-5.305-35.305-33.483-34.489l-0.061-7.0152-11.692,14.07,11.502,9.847s0.05562-9.0069,0.05562-9.0069c23.572,0.79434,37.206,12.015,33.678,26.594z" display="block"/></g><g id="g2805" fill="none" stroke="#FFF" stroke-width="1.523" opacity=".5" transform="matrix(-0.339024,-0.277687,-0.286434,0.328671,131.88578,1028.1196)"><path id="path2807" fill="none" stroke="url(#linearGradient3703)" stroke-linejoin="miter" style="color:#000;stroke-dasharray:none" stroke-dashoffset="0" stroke-linecap="butt" stroke-miterlimit="4" stroke-width="2.288" d="M51.39,46.506c9.12-15.22-5.103-33.388-32.525-33.75l-0.203-6.8084-11.22,13.22,11.585,9.795s-0.31396-8.424-0.31396-8.424c22.406,0.47504,35.698,11.698,32.677,25.967z" display="block"/></g><path id="path2811" opacity=".272" style="color:#000" fill="#FFF" fill-rule="nonzero" d="m101.06,1030.1c1.8331-6.967,11.056-4.1901,13.552-3.1271,2.7835,0.1366,3.6269-1.4573,5.8438-1.564-9.3665-6.3273-18.708-4.0447-19.396,4.6911z"/></g></g><g id="g3940"><rect id="rect4173-6" opacity=".402" style="color:#000" width="21.113" height="6.152" x="165.44" y="1046.3" fill="url(#linearGradient3938)" fill-rule="nonzero"/><path id="path5058-2" opacity=".402" style="color:#000" fill="url(#radialGradient3935)" fill-rule="nonzero" d="m186.56,1046.3v6.152c2.2517,0.012,5.4436-1.3783,5.4436-3.0764,0-1.698-2.5128-3.0756-5.4436-3.0756z"/><path id="path5018-1" opacity=".402" style="color:#000" fill="url(#radialGradient3932)" fill-rule="nonzero" d="m165.44,1046.3v6.152c-2.2517,0.012-5.4436-1.3783-5.4436-3.0764,0-1.698,2.5128-3.0756,5.4436-3.0756z"/><rect id="rect4652" width="25.057" height="4.328" x="163.5" y="1045.5" fill="url(#linearGradient3929)" stroke="#595959" stroke-miterlimit="4" stroke-width="1" rx="1.116" ry="1.141"/><path id="rect4609" stroke-linejoin="miter" style="color:#000" fill="url(#linearGradient3926)" fill-rule="nonzero" stroke="#676767" stroke-dashoffset="0" stroke-linecap="butt" stroke-miterlimit="4" stroke-width="1" d="m164.89,1035.9,22.235,0c0.25375,0,0.57798,0.1972,0.77793,0.4953,0.19994,0.2982,1.1444,1.7858,1.3565,2.1033,0.21216,0.3175,0.25896,0.6185,0.25896,1.01v8.2631c0,0.6251-0.48239,1.1283-1.0816,1.1283h-24.859c-0.59921,0-1.0816-0.5032-1.0816-1.1283v-8.2631c0-0.3381,0.0667-0.8227,0.29419-1.1313,0.2871-0.3893,1.0573-1.7433,1.2604-2.0304,0.20315-0.2872,0.57619-0.4469,0.83877-0.4469z"/><path id="path4718" fill="#fbfbfb" fill-rule="evenodd" d="m165.21,1036.4c-0.32896,0-0.75194,0.078-0.92539,0.3188l-1.2146,1.6835c-0.19552,0.271,0.0222,0.9098,0.61055,0.9098h24.632c0.79582,0,0.79814-0.6012,0.61054-0.8572l-1.1567-1.5782c-0.20974-0.2862-0.28587-0.4767-0.80972-0.4767h-21.747z"/><path id="path4750" stroke-linejoin="miter" style="color:#000" fill="none" stroke="url(#linearGradient3922)" stroke-dashoffset="0" stroke-linecap="butt" stroke-miterlimit="4" stroke-width=".947" d="m165.48,1036.8,21.024,0c0.23419,0,0.53343,0.1765,0.71796,0.4435,0.18454,0.2671,0.83016,1.3133,1.026,1.5976,0.19581,0.2843,0.27896,0.5539,0.27896,0.9045v7.2992c0,0.5598-0.0856,0.8082-0.63867,0.8082h-23.736c-0.55303,0-0.67863-0.2484-0.67863-0.8082v-7.2992c0-0.3027,0.14144-0.7368,0.35143-1.0131,0.26497-0.3486,0.69329-1.2752,0.88078-1.5323,0.18749-0.2572,0.53178-0.4002,0.77413-0.4002z"/><path id="rect15391" stroke-linejoin="miter" style="color:#000" fill="url(#linearGradient3919)" fill-rule="nonzero" stroke="#898989" stroke-dashoffset="0" stroke-linecap="round" stroke-miterlimit="4" stroke-width="1" d="m167.33,1023.9,17.347,0c0.45791,0,0.82657,0.3529,0.82657,0.7913v12.941h-19v-12.941c0-0.4384,0.36865-0.7913,0.82657-0.7913z" display="block"/><rect id="rect15660" width="16.981" height="12.724" x="167.52" y="1024.9" fill="none" stroke-linejoin="round" style="color:#000" stroke="url(#linearGradient3916)" stroke-dashoffset="0" stroke-linecap="round" stroke-miterlimit="4" stroke-width="1" display="block" rx=".12" ry=".119"/><rect id="rect4678" width="22" height="3.25" x="164.5" y="1039.6" fill="url(#linearGradient3911)" stroke="url(#linearGradient3913)" stroke-miterlimit="4" stroke-width="1" rx="1.116" ry="1.072"/><path id="path4696" fill="url(#radialGradient3821)" d="m10.872,27.626a1.2816,1.2816,0,1,1,-2.5633,0,1.2816,1.2816,0,1,1,2.5633,0z" transform="matrix(0.666667,0,0,0.666667,160.58599,1022.3401)"/><path id="path4731" fill="url(#linearGradient3907)" fill-rule="evenodd" d="m167.68,1038.4,17.042,0.038c0.45833,0,0.65855-0.2238,0.625-0.6031l-0.0833-0.9423h1.2441c0.54167,0,0.66014,0.1162,0.79167,0.3393l0.33333,0.5653c0.3512,0.5957,1.2074,1.1905,0.33211,1.1905-3.0018,0-18.785-0.2105-20.285-0.5874z" opacity=".366"/><path id="path4760" fill="none" stroke="#FFF" stroke-linecap="round" stroke-linejoin="round" stroke-width="1" d="m188.47,1039-24.975,0"/><g id="g4849" fill="#000" fill-opacity=".292" fill-rule="nonzero" opacity=".436" transform="matrix(0.684243,0,0,0.993056,159.41998,1019.4386)"><rect id="rect4833" style="color:#000" width="19" height="1" x="14" y="7"/><rect id="rect4835" style="color:#000" width="19" height="1" x="14" y="9"/><rect id="rect4837" style="color:#000" width="19" height="1" x="14" y="11"/><rect id="rect4839" style="color:#000" width="11" height="1" x="14" y="13"/></g><path id="path8643-7" style="color:#000" fill="#a7a7a7" fill-rule="evenodd" d="m173.99,1034.4,5.0626,0,0-1.9842,1.9686-0.031-4.5899-6.0785-5.0468,6.053,2.607,0-0.001,2.0409z"/></g></g></svg>