<svg xmlns="http://www.w3.org/2000/svg" id="bitmap:37-32" width="37" height="185" version="1.1" viewBox="0 0 9.79 48.949"><metadata/><g stroke-width=".169"><path fill="#3096fa" d="m4.7625 2.9633-0.37306 0.40505 1.2118 1.3185h-4.2783v0.57455h4.2783l-1.2144 1.3185 0.37571 0.40505 1.8521-2.0109z" transform="matrix(1.25 0 0 1.25 -.066217 -1.3229)"/><path fill="#3096fa" d="m4.7625 10.795-0.37306 0.40505 1.2118 1.3185h-4.2783v0.57455h4.2783l-1.2144 1.3185 0.37571 0.40505 1.8521-2.0109z" transform="matrix(1.25 0 0 1.25 -.066217 -1.3229)"/><path fill="#2979ff" d="m4.7625 18.627-0.37306 0.40505 1.2118 1.3185h-4.2783v0.57455h4.2783l-1.2144 1.3185 0.37571 0.40505 1.8521-2.0109z" transform="matrix(1.25 0 0 1.25 -.066217 -1.3229)"/><path fill="#aeaeae" d="m4.7625 26.459-0.37306 0.40505 1.2118 1.3185h-4.2783v0.57455h4.2783l-1.2144 1.3185 0.37571 0.40505 1.8521-2.0109z" transform="matrix(1.25 0 0 1.25 -.066217 -1.3229)"/><path fill="#3096fa" d="m4.7625 34.29-0.37306 0.40505 1.2118 1.3185h-4.2783v0.57455h4.2783l-1.2144 1.3185 0.37571 0.40505 1.8521-2.0109z" transform="matrix(1.25 0 0 1.25 -.066217 -1.3229)"/></g></svg>