<svg xmlns="http://www.w3.org/2000/svg" id="bitmap:18-32" width="18" height="84" version="1.1" viewBox="0 0 4.762 22.226"><metadata/><path stroke-width=".265" d="m1.6178 3.0446 2.0652-1.9695-0.29502-0.28133-2.0652 1.9695z"/><path stroke-width=".265" d="m1.3439 2.7932 2.0652 1.9695 0.29502-0.28133-2.0652-1.9695z"/><g stroke-width=".128"><path fill="#3096fa" d="m1.9415 8.6012-1.1498-1.9695 0.16426-0.28141 1.1498 1.9695z" transform="matrix(-1.7963 0 0 1 5.1053 0)"/><path fill="#3096fa" d="m2.0941 8.3496-1.1498 1.9695-0.16426-0.28141 1.1498-1.9695z" transform="matrix(-1.7963 0 0 1 5.1053 0)"/><path fill="#fff" d="m1.9415 14.157-1.1498-1.9694 0.16426-0.28139 1.1498 1.9694z" transform="matrix(-1.7963 0 0 1 5.1053 0)"/><path fill="#fff" d="m2.0941 13.906-1.1498 1.9694-0.16426-0.28138 1.1498-1.9694z" transform="matrix(-1.7963 0 0 1 5.1053 0)"/><path fill="#aeaeae" d="m1.9415 19.714-1.1498-1.9694 0.16426-0.28136 1.1498 1.9694z" transform="matrix(-1.7963 0 0 1 5.1053 0)"/><path fill="#aeaeae" d="m2.0941 19.463-1.1498 1.9694-0.16426-0.28136 1.1498-1.9694z" transform="matrix(-1.7963 0 0 1 5.1053 0)"/></g></svg>