<svg xmlns="http://www.w3.org/2000/svg" id="bitmap:6-24" width="6" height="288" version="1.1" viewBox="0 0 1.587 76.2"><metadata/><g stroke-width="0" transform="translate(-159.47,-110.22)"><rect width="1.581" height="6.35" x="159.47" y="110.22" fill="#fff"/><rect width=".264" height="6.35" x="160.78" y="110.22" fill="#aeaeae"/><rect width="1.581" height="6.35" x="159.47" y="116.57" fill="#fff"/><g fill="#e3f2fd" transform="matrix(5.9773 0 0 1.0435 -801.62 -5.0686)"><rect width=".265" height="6.085" x="160.79" y="116.57" fill="#e3f2fd" stroke-width="0"/></g><rect width="1.581" height="6.35" x="159.47" y="122.92" fill="#fff"/><g fill="#bbdefb" transform="matrix(5.9773 0 0 1.0435 -801.62 -5.3447)"><rect width=".265" height="6.085" x="160.79" y="122.92" fill="#bbdefb" stroke-width="0"/></g><rect width="1.581" height="6.35" x="159.47" y="129.27" fill="#fff"/><rect width=".264" height="6.35" x="160.78" y="129.27" fill="#aeaeae"/><rect width="1.581" height="6.35" x="159.47" y="135.62" fill="#fff"/><g fill="#e3f2fd" transform="matrix(5.9773 0 0 1.0435 -801.62 13.981)"><rect width=".265" height="6.085" x="160.79" y="116.57" fill="#e3f2fd" stroke-width="0"/></g><rect width="1.581" height="6.35" x="159.47" y="141.97" fill="#fff"/><g fill="#bbdefb" transform="matrix(5.9773 0 0 1.0435 -801.62 13.705)"><rect width=".265" height="6.085" x="160.79" y="122.92" fill="#bbdefb" stroke-width="0"/></g><rect width="1.581" height="6.35" x="159.47" y="148.32" fill="#fff"/><rect width=".264" height="6.35" x="160.78" y="148.32" fill="#aeaeae"/><rect width="1.581" height="6.35" x="159.47" y="154.67" fill="#fff"/><g fill="#e3f2fd" transform="matrix(5.9773 0 0 1.0435 -801.62 33.031)"><rect width=".265" height="6.085" x="160.79" y="116.57" fill="#e3f2fd" stroke-width="0"/></g><rect width="1.581" height="6.35" x="159.47" y="161.02" fill="#fff"/><g fill="#bbdefb" transform="matrix(5.9773 0 0 1.0435 -801.62 32.755)"><rect width=".265" height="6.085" x="160.79" y="122.92" fill="#bbdefb" stroke-width="0"/></g><rect width="1.581" height="6.35" x="159.47" y="167.37" fill="#fff"/><rect width=".264" height="6.35" x="160.78" y="167.37" fill="#aeaeae"/><rect width="1.581" height="6.35" x="159.47" y="173.72" fill="#fff"/><g fill="#e3f2fd" transform="matrix(5.9773 0 0 1.0435 -801.62 52.081)"><rect width=".265" height="6.085" x="160.79" y="116.57" fill="#e3f2fd" stroke-width="0"/></g><rect width="1.581" height="6.35" x="159.47" y="180.07" fill="#fff"/><g fill="#bbdefb" transform="matrix(5.9773 0 0 1.0435 -801.62 51.805)"><rect width=".265" height="6.085" x="160.79" y="122.92" fill="#bbdefb" stroke-width="0"/></g></g></svg>