<svg xmlns="http://www.w3.org/2000/svg" id="bitmap:17-32" width="17" height="48" version="1.1" viewBox="0 0 4.498 12.7"><metadata/><g stroke-width=".265" transform="translate(-40.717,-1.1913)"><g fill="#fff"><g stroke="#3096fa" stroke-width=".367" transform="matrix(.75874 0 0 .68439 9.8627 .47961)"><rect width="5.556" height="5.821" x="40.849" y="7.409" stroke-width=".367" rx=".697" ry=".773"/></g></g><rect width="4.233" height="3.969" x="40.849" y="9.79" fill="#fff" stroke="#2979ff" stroke-width=".265" rx=".529" ry=".529"/><g stroke-width=".07"><path fill="#aeaeae" d="m43.648 4.5906-0.94415-0.95147q-0.08417 0.029276-0.16834 0.047573-0.08417 0.018299-0.172 0.018299-0.35497 0-0.60382-0.24702t-0.24885-0.60199q0-0.11344 0.02928-0.2214t0.08417-0.2031l0.53063 0.53063 0.33667-0.31472-0.54526-0.54527q0.09515-0.054893 0.20127-0.085998 0.10613-0.031106 0.21591-0.031106 0.36229 0 0.61663 0.25434t0.25434 0.61663q0 0.087828-0.0183 0.172-0.0183 0.084168-0.04757 0.16834l0.94781 0.94415q0.04025 0.040255 0.04025 0.096977t-0.04025 0.096977l-0.27812 0.25616q-0.04026 0.040255-0.09515 0.040255t-0.09515-0.040255zm0.10247-0.20859 0.14638-0.14638-0.99904-0.99904q0.05855-0.076849 0.08783-0.18115 0.02928-0.1043 0.02928-0.19944 0-0.27446-0.2031-0.46476-0.2031-0.19029-0.46293-0.19395l0.36961 0.37693q0.03294 0.032935 0.03294 0.080509t-0.03294 0.080509l-0.48305 0.45378q-0.03294 0.032935-0.08051 0.032935t-0.08051-0.032935l-0.35497-0.35131q0.01098 0.28178 0.19944 0.46476t0.44463 0.18298q0.09149 0 0.19395-0.029276 0.10247-0.029276 0.17932-0.087828z"/><path fill="#3096fa" d="m43.648 8.8239-0.94415-0.95147q-0.08417 0.029276-0.16834 0.047573-0.08417 0.018299-0.172 0.018299-0.35497 0-0.60382-0.24702t-0.24885-0.60199q0-0.11344 0.02928-0.2214t0.08417-0.2031l0.53063 0.53063 0.33667-0.31472-0.54526-0.54527q0.09515-0.054893 0.20127-0.085998 0.10613-0.031106 0.21591-0.031106 0.36229 0 0.61663 0.25434t0.25434 0.61663q0 0.087828-0.0183 0.172-0.0183 0.084168-0.04757 0.16834l0.94781 0.94415q0.04025 0.040255 0.04025 0.096977t-0.04025 0.096977l-0.27812 0.25616q-0.04026 0.040255-0.09515 0.040255t-0.09515-0.040255zm0.10247-0.20859 0.14638-0.14638-0.99904-0.99904q0.05855-0.076849 0.08783-0.18115 0.02928-0.1043 0.02928-0.19944 0-0.27446-0.2031-0.46476-0.2031-0.19029-0.46293-0.19395l0.36961 0.37693q0.03294 0.032935 0.03294 0.080509t-0.03294 0.080509l-0.48305 0.45378q-0.03294 0.032935-0.08051 0.032935t-0.08051-0.032935l-0.35497-0.35131q0.01098 0.28178 0.19944 0.46476t0.44463 0.18298q0.09149 0 0.19395-0.029276 0.10247-0.029276 0.17932-0.087828z"/><path fill="#2979ff" d="m43.648 13.057-0.94415-0.95147q-0.08417 0.02928-0.16834 0.04757-0.08417 0.0183-0.172 0.0183-0.35497 0-0.60382-0.24702t-0.24885-0.60199q0-0.11344 0.02928-0.2214t0.08417-0.2031l0.53063 0.53063 0.33667-0.31472-0.54526-0.54527q0.09515-0.05489 0.20127-0.086 0.10613-0.03111 0.21591-0.03111 0.36229 0 0.61663 0.25434t0.25434 0.61663q0 0.08783-0.0183 0.172t-0.04757 0.16834l0.94781 0.94415q0.04025 0.04026 0.04025 0.09698t-0.04025 0.09698l-0.27812 0.25616q-0.04026 0.04026-0.09515 0.04026t-0.09515-0.04026zm0.10247-0.20859 0.14638-0.14638-0.99904-0.99904q0.05855-0.07685 0.08783-0.18114 0.02928-0.1043 0.02928-0.19944 0-0.27446-0.2031-0.46476-0.2031-0.19029-0.46293-0.19395l0.36961 0.37693q0.03294 0.03294 0.03294 0.08051t-0.03294 0.08051l-0.48305 0.45378q-0.03294 0.03294-0.08051 0.03294t-0.08051-0.03294l-0.35497-0.35131q0.01098 0.28178 0.19944 0.46476t0.44463 0.18298q0.09149 0 0.19395-0.02928 0.10247-0.02928 0.17932-0.08783z"/></g></g></svg>