<svg xmlns="http://www.w3.org/2000/svg" id="bitmap:18-32" width="18" height="60" version="1.1" viewBox="0 0 4.762 15.875"><metadata/><g stroke-width=".265"><path d="m2.3918 1.0746 1.5769 1.6063-0.22528 0.22946-1.5769-1.6063z"/><path d="m0.79371 2.6647 1.5769-1.6063 0.22528 0.22946-1.5769 1.6063z"/><path fill="#3096fa" d="m2.3918 5.0434 1.5769 1.6063-0.22528 0.22946-1.5769-1.6063z"/><path fill="#3096fa" d="m0.79371 6.6334 1.5769-1.6063 0.22528 0.22946-1.5769 1.6063z"/><path fill="#fff" d="m2.3918 9.0119 1.5769 1.6065-0.22528 0.22948-1.5769-1.6065z"/><path fill="#fff" d="m0.79371 10.602 1.5769-1.6065 0.22528 0.22948-1.5769 1.6065z"/><path fill="#aeaeae" d="m2.3918 12.981 1.5769 1.6064-0.22528 0.22947-1.5769-1.6064z"/><path fill="#aeaeae" d="m0.79371 14.571 1.5769-1.6064 0.22528 0.22947-1.5769 1.6064z"/></g></svg>