<svg xmlns="http://www.w3.org/2000/svg" id="bitmap:52-32" width="52" height="416" version="1.1" viewBox="0 0 13.759 110.07"><g fill="none"><g stroke-width="1.058"><rect width="6.35" height="6.35" x="2.646" y="4.763" stroke="#aeaeae"/><rect width="6.35" height="6.35" x="2.646" y="18.521" stroke="#3096fa"/><rect width="6.35" height="6.35" x="2.646" y="32.28" stroke="#2979ff"/></g><rect width="7.409" height="1.058" x="-11.642" y="2.117" fill="#aeaeae" stroke-width=".239" transform="scale(-1,1)"/><rect width="1.058" height="6.35" x="-11.642" y="3.175" fill="#aeaeae" stroke-width=".239" transform="scale(-1,1)"/><rect width="6.35" height="6.35" x="2.646" y="46.039" stroke="#aeaeae" stroke-width="1.058"/><rect width="7.409" height="1.058" x="-11.642" y="43.393" fill="#aeaeae" stroke-width=".239" transform="scale(-1,1)"/><rect width="1.058" height="6.35" x="-11.642" y="44.452" fill="#aeaeae" stroke-width=".239" transform="scale(-1,1)"/><g stroke-width=".239"><rect width="7.409" height="1.058" x="-11.642" y="15.876" fill="#3096fa" transform="scale(-1,1)"/><rect width="1.058" height="6.35" x="-11.642" y="16.934" fill="#3096fa" transform="scale(-1,1)"/><rect width="7.409" height="1.058" x="-11.642" y="29.634" fill="#2979ff" transform="scale(-1,1)"/><rect width="1.058" height="6.35" x="-11.642" y="30.693" fill="#2979ff" transform="scale(-1,1)"/></g><g stroke-width="1.058"><rect width="6.35" height="6.35" x="2.646" y="59.798" stroke="#aeaeae"/><rect width="6.35" height="6.35" x="2.646" y="73.557" stroke="#3096fa"/><rect width="6.35" height="6.35" x="2.646" y="87.316" stroke="#2979ff"/></g><rect width="7.409" height="1.058" x="-11.642" y="57.152" fill="#aeaeae" stroke-width=".239" transform="scale(-1,1)"/><rect width="1.058" height="6.35" x="-11.642" y="58.211" fill="#aeaeae" stroke-width=".239" transform="scale(-1,1)"/><rect width="6.35" height="6.35" x="2.646" y="101.07" stroke="#aeaeae" stroke-width="1.058"/><rect width="7.409" height="1.058" x="-11.642" y="98.429" fill="#aeaeae" stroke-width=".239" transform="scale(-1,1)"/><rect width="1.058" height="6.35" x="-11.642" y="99.487" fill="#aeaeae" stroke-width=".239" transform="scale(-1,1)"/><g stroke-width=".239"><rect width="7.409" height="1.058" x="-11.642" y="70.911" fill="#3096fa" transform="scale(-1,1)"/><rect width="1.058" height="6.35" x="-11.642" y="71.969" fill="#3096fa" transform="scale(-1,1)"/><rect width="7.409" height="1.058" x="-11.642" y="84.67" fill="#2979ff" transform="scale(-1,1)"/><rect width="1.058" height="6.35" x="-11.642" y="85.728" fill="#2979ff" transform="scale(-1,1)"/></g></g></svg>