<svg xmlns="http://www.w3.org/2000/svg" id="bitmap:21-32" width="21" height="60" version="1.1" viewBox="0 0 5.556 15.875"><metadata/><g stroke-width=".265"><path fill="none" d="m0-1.8521h6.35v6.35h-6.35z"/><path fill="none" d="m0 3.7042h6.35v6.35h-6.35z"/><path stroke-width=".265" d="m2.6055e-6 0.91524 2.7638 2.5243 0.39481-0.3606-2.7638-2.5243z"/><path stroke-width=".265" d="m5.1612 0.52915-2.7638 2.5243 0.39481 0.3606 2.7638-2.5243z"/></g><g><g stroke-width=".098"><path fill="#3096fa" d="m-0.14935 3.2966 0.92136 2.5241 0.13162-0.36057-0.92136-2.5241z" transform="matrix(2.9999 0 0 1 .18786 1.5687) translate(.086725 .018767)"/><path fill="#3096fa" d="m1.5711 2.9103-0.92136 2.5241 0.13162 0.36057 0.92136-2.5241z" transform="matrix(2.9999 0 0 1 .18786 1.5687) translate(.086725 .018767)"/><path fill="#fff" d="m-0.14935 7.2641 0.92136 2.5252 0.13162-0.36076-0.92136-2.5252z" transform="matrix(2.9999 0 0 1 .18786 1.5687) translate(.086725 .018767)"/><path fill="#fff" d="m1.5711 6.879-0.92136 2.5252 0.13162 0.36076 0.92136-2.5252z" transform="matrix(2.9999 0 0 1 .18786 1.5687) translate(.086725 .018767)"/></g><path fill="#aeaeae" stroke-width=".54" d="m-0.062623 11.252 0.92136 2.525 0.13162-0.36071-0.92136-2.525z" transform="matrix(2.9999 0 0 1 .18786 1.5687)"/><path fill="#aeaeae" stroke-width=".54" d="m1.6578 10.866-0.92136 2.525 0.13162 0.36071 0.92136-2.525z" transform="matrix(2.9999 0 0 1 .18786 1.5687)"/></g></svg>