<svg xmlns="http://www.w3.org/2000/svg" id="bitmap:16-32" width="16" height="48" version="1.1" viewBox="0 0 4.233 12.7"><metadata/><g stroke-width=".265"><path fill="#aeaeae" d="m4.2332 0.42636-0.42634-0.42636-1.6903 1.6903-1.6903-1.6903-0.42635 0.42636 1.6903 1.6903-1.6903 1.6903 0.42635 0.42636 1.6903-1.6903 1.6903 1.6903 0.42634-0.42636-1.6903-1.6903z"/><path fill="#ff1744" d="m4.2332 4.6597-0.42634-0.42636-1.6903 1.6903-1.6903-1.6903-0.42635 0.42636 1.6903 1.6903-1.6903 1.6903 0.42635 0.42636 1.6903-1.6903 1.6903 1.6903 0.42634-0.42636-1.6903-1.6903z"/><path fill="#d50000" d="m4.2332 8.893-0.42634-0.42636-1.6903 1.6903-1.6903-1.6903-0.42635 0.42636 1.6903 1.6903-1.6903 1.6903 0.42635 0.42636 1.6903-1.6903 1.6903 1.6903 0.42634-0.42636-1.6903-1.6903z"/></g></svg>