<svg xmlns="http://www.w3.org/2000/svg" id="bitmap:67-32" width="67" height="335" version="1.1" viewBox="0 0 17.727 88.637"><metadata/><g stroke-width=".049"><path fill="#3096fa" d="m4.6737 2.0033-0.37573 0.37688 1.2205 1.2268h-4.3089v0.53459h4.3089l-1.2231 1.2268 0.3784 0.37688 1.8653-1.8711z" transform="matrix(2.3333 0 0 2.3333 -.17651 -.1764)"/><path fill="#3096fa" d="m4.6737 9.6007-0.37573 0.37688 1.2205 1.2268h-4.3089v0.53459h4.3089l-1.2231 1.2268 0.3784 0.37688 1.8653-1.8711z" transform="matrix(2.3333 0 0 2.3333 -.17651 -.1764)"/><path fill="#2979ff" d="m4.6737 17.198-0.37573 0.37688 1.2205 1.2268h-4.3089v0.53459h4.3089l-1.2231 1.2268 0.3784 0.37688 1.8653-1.8711z" transform="matrix(2.3333 0 0 2.3333 -.17651 -.1764)"/><path fill="#aeaeae" d="m4.6737 24.796-0.37573 0.37688 1.2205 1.2268h-4.3089v0.53459h4.3089l-1.2231 1.2268 0.3784 0.37688 1.8653-1.8711z" transform="matrix(2.3333 0 0 2.3333 -.17651 -.1764)"/><path fill="#3096fa" d="m4.6738 32.393-0.37573 0.37688 1.2205 1.2268h-4.3089v0.53459h4.3089l-1.2231 1.2268 0.3784 0.37688 1.8653-1.8711z" transform="matrix(2.3333 0 0 2.3333 -.17651 -.1764)"/></g></svg>