<svg xmlns="http://www.w3.org/2000/svg" id="bitmap:5-24" width="5" height="95" version="1.1" viewBox="0 0 1.323 25.135"><metadata/><rect width="1.323" height="25.135" y="0" fill="#fff" stroke-width=".265"/><g fill="#fff"><rect width="1.058" height="4.763" x=".132" y="5.159" stroke="#3096fa" stroke-width=".265" rx=".529" ry=".529"/><rect width=".265" height=".794" x="9.79" y="-1.058" stroke-width="0" transform="rotate(90)"/><rect width=".265" height=".265" x="9.525" y="-.529" stroke-width="0" transform="rotate(90)"/></g><g stroke-width="0"><rect width=".265" height=".265" x="9.525" y="-1.058" fill="#aeaeae" transform="rotate(90)"/><g fill="#fff"><rect width=".265" height=".265" x="9.26" y="-.529" transform="rotate(90)"/><rect width=".265" height=".265" x="9.525" y="-.794" transform="rotate(90)"/><rect width=".265" height=".265" x="9.525" y="-1.058" transform="rotate(90)"/><rect width=".265" height=".265" x="9.26" y="-1.058" transform="rotate(90)"/><rect width=".265" height=".265" x="9.79" y="-1.323" transform="rotate(90)"/></g><g fill="#3096fa"><rect width=".265" height=".265" x="9.79" y="-1.323" transform="rotate(90)"/><rect width=".265" height=".265" x="9.525" y="-.265" transform="rotate(90)"/><rect width=".265" height=".265" x="9.525" y="-1.323" transform="rotate(90)"/><rect width=".265" height=".265" x="9.79" y="-1.323" transform="rotate(90)"/><rect width=".265" height=".265" x="9.79" y="-.265" transform="rotate(90)"/></g></g><rect width="1.058" height="4.763" x=".132" y="10.186" fill="#fff" stroke="#aeaeae" stroke-width=".265" rx=".529" ry=".529"/><g stroke-width="0"><rect width=".265" height="1.323" x="14.817" y="-1.323" fill="#fff" transform="rotate(90)"/><rect width=".265" height=".265" x="14.552" y="-.265" fill="#aeaeae" transform="rotate(90)"/><rect width=".265" height=".265" x="14.552" y="-1.323" fill="#aeaeae" transform="rotate(90)"/><rect width=".265" height=".265" x="14.552" y="-.529" fill="#fff" transform="rotate(90)"/><rect width=".265" height=".265" x="14.552" y="-1.058" fill="#aeaeae" transform="rotate(90)"/></g><g fill="#fff"><g stroke-width="0"><rect width=".265" height=".265" x="14.288" y="-.529" transform="rotate(90)"/><rect width=".265" height=".265" x="14.552" y="-.794" transform="rotate(90)"/><rect width=".265" height=".265" x="14.552" y="-1.058" transform="rotate(90)"/><rect width=".265" height=".265" x="14.288" y="-1.058" transform="rotate(90)"/><rect width=".265" height=".265" x="14.817" y="-.794" transform="rotate(90)"/></g><rect width="1.058" height="4.763" x=".132" y="20.241" stroke="#2979ff" stroke-width=".265" rx=".529" ry=".529"/><rect width=".265" height=".794" x="24.871" y="-1.058" stroke-width="0" transform="rotate(90)"/><rect width=".265" height=".265" x="24.606" y="-.529" stroke-width="0" transform="rotate(90)"/></g><g stroke-width="0"><rect width=".265" height=".265" x="24.606" y="-1.058" fill="#aeaeae" transform="rotate(90)"/><g fill="#fff"><rect width=".265" height=".265" x="24.342" y="-.529" transform="rotate(90)"/><rect width=".265" height=".265" x="24.606" y="-.794" transform="rotate(90)"/><rect width=".265" height=".265" x="24.606" y="-1.058" transform="rotate(90)"/><rect width=".265" height=".265" x="24.342" y="-1.058" transform="rotate(90)"/><rect width=".265" height=".265" x="24.871" y="-1.323" transform="rotate(90)"/></g><rect width=".265" height=".265" x="24.871" y="-1.323" fill="#3096fa" transform="rotate(90)"/><g fill="#2979ff"><rect width=".265" height=".265" x="24.606" y="-1.323" transform="rotate(90)"/><rect width=".265" height=".265" x="24.871" y="-1.323" transform="rotate(90)"/><rect width=".265" height=".265" x="24.871" y="-.265" transform="rotate(90)"/><rect width=".265" height=".265" x="24.606" y="-.265" transform="rotate(90)"/><rect width=".265" height=".265" x="24.342" y="-1.323" transform="rotate(90)"/></g><rect width=".265" height=".265" x="9.26" y="-1.323" fill="#3096fa" transform="rotate(90)"/><rect width=".265" height=".265" x="9.26" y="-.265" fill="#3096fa" transform="rotate(90)"/><rect width=".265" height=".265" x="14.288" y="-.265" fill="#aeaeae" transform="rotate(90)"/><rect width=".265" height=".265" x="14.288" y="-1.323" fill="#aeaeae" transform="rotate(90)"/><rect width=".265" height=".265" x="24.606" y="-.265" fill="#2979ff" transform="rotate(90)"/><rect width=".265" height=".265" x="24.342" y="-.265" fill="#2979ff" transform="rotate(90)"/><g fill="#aeaeae"><rect width=".265" height=".265" x="14.552" y="-.265" transform="rotate(90)"/><rect width=".265" height=".265" x="14.817" y="-.265" transform="rotate(90)"/><rect width=".265" height=".265" x="19.315" y="-.265" transform="rotate(90)"/></g></g><rect width="1.058" height="4.763" x=".132" y="15.214" fill="#f5f5f5" stroke="#aeaeae" stroke-width=".265" rx=".529" ry=".529"/><g stroke-width="0"><g fill="#aeaeae"><rect width=".265" height=".265" x="19.579" y="-.265" transform="rotate(90)"/><rect width=".265" height=".265" x="19.579" y="-1.323" transform="rotate(90)"/><rect width=".265" height=".265" x="19.844" y="-.265" transform="rotate(90)"/></g><rect width=".794" height=".794" x="19.315" y="-1.058" fill="#f5f5f5" transform="rotate(90)"/><rect width=".265" height=".265" x="19.844" y="-1.323" fill="#fff" transform="rotate(90)"/><g fill="#aeaeae"><rect width=".265" height=".265" x="19.844" y="-1.323" transform="rotate(90)"/><rect width=".265" height=".265" x="19.315" y="-1.323" transform="rotate(90)"/><rect width=".265" height=".265" x="4.233" y="-.265" transform="rotate(90)"/></g></g><rect width="1.058" height="4.763" x=".132" y=".132" fill="#f5f5f5" stroke="#aeaeae" stroke-width=".265" rx=".529" ry=".529"/><g fill="#aeaeae" stroke-width="0"><rect width=".265" height=".265" x="4.498" y="-.265" transform="rotate(90)"/><rect width=".265" height=".265" x="4.498" y="-1.323" transform="rotate(90)"/><rect width=".265" height=".265" x="4.763" y="-.265" transform="rotate(90)"/></g><g stroke-width="0"><rect width=".794" height=".794" x="4.233" y="-1.058" fill="#f5f5f5" transform="rotate(90)"/><rect width=".265" height=".265" x="4.763" y="-1.323" fill="#fff" transform="rotate(90)"/><rect width=".265" height=".265" x="4.763" y="-1.323" fill="#aeaeae" transform="rotate(90)"/><rect width=".265" height=".265" x="4.233" y="-1.323" fill="#aeaeae" transform="rotate(90)"/></g></svg>