<svg xmlns="http://www.w3.org/2000/svg" id="bitmap:60-32" width="60" height="240" version="1.1" viewBox="0 0 15.875 63.5"><metadata/><g stroke-width=".265"><path fill="#aeaeae" d="m7.1569 5.2917 0.42901 0.53295-1.3936 1.7349h4.92v0.75597h-4.92l1.3966 1.7349-0.43206 0.53295-2.1299-2.6458z" transform="matrix(-1 0 0 1 16.139 0)"/><path fill="#3096fa" d="m7.1569 21.167 0.42901 0.53295-1.3936 1.7349h4.92v0.75597h-4.92l1.3966 1.7349-0.43206 0.53295-2.1299-2.6458z" transform="matrix(-1 0 0 1 16.139 0)"/><path fill="#2979ff" d="m7.1569 37.042 0.42901 0.53295-1.3936 1.7349h4.92v0.75597h-4.92l1.3966 1.7349-0.43206 0.53295-2.1299-2.6458z" transform="matrix(-1 0 0 1 16.139 0)"/><path fill="#aeaeae" d="m7.1569 52.917 0.42901 0.53295-1.3936 1.7349h4.92v0.75597h-4.92l1.3966 1.7349-0.43206 0.53295-2.1299-2.6458z" transform="matrix(-1 0 0 1 16.139 0)"/></g></svg>