<svg xmlns="http://www.w3.org/2000/svg" id="bitmap:26-24" width="26" height="520" fill="#000" version="1.1" viewBox="0 0 26 520"><metadata/><rect width="26" height="520" fill="#fff" fill-opacity=".984"/><rect width="24" height="24" x="1" y="1" fill="none" stroke="#aeaeae" stroke-width="2" rx="2" ry="2"/><path d="m9.7272 121.07-4.2954-4.388-1.4318 1.4627 5.7272 5.8507 12.273-12.537-1.4318-1.4627z"/><path d="m4 220h18v2h-18z"/><g fill="none" stroke-width="1.96" transform="matrix(1.0407 0 0 1.0001 -.040662 -.0030241)"><rect width="22.959" height="24.042" x="1.021" y="26.979" stroke="#3096fa" rx="1.917" ry="2"/><rect width="22.959" height="24.042" x="1.021" y="52.979" stroke="#2979ff" rx="1.917" ry="2"/><rect width="22.959" height="24.042" x="1.021" y="78.979" stroke="#aeaeae" rx="1.917" ry="2"/><rect width="23.061" height="23.997" x="1.019" y="312.95" fill="none" stroke="#aeaeae" rx="1.922" ry="2"/><rect width="22.959" height="24.042" x="1.04" y="338.92" stroke="#3096fa" rx="1.917" ry="2"/><rect width="22.959" height="24.042" x="1.04" y="364.92" stroke="#2979ff" rx="1.917" ry="2"/><rect width="22.959" height="24.042" x="1.04" y="390.92" stroke="#aeaeae" rx="1.917" ry="2"/><rect width="23.061" height="23.997" x="1.019" y="416.94" fill="none" stroke="#aeaeae" rx="1.922" ry="2"/><rect width="22.959" height="24.042" x="1.04" y="442.91" stroke="#3096fa" rx="1.917" ry="2"/><rect width="22.959" height="24.042" x="1.04" y="468.91" stroke="#2979ff" rx="1.917" ry="2"/><rect width="22.959" height="24.042" x="1.04" y="494.91" stroke="#aeaeae" rx="1.917" ry="2"/><rect width="22.959" height="24.042" x="1.021" y="104.98" fill="none" stroke="#aeaeae" rx="1.913" ry="2.003"/><rect width="22.959" height="24.042" x="1.021" y="130.98" stroke="#3096fa" rx="1.917" ry="2"/><rect width="22.959" height="24.042" x="1.041" y="156.96" stroke="#2979ff" rx="1.917" ry="2"/><rect width="22.959" height="24.042" x="1.041" y="182.96" stroke="#aeaeae" rx="1.917" ry="2"/><rect width="23.022" height="24.037" x="1.019" y="208.96" fill="none" stroke="#aeaeae" rx="1.919" ry="2.003"/><rect width="22.979" height="24.039" x="1.041" y="234.94" stroke="#3096fa" rx="1.918" ry="2"/><rect width="22.979" height="24.039" x="1.041" y="260.93" stroke="#2979ff" rx="1.918" ry="2"/><rect width="22.979" height="24.039" x="1.041" y="286.93" stroke="#aeaeae" rx="1.918" ry="2"/></g><path fill="#3096fa" d="m9.7272 147.07-4.2954-4.388-1.4318 1.4627 5.7272 5.8507 12.273-12.537-1.4318-1.4627z"/><path fill="#2979ff" d="m9.7272 173.07-4.2954-4.388-1.4318 1.4627 5.7272 5.8507 12.273-12.537-1.4318-1.4627z"/><path fill="#aeaeae" d="m9.7272 199.07-4.2954-4.388-1.4318 1.4627 5.7272 5.8507 12.273-12.537-1.4318-1.4627z"/><path d="m9.7272 329.07-4.2954-4.388-1.4318 1.4627 5.7272 5.8507 12.273-12.537-1.4318-1.4627z"/><path fill="#3096fa" d="m9.7272 355.07-4.2954-4.388-1.4318 1.4627 5.7272 5.8507 12.273-12.537-1.4318-1.4627z"/><path fill="#2979ff" d="m9.7272 381.07-4.2954-4.388-1.4318 1.4627 5.7272 5.8507 12.273-12.537-1.4318-1.4627z"/><path fill="#aeaeae" d="m9.7272 407.07-4.2954-4.388-1.4318 1.4627 5.7272 5.8507 12.273-12.537-1.4318-1.4627z"/><path fill="#3096fa" d="m4 246h18v2h-18z"/><path fill="#2979ff" d="m4 272h18v2h-18z"/><path fill="#aeaeae" d="m4 298h18v2h-18z"/><g stroke-width="4.252"><path fill="#000" d="m23.125 422.61-1.8128-1.6115-7.1872 6.3885-7.1872-6.3885-1.8128 1.6115 7.1872 6.3885-7.1872 6.3885 1.8128 1.6115 7.1872-6.3885 7.1872 6.3885 1.8128-1.6115-7.1872-6.3885z" transform="matrix(.88889 0 0 1 .44444 0)"/><path fill="#3096fa" d="m23.125 448.61-1.8128-1.6115-7.1872 6.3885-7.1872-6.3885-1.8128 1.6115 7.1872 6.3885-7.1872 6.3885 1.8128 1.6115 7.1872-6.3885 7.1872 6.3885 1.8128-1.6115-7.1872-6.3885z" transform="matrix(.88889 0 0 1 .44444 0)"/><path fill="#2979ff" d="m23.125 474.61-1.8128-1.6115-7.1872 6.3885-7.1872-6.3885-1.8128 1.6115 7.1872 6.3885-7.1872 6.3885 1.8128 1.6115 7.1872-6.3885 7.1872 6.3885 1.8128-1.6115-7.1872-6.3885z" transform="matrix(.88889 0 0 1 .44444 0)"/><path fill="#aeaeae" d="m23.125 500.71-1.8128-1.7122-7.1872 6.7878-7.1872-6.7878-1.8128 1.7122 7.1872 6.7878-7.1872 6.7878 1.8128 1.7122 7.1872-6.7878 7.1872 6.7878 1.8128-1.7122-7.1872-6.7878z" transform="matrix(.88889 0 0 1 .44444 0)"/></g></svg>