<svg xmlns="http://www.w3.org/2000/svg" id="bitmap:14-32" width="14" height="48" version="1.1" viewBox="0 0 3.704 12.7"><metadata/><g stroke-width=".265"><path d="m1.8609 0.80766 1.3141 1.3769-0.18773 0.19669-1.3141-1.3769z"/><path d="m0.52916 2.1706 1.3141-1.3769 0.18773 0.19669-1.3141 1.3769z"/><path fill="#3096fa" d="m1.8609 3.9827 1.3141 1.3769-0.18773 0.19669-1.3141-1.3769z"/><path fill="#3096fa" d="m0.52916 5.3456 1.3141-1.3769 0.18773 0.19669-1.3141 1.3769z"/><path fill="#fff" d="m1.8609 7.1575 1.3141 1.377-0.18773 0.1967-1.3141-1.377z"/><path fill="#fff" d="m0.52916 8.5207 1.3141-1.377 0.18773 0.1967-1.3141 1.377z"/><path fill="#aeaeae" d="m1.8609 10.333 1.3141 1.3769-0.18773 0.19669-1.3141-1.3769z"/><path fill="#aeaeae" d="m0.52916 11.696 1.3141-1.3769 0.18773 0.19669-1.3141 1.3769z"/></g></svg>