<svg xmlns="http://www.w3.org/2000/svg" id="bitmap:68-32" width="68" height="192" version="1.1" viewBox="0 0 17.991 50.8"><metadata/><g transform="translate(-40.717,-1.1913)"><g fill="#fff" stroke-width=".161"><g stroke="#3096fa" stroke-width=".178" transform="matrix(3.3019 0 0 3.261 -90.816 12.806) matrix(.95025 0 0 .86559 1.1022 -4.7052)"><rect width="5.556" height="5.821" x="40.849" y="7.409" stroke-width=".178" rx=".169" ry=".187"/></g></g><rect width="17.462" height="16.404" x="40.981" y="35.323" fill="#fff" stroke="#2979ff" stroke-width=".529" rx=".529" ry=".529"/><g stroke-width=".07"><path fill="#aeaeae" d="m52.074 14.251-3.9653-3.9961q-0.35351 0.12296-0.70701 0.19981-0.3535 0.07686-0.7224 0.07686-1.4908 0-2.536-1.0375-1.0451-1.0375-1.0451-2.5284 0-0.47644 0.12296-0.92989 0.12294-0.45343 0.35351-0.85303l2.2287 2.2288 1.414-1.3219-2.2901-2.2902q0.39963-0.23056 0.84533-0.3612 0.44574-0.13065 0.90681-0.13065 1.5216 0 2.5899 1.0682 1.0682 1.0682 1.0682 2.59 0 0.36888-0.07686 0.7224-0.07686 0.35352-0.19978 0.70702l3.9807 3.9653q0.16903 0.16907 0.16903 0.40729 0 0.23825-0.16903 0.40729l-1.1681 1.0759q-0.16908 0.16907-0.39963 0.16907-0.23056 0-0.39963-0.16907zm0.43036-0.87607 0.61479-0.61477-4.196-4.1962q0.24593-0.32276 0.36888-0.76086 0.12298-0.43806 0.12298-0.83764 0-1.1527-0.853-1.9519-0.853-0.79922-1.9443-0.81462l1.5524 1.5831q0.13833 0.13833 0.13833 0.33811 0 0.19981-0.13833 0.33811l-2.0287 1.906q-0.13833 0.13833-0.33812 0.13833-0.19981 0-0.33814-0.13833l-1.4908-1.4755q0.04612 1.1835 0.83763 1.9519 0.79154 0.76849 1.8675 0.76849 0.38428 0 0.81459-0.12296 0.43036-0.12296 0.75317-0.36888z" transform="translate(.26454 .52937)"/><path fill="#3096fa" d="m52.074 31.185-3.9653-3.9962q-0.35351 0.12295-0.70701 0.1998-0.3535 0.07686-0.7224 0.07686-1.4908 0-2.536-1.0375-1.0451-1.0375-1.0451-2.5284 0-0.47644 0.12295-0.92988 0.12295-0.45342 0.35353-0.85303l2.2287 2.2287 1.414-1.3219-2.2901-2.2901q0.39963-0.23057 0.84533-0.3612 0.44575-0.13063 0.90678-0.13063 1.5216 0 2.5899 1.0682 1.0683 1.0682 1.0682 2.5899 0 0.36888-0.07686 0.72241-0.07686 0.35352-0.1998 0.70702l3.9807 3.9653q0.16907 0.16908 0.16907 0.4073 0 0.23825-0.16907 0.4073l-1.1681 1.0759q-0.16911 0.16912-0.39963 0.16912-0.23056 0-0.39963-0.16912zm0.43036-0.87609 0.61478-0.61478-4.196-4.1958q0.2459-0.32275 0.36889-0.76081 0.12295-0.43806 0.12295-0.83764 0-1.1527-0.85301-1.9519-0.85302-0.79923-1.9443-0.81455l1.5524 1.5831q0.13836 0.13836 0.13836 0.33811 0 0.1998-0.13836 0.33812l-2.0288 1.906q-0.13833 0.13836-0.33812 0.13836-0.1998 0-0.33812-0.13836l-1.4908-1.4755q0.04609 1.1835 0.83765 1.9519 0.79154 0.7685 1.8675 0.7685 0.38428 0 0.81459-0.12295 0.43036-0.12295 0.75313-0.36888z" transform="translate(.26454 .52937)"/><path fill="#2979ff" d="m52.074 48.118-3.9653-3.9962q-0.35351 0.12295-0.70701 0.1998-0.3535 0.07686-0.7224 0.07686-1.4908 0-2.536-1.0375-1.0451-1.0375-1.0451-2.5284 0-0.47644 0.12296-0.92989 0.12296-0.45345 0.35351-0.85303l2.2287 2.2287 1.414-1.3219-2.2901-2.2901q0.39963-0.23057 0.84533-0.3612 0.44574-0.13063 0.90682-0.13063 1.5216 0 2.5899 1.0682 1.0683 1.0682 1.0682 2.5899 0 0.36888-0.07686 0.72241-0.07686 0.35353-0.1998 0.70702l3.9807 3.9653q0.16907 0.16911 0.16907 0.4073 0 0.23825-0.16907 0.4073l-1.1681 1.0759q-0.16911 0.16911-0.39963 0.16911-0.23056 0-0.39963-0.16911zm0.43036-0.87609 0.61478-0.61478-4.196-4.1958q0.2459-0.32275 0.36889-0.76078 0.12296-0.43806 0.12296-0.83764 0-1.1527-0.85301-1.9519-0.85302-0.79923-1.9443-0.81457l1.5524 1.5831q0.13831 0.13836 0.13831 0.33813 0 0.1998-0.13831 0.33813l-2.0288 1.906q-0.13834 0.13832-0.33812 0.13832-0.1998 0-0.33812-0.13832l-1.4908-1.4756q0.04609 1.1835 0.83763 1.9519 0.79154 0.7685 1.8675 0.7685 0.38428 0 0.81458-0.12295 0.43036-0.12295 0.75313-0.36888z" transform="translate(.26454 .52937)"/></g></g></svg>