<svg xmlns="http://www.w3.org/2000/svg" id="bitmap:52-32" width="52" height="260" version="1.1" viewBox="0 0 13.758 68.793"><metadata/><g stroke-width=".088"><path fill="#3096fa" d="m4.8558 2.1167-0.36659 0.36968 1.1908 1.2034h-4.2041v0.52438h4.2041l-1.1933 1.2034 0.3692 0.36968 1.82-1.8353z" transform="matrix(1.73 0 0 1.73 -.17208 .042322)"/><path fill="#3096fa" d="m4.8558 10.07-0.36659 0.36968 1.1908 1.2034h-4.2041v0.52438h4.2041l-1.1933 1.2034 0.3692 0.36968 1.82-1.8353z" transform="matrix(1.73 0 0 1.73 -.17208 .042322)"/><path fill="#2979ff" d="m4.8558 18.022-0.36659 0.36968 1.1908 1.2034h-4.2041v0.52438h4.2041l-1.1933 1.2034 0.3692 0.36968 1.82-1.8353z" transform="matrix(1.73 0 0 1.73 -.17208 .042322)"/><path fill="#aeaeae" d="m4.8558 25.975-0.36659 0.36968 1.1908 1.2034h-4.2041v0.52438h4.2041l-1.1933 1.2034 0.3692 0.36968 1.82-1.8353z" transform="matrix(1.73 0 0 1.73 -.17208 .042322)"/><path fill="#3096fa" d="m4.8558 33.928-0.36659 0.36968 1.1908 1.2034h-4.2041v0.52438h4.2041l-1.1933 1.2034 0.3692 0.36968 1.82-1.8353z" transform="matrix(1.73 0 0 1.73 -.17208 .042322)"/></g></svg>