<svg xmlns="http://www.w3.org/2000/svg" id="bitmap:6-32" width="6" height="28" version="1.1" viewBox="0 0 1.587 7.408"><metadata/><path stroke-width=".265" d="m0.96001 1.0148-0.68844-0.65643 0.098347-0.093776 0.68844 0.65643z"/><path stroke-width=".265" d="m1.0514 0.93106-0.68844 0.65643-0.098347-0.093776 0.68844-0.65643z"/><g stroke-width=".306"><path fill="#3096fa" d="m1.1938 2.8669-0.91988-0.65644 0.13141-0.093778 0.91988 0.65644z" transform="matrix(.7484 0 0 1 .066577 0)"/><path fill="#3096fa" d="m1.3159 2.7831-0.91988 0.65644-0.13141-0.093778 0.91988-0.65644z" transform="matrix(.7484 0 0 1 .066577 0)"/><path fill="#fff" d="m1.1938 4.719-0.91988-0.65644 0.13141-0.093778 0.91988 0.65644z" transform="matrix(.7484 0 0 1 .066577 0)"/><path fill="#fff" d="m1.3159 4.6352-0.91988 0.65644-0.13141-0.093778 0.91988-0.65644z" transform="matrix(.7484 0 0 1 .066577 0)"/><path fill="#aeaeae" d="m1.1938 6.571-0.91988-0.65644 0.13141-0.093778 0.91988 0.65644z" transform="matrix(.7484 0 0 1 .066577 0)"/><path fill="#aeaeae" d="m1.3159 6.4873-0.91988 0.65644-0.13141-0.093778 0.91988-0.65644z" transform="matrix(.7484 0 0 1 .066577 0)"/></g></svg>