<svg xmlns="http://www.w3.org/2000/svg" id="bitmap:19-32" width="19" height="152" version="1.1" viewBox="0 0 5.027 40.217"><g fill="none"><g stroke-width=".265"><rect width="2.381" height="2.381" x=".926" y="1.72" stroke="#aeaeae"/><rect width="2.381" height="2.381" x=".926" y="6.747" stroke="#3096fa"/><rect width="2.381" height="2.381" x=".926" y="11.774" stroke="#2979ff"/></g><rect width="2.646" height=".265" x="-4.233" y=".794" fill="#aeaeae" stroke-width=".239" transform="scale(-1,1)"/><rect width=".265" height="2.381" x="-4.233" y="1.058" fill="#aeaeae" stroke-width=".239" transform="scale(-1,1)"/><rect width="2.381" height="2.381" x=".926" y="16.801" stroke="#aeaeae" stroke-width=".265"/><g stroke-width=".239"><rect width="2.646" height=".265" x="-4.233" y="15.875" fill="#aeaeae" transform="scale(-1,1)"/><rect width=".265" height="2.381" x="-4.233" y="16.14" fill="#aeaeae" transform="scale(-1,1)"/><rect width="2.646" height=".265" x="-4.233" y="5.821" fill="#3096fa" transform="scale(-1,1)"/><rect width=".265" height="2.381" x="-4.233" y="6.085" fill="#3096fa" transform="scale(-1,1)"/><rect width="2.646" height=".265" x="-4.233" y="10.848" fill="#2979ff" transform="scale(-1,1)"/><rect width=".265" height="2.381" x="-4.233" y="11.113" fill="#2979ff" transform="scale(-1,1)"/></g><g stroke-width=".265" transform="translate(4.1044e-6 20.109)"><rect width="2.381" height="2.381" x=".926" y="1.72" stroke="#aeaeae"/><rect width="2.381" height="2.381" x=".926" y="6.747" stroke="#3096fa"/><rect width="2.381" height="2.381" x=".926" y="11.774" stroke="#2979ff"/></g><rect width="2.646" height=".265" x="-4.233" y="20.902" fill="#aeaeae" stroke-width=".239" transform="scale(-1,1)"/><rect width=".265" height="2.381" x="-4.233" y="21.167" fill="#aeaeae" stroke-width=".239" transform="scale(-1,1)"/><rect width="2.381" height="2.381" x=".926" y="36.91" stroke="#aeaeae" stroke-width=".265"/><g stroke-width=".239"><rect width="2.646" height=".265" x="-4.233" y="35.984" fill="#aeaeae" transform="scale(-1,1)"/><rect width=".265" height="2.381" x="-4.233" y="36.248" fill="#aeaeae" transform="scale(-1,1)"/><g transform="translate(4.1044e-6 20.109)"><rect width="2.646" height=".265" x="-4.233" y="5.821" fill="#3096fa" transform="scale(-1,1)"/><rect width=".265" height="2.381" x="-4.233" y="6.085" fill="#3096fa" transform="scale(-1,1)"/><rect width="2.646" height=".265" x="-4.233" y="10.848" fill="#2979ff" transform="scale(-1,1)"/><rect width=".265" height="2.381" x="-4.233" y="11.113" fill="#2979ff" transform="scale(-1,1)"/></g></g></g></svg>