<svg xmlns="http://www.w3.org/2000/svg" id="bitmap:48-32" width="48" height="384" version="1.1" viewBox="0 0 12.7 101.6"><metadata/><g fill="#bdbdbd" stroke-width="0" transform="matrix(1.5 0 0 1.5 -.1323 -.52924)"><rect width="1.058" height="1.058" x="6.438" y="5.115"/><rect width="1.058" height="1.058" x="6.438" y="5.115"/><rect width="1.058" height="1.058" x="4.851" y="6.703"/><rect width="1.058" height="1.058" x="6.438" y="3.528"/><rect width="1.058" height="1.058" x="6.438" y="6.703"/><rect width="1.058" height="1.058" x="4.851" y="5.115"/><rect width="1.058" height="1.058" x="3.263" y="6.703"/><rect width="1.058" height="1.058" x="-2.205" y="13.582" transform="scale(-1,1)"/><rect width="1.058" height="1.058" x="-2.205" y="13.582" transform="scale(-1,1)"/><rect width="1.058" height="1.058" x="-3.792" y="15.169" transform="scale(-1,1)"/><rect width="1.058" height="1.058" x="-2.205" y="11.994" transform="scale(-1,1)"/><rect width="1.058" height="1.058" x="-2.205" y="15.169" transform="scale(-1,1)"/><rect width="1.058" height="1.058" x="-3.792" y="13.582" transform="scale(-1,1)"/><rect width="1.058" height="1.058" x="-5.38" y="15.169" transform="scale(-1,1)"/><rect width="1.058" height="1.058" x="6.438" y="-20.99" transform="scale(1,-1)"/><rect width="1.058" height="1.058" x="6.438" y="-20.99" transform="scale(1,-1)"/><rect width="1.058" height="1.058" x="4.851" y="-19.403" transform="scale(1,-1)"/><rect width="1.058" height="1.058" x="6.438" y="-22.578" transform="scale(1,-1)"/><rect width="1.058" height="1.058" x="6.438" y="-19.403" transform="scale(1,-1)"/><rect width="1.058" height="1.058" x="4.851" y="-20.99" transform="scale(1,-1)"/><rect width="1.058" height="1.058" x="3.263" y="-19.403" transform="scale(1,-1)"/><rect width="1.058" height="1.058" x="-2.205" y="-29.457" transform="scale(-1)"/><rect width="1.058" height="1.058" x="-2.205" y="-29.457" transform="scale(-1)"/><rect width="1.058" height="1.058" x="-3.792" y="-27.869" transform="scale(-1)"/><rect width="1.058" height="1.058" x="-2.205" y="-31.044" transform="scale(-1)"/><rect width="1.058" height="1.058" x="-2.205" y="-27.869" transform="scale(-1)"/><rect width="1.058" height="1.058" x="-3.792" y="-29.457" transform="scale(-1)"/><rect width="1.058" height="1.058" x="-5.38" y="-27.869" transform="scale(-1)"/><rect width="1.058" height="1.058" x="6.438" y="38.982"/><rect width="1.058" height="1.058" x="6.438" y="38.982"/><rect width="1.058" height="1.058" x="4.851" y="40.569"/><rect width="1.058" height="1.058" x="6.438" y="37.394"/><rect width="1.058" height="1.058" x="6.438" y="40.569"/><rect width="1.058" height="1.058" x="4.851" y="38.982"/><rect width="1.058" height="1.058" x="3.263" y="40.569"/><rect width="1.058" height="1.058" x="-2.205" y="47.449" transform="scale(-1,1)"/><rect width="1.058" height="1.058" x="-2.205" y="47.449" transform="scale(-1,1)"/><rect width="1.058" height="1.058" x="-3.792" y="49.036" transform="scale(-1,1)"/><rect width="1.058" height="1.058" x="-2.205" y="45.861" transform="scale(-1,1)"/><rect width="1.058" height="1.058" x="-2.205" y="49.036" transform="scale(-1,1)"/><rect width="1.058" height="1.058" x="-3.792" y="47.449" transform="scale(-1,1)"/><rect width="1.058" height="1.058" x="-5.38" y="49.036" transform="scale(-1,1)"/><rect width="1.058" height="1.058" x="6.438" y="-54.857" transform="scale(1,-1)"/><rect width="1.058" height="1.058" x="6.438" y="-54.857" transform="scale(1,-1)"/><rect width="1.058" height="1.058" x="4.851" y="-53.269" transform="scale(1,-1)"/><rect width="1.058" height="1.058" x="6.438" y="-56.444" transform="scale(1,-1)"/><rect width="1.058" height="1.058" x="6.438" y="-53.269" transform="scale(1,-1)"/><rect width="1.058" height="1.058" x="4.851" y="-54.857" transform="scale(1,-1)"/><rect width="1.058" height="1.058" x="3.263" y="-53.269" transform="scale(1,-1)"/><rect width="1.058" height="1.058" x="-2.205" y="-63.324" transform="scale(-1)"/><rect width="1.058" height="1.058" x="-2.205" y="-63.324" transform="scale(-1)"/><rect width="1.058" height="1.058" x="-3.792" y="-61.736" transform="scale(-1)"/><rect width="1.058" height="1.058" x="-2.205" y="-64.911" transform="scale(-1)"/><rect width="1.058" height="1.058" x="-2.205" y="-61.736" transform="scale(-1)"/><rect width="1.058" height="1.058" x="-3.792" y="-63.324" transform="scale(-1)"/><rect width="1.058" height="1.058" x="-5.38" y="-61.736" transform="scale(-1)"/></g></svg>