<svg xmlns="http://www.w3.org/2000/svg" id="bitmap:40-32" width="40" height="320" version="1.1" viewBox="0 0 10.584 84.664"><metadata/><g fill="#bdbdbd" stroke-width="0" transform="matrix(2 0 0 2 -1.8779e-5 -.52927)"><rect width=".661" height=".661" x="3.969" y="4.233"/><rect width=".661" height=".661" x="3.043" y="4.233"/><rect width=".661" height=".661" x="2.117" y="4.233"/><rect width=".661" height=".661" x="3.043" y="3.307"/><rect width=".661" height=".661" x="3.969" y="3.307"/><rect width=".661" height=".661" x="3.969" y="2.381"/><rect width=".661" height=".661" x="-1.323" y="9.525" transform="scale(-1,1)"/><rect width=".661" height=".661" x="-2.249" y="9.525" transform="scale(-1,1)"/><rect width=".661" height=".661" x="-3.175" y="9.525" transform="scale(-1,1)"/><rect width=".661" height=".661" x="-2.249" y="8.599" transform="scale(-1,1)"/><rect width=".661" height=".661" x="-1.323" y="8.599" transform="scale(-1,1)"/><rect width=".661" height=".661" x="-1.323" y="7.673" transform="scale(-1,1)"/><rect width=".661" height=".661" x="3.969" y="-12.171" transform="scale(1,-1)"/><rect width=".661" height=".661" x="3.043" y="-12.171" transform="scale(1,-1)"/><rect width=".661" height=".661" x="2.117" y="-12.171" transform="scale(1,-1)"/><rect width=".661" height=".661" x="3.043" y="-13.097" transform="scale(1,-1)"/><rect width=".661" height=".661" x="3.969" y="-13.097" transform="scale(1,-1)"/><rect width=".661" height=".661" x="3.969" y="-14.023" transform="scale(1,-1)"/><rect width=".661" height=".661" x="-1.323" y="-17.462" transform="scale(-1)"/><rect width=".661" height=".661" x="-2.249" y="-17.462" transform="scale(-1)"/><rect width=".661" height=".661" x="-3.175" y="-17.462" transform="scale(-1)"/><rect width=".661" height=".661" x="-2.249" y="-18.388" transform="scale(-1)"/><rect width=".661" height=".661" x="-1.323" y="-18.388" transform="scale(-1)"/><rect width=".661" height=".661" x="-1.323" y="-19.315" transform="scale(-1)"/><rect width=".661" height=".661" x="3.969" y="25.4"/><rect width=".661" height=".661" x="3.043" y="25.4"/><rect width=".661" height=".661" x="2.117" y="25.4"/><rect width=".661" height=".661" x="3.043" y="24.474"/><rect width=".661" height=".661" x="3.969" y="24.474"/><rect width=".661" height=".661" x="3.969" y="23.548"/><rect width=".661" height=".661" x="-1.323" y="30.692" transform="scale(-1,1)"/><rect width=".661" height=".661" x="-2.249" y="30.692" transform="scale(-1,1)"/><rect width=".661" height=".661" x="-3.175" y="30.692" transform="scale(-1,1)"/><rect width=".661" height=".661" x="-2.249" y="29.766" transform="scale(-1,1)"/><rect width=".661" height=".661" x="-1.323" y="29.766" transform="scale(-1,1)"/><rect width=".661" height=".661" x="-1.323" y="28.84" transform="scale(-1,1)"/><rect width=".661" height=".661" x="3.969" y="-33.337" transform="scale(1,-1)"/><rect width=".661" height=".661" x="3.043" y="-33.337" transform="scale(1,-1)"/><rect width=".661" height=".661" x="2.117" y="-33.337" transform="scale(1,-1)"/><rect width=".661" height=".661" x="3.043" y="-34.263" transform="scale(1,-1)"/><rect width=".661" height=".661" x="3.969" y="-34.264" transform="scale(1,-1)"/><rect width=".661" height=".661" x="3.969" y="-35.19" transform="scale(1,-1)"/><rect width=".661" height=".661" x="-1.323" y="-38.629" transform="scale(-1)"/><rect width=".661" height=".661" x="-2.249" y="-38.629" transform="scale(-1)"/><rect width=".661" height=".661" x="-3.175" y="-38.629" transform="scale(-1)"/><rect width=".661" height=".661" x="-2.249" y="-39.555" transform="scale(-1)"/><rect width=".661" height=".661" x="-1.323" y="-39.555" transform="scale(-1)"/><rect width=".661" height=".661" x="-1.323" y="-40.481" transform="scale(-1)"/></g></svg>