<svg xmlns="http://www.w3.org/2000/svg" id="bitmap:11-32" width="11" height="24" version="1.1" viewBox="0 0 2.91 6.35"><metadata/><g stroke-width=".265"><path fill="none" d="m0-1.8521h6.35v6.35h-6.35z"/><path fill="none" d="m0 3.7042h6.35v6.35h-6.35z"/><path stroke-width=".265" d="m0 0.2106 1.4478 1.3769 0.20682-0.1967-1.4478-1.3769z"/><path stroke-width=".265" d="m2.7036-3.18e-6 -1.4478 1.3769 0.20682 0.1967 1.4478-1.3769z"/></g><g><g stroke-width=".186"><path fill="#3096fa" d="m-0.0404 1.7982 0.92136 1.3768 0.13162-0.19668-0.92136-1.3768z" transform="matrix(1.5714 0 0 1 .063486 0)"/><path fill="#3096fa" d="m1.68 1.5875-0.92136 1.3768 0.13162 0.19668 0.92136-1.3768z" transform="matrix(1.5714 0 0 1 .063486 0)"/><path fill="#fff" d="m-0.0404 3.3851 0.92136 1.3774 0.13162-0.19678-0.92136-1.3774z" transform="matrix(1.5714 0 0 1 .063486 0)"/><path fill="#fff" d="m1.68 3.175-0.92136 1.3774 0.13162 0.19678 0.92136-1.3774z" transform="matrix(1.5714 0 0 1 .063486 0)"/></g><path fill="#aeaeae" stroke-width=".746" d="m-0.0404 4.9726 0.92136 1.3774 0.13162-0.19678-0.92136-1.3774z" transform="matrix(1.5714 0 0 1 .063486 0)"/><path fill="#aeaeae" stroke-width=".746" d="m1.68 4.7624-0.92136 1.3774 0.13162 0.19678 0.92136-1.3774z" transform="matrix(1.5714 0 0 1 .063486 0)"/></g></svg>