<svg xmlns="http://www.w3.org/2000/svg" id="bitmap:9-32" width="9" height="44" version="1.1" viewBox="0 0 2.381 11.642"><metadata/><path stroke-width=".265" d="m1.4236 1.615-1.1474-1.1816 0.16391-0.1688 1.1474 1.1816z"/><path stroke-width=".265" d="m1.5758 1.4642-1.1474 1.1816-0.16391-0.1688 1.1474-1.1816z"/><g stroke-width=".23"><path fill="#3096fa" d="m1.426 4.5254-1.1498-1.1816 0.16426-0.16881 1.1498 1.1816z" transform="matrix(.99786 0 0 1 .00056664 0)"/><path fill="#3096fa" d="m1.5786 4.3746-1.1498 1.1816-0.16426-0.16881 1.1498-1.1816z" transform="matrix(.99786 0 0 1 .00056664 0)"/><path fill="#fff" d="m1.426 7.4358-1.1498-1.1816 0.16426-0.16881 1.1498 1.1816z" transform="matrix(.99786 0 0 1 .00056664 0)"/><path fill="#fff" d="m1.5786 7.285-1.1498 1.1816-0.16426-0.16881 1.1498-1.1816z" transform="matrix(.99786 0 0 1 .00056664 0)"/><path fill="#aeaeae" d="m1.426 10.346-1.1498-1.1815 0.16426-0.16879 1.1498 1.1815z" transform="matrix(.99786 0 0 1 .00056664 0)"/><path fill="#aeaeae" d="m1.5786 10.196-1.1498 1.1815-0.16426-0.16879 1.1498-1.1815z" transform="matrix(.99786 0 0 1 .00056664 0)"/></g></svg>