<svg xmlns="http://www.w3.org/2000/svg" id="bitmap:7-32" width="7" height="24" version="1.1" viewBox="0 0 1.852 6.35"><metadata/><g stroke-width=".265"><path d="m0.93047 1.0513 0.65705-0.68844-0.093866-0.098348-0.65705 0.68844z"/><path d="m0.26459 0.36988 0.65705 0.68844 0.093866-0.098348-0.65705-0.68844z"/><path fill="#3096fa" d="m0.93047 2.6388 0.65705-0.68842-0.093866-0.098345-0.65705 0.68842z"/><path fill="#3096fa" d="m0.26459 1.9573 0.65705 0.68842 0.093866-0.098345-0.65705-0.68842z"/><path fill="#fff" d="m0.93047 4.2263 0.65705-0.68842-0.093866-0.098345-0.65705 0.68842z"/><path fill="#fff" d="m0.26459 3.5448 0.65705 0.68842 0.093866-0.098345-0.65705-0.68842z"/><path fill="#aeaeae" d="m0.93047 5.8138 0.65705-0.68842-0.093866-0.098345-0.65705 0.68842z"/><path fill="#aeaeae" d="m0.26459 5.1323 0.65705 0.68842 0.093866-0.098345-0.65705-0.68842z"/></g></svg>