<svg xmlns="http://www.w3.org/2000/svg" id="bitmap:13-32" width="13" height="104" version="1.1" viewBox="0 0 13 104"><metadata/><g fill="none"><g fill="#fff"><ellipse cx="6.5" cy="6.5" stroke="#aeaeae" rx="6" ry="6"/><ellipse cx="6.5" cy="19.5" stroke="#3096fa" rx="6" ry="6"/><ellipse cx="6.5" cy="32.5" stroke="#2979ff" rx="6" ry="6"/></g><ellipse cx="6.5" cy="45.5" stroke="#aeaeae" rx="6" ry="6"/><g fill="#fff"><ellipse cx="6.5" cy="58.5" stroke="#aeaeae" rx="6" ry="6"/><ellipse cx="6.5" cy="71.5" stroke="#3096fa" rx="6" ry="6"/><ellipse cx="6.5" cy="84.5" stroke="#2979ff" rx="6" ry="6"/></g><ellipse cx="6.5" cy="97.5" stroke="#aeaeae" rx="6" ry="6"/></g><path d="m10 58.5a3.5 3.5 0 0 1-3.5 3.5 3.5 3.5 0 0 1-3.5-3.5 3.5 3.5 0 0 1 3.5-3.5 3.5 3.5 0 0 1 3.5 3.5z"/><path fill="#3096fa" d="m10 71.5a3.5 3.5 0 0 1-3.5 3.5 3.5 3.5 0 0 1-3.5-3.5 3.5 3.5 0 0 1 3.5-3.5 3.5 3.5 0 0 1 3.5 3.5z"/><path fill="#2979ff" d="m10 84.5a3.5 3.5 0 0 1-3.5 3.5 3.5 3.5 0 0 1-3.5-3.5 3.5 3.5 0 0 1 3.5-3.5 3.5 3.5 0 0 1 3.5 3.5z"/><path fill="#aeaeae" d="m10 97.5a3.5 3.5 0 0 1-3.5 3.5 3.5 3.5 0 0 1-3.5-3.5 3.5 3.5 0 0 1 3.5-3.5 3.5 3.5 0 0 1 3.5 3.5z"/></svg>