<svg xmlns="http://www.w3.org/2000/svg" id="bitmap:13-32" width="13" height="33" version="1.1" viewBox="0 0 3.439 8.732"><metadata/><g stroke-width=".265"><g fill="#aeaeae"><path d="m3.3084 1.9942-0.91792-1.0504 0.13113-0.15006 0.91792 1.0504z"/><path d="m3.4303 1.8602-0.91792 1.0504-0.13113-0.15006 0.91792-1.0504z"/><path d="m1.9854 1.9942-0.91792-1.0504 0.13113-0.15006 0.91792 1.0504z"/><path d="m2.1073 1.8602-0.91792 1.0504-0.13113-0.15006 0.91792-1.0504z"/></g><g fill="#3096fa"><path d="m2.6387 3.7042-0.91792-1.0503 0.13113-0.15005 0.91792 1.0503z" transform="translate(.66966 1.2004)"/><path d="m2.7606 3.5702-0.91792 1.0503-0.13113-0.15005 0.91792-1.0503z" transform="translate(.66966 1.2004)"/><path d="m1.3158 3.7042-0.91792-1.0503 0.13113-0.15005 0.91792 1.0503z" transform="translate(.66966 1.2004)"/><path d="m1.4377 3.5702-0.91792 1.0503-0.13113-0.15005 0.91792-1.0503z" transform="translate(.66966 1.2004)"/></g><g fill="#2979ff"><path d="m3.3084 7.8152-0.91792-1.0503 0.13113-0.15005 0.91792 1.0503z"/><path d="m3.4303 7.6813-0.91792 1.0503-0.13113-0.15005 0.91792-1.0503z"/><path d="m1.9854 7.8152-0.91792-1.0503 0.13113-0.15005 0.91792 1.0503z"/><path d="m2.1073 7.6813-0.91792 1.0503-0.13113-0.15005 0.91792-1.0503z"/></g></g></svg>