<svg xmlns="http://www.w3.org/2000/svg" id="bitmap:20-24" width="20" height="400" fill="#000" version="1.1" viewBox="0 0 20 400"><metadata/><rect width="20" height="400" fill="#fff" fill-opacity=".984"/><g fill="none" stroke-width="1.053" transform="matrix(.95 0 0 .9499 .051376 .05137)"><path d="m2.9e-6 0h36.923v36.965h-36.923z"/><rect width="20" height="20.002" x=".472" y=".472" stroke="#aeaeae" stroke-width="1.053" rx="2.105" ry="2.106"/><rect width="20" height="20.002" x=".472" y="21.527" stroke="#3096fa" stroke-width="1.053" rx="2.105" ry="2.106"/><path d="m0.76923 39.275h36.923v36.965h-36.923z"/><rect width="20" height="20.002" x=".472" y="42.582" stroke="#2979ff" stroke-width="1.053" rx="2.105" ry="2.106"/><rect width="20" height="20.002" x=".472" y="63.637" stroke="#aeaeae" stroke-width="1.053" rx="2.105" ry="2.106"/><path d="m1.2564e-5 336.88h36.923v36.965h-36.923z"/><rect width="20" height="20.002" x=".472" y="337.35" stroke="#aeaeae" stroke-width="1.053" rx="2.105" ry="2.106"/><rect width="20" height="20.002" x=".472" y="358.4" stroke="#3096fa" stroke-width="1.053" rx="2.105" ry="2.106"/><path d="m0.76924 376.15h36.923v36.965h-36.923z"/><g stroke-width="1.053"><rect width="20" height="20.002" x=".472" y="379.46" stroke="#2979ff" rx="2.105" ry="2.106"/><rect width="20" height="20.002" x=".472" y="400.51" stroke="#aeaeae" rx="2.105" ry="2.106"/><rect width="20" height="20.002" x=".472" y="253.13" stroke="#aeaeae" rx="2.105" ry="2.106"/><rect width="20" height="20.002" x=".472" y="274.19" stroke="#3096fa" rx="2.105" ry="2.106"/><rect width="20" height="20.002" x=".472" y="295.24" stroke="#2979ff" rx="2.105" ry="2.106"/><rect width="20" height="20.002" x=".472" y="316.29" stroke="#aeaeae" rx="2.105" ry="2.106"/></g><path d="m3.5e-6 80.09h36.923v36.965h-36.923z"/><path d="m0.76923 119.36h36.923v36.965h-36.923z"/><path d="m0 160.18h36.923v36.965h-36.923z"/><path d="m0.76923 199.45h36.923v36.965h-36.923z"/><path d="m4.1802e-6 80.009h36.923v36.965h-36.923z"/><rect width="20" height="20.002" x=".472" y="84.692" stroke="#aeaeae" stroke-width="1.053" rx="2.105" ry="2.106"/><rect width="20" height="20.002" x=".472" y="105.75" stroke="#3096fa" stroke-width="1.053" rx="2.105" ry="2.106"/><path d="m0.76923 119.28h36.923v36.965h-36.923z"/><rect width="20" height="20.002" x=".472" y="126.8" stroke="#2979ff" stroke-width="1.053" rx="2.105" ry="2.106"/><rect width="20" height="20.002" x=".472" y="147.86" stroke="#aeaeae" stroke-width="1.053" rx="2.105" ry="2.106"/><path d="m3.8669e-6 160.02h36.923v36.965h-36.923z"/><rect width="20" height="20.002" x=".472" y="168.91" stroke="#aeaeae" stroke-width="1.053" rx="2.105" ry="2.106"/><rect width="20" height="20.002" x=".472" y="189.97" stroke="#3096fa" stroke-width="1.053" rx="2.105" ry="2.106"/><path d="m0.76923 199.29h36.923v36.965h-36.923z"/><rect width="20" height="20.002" x=".472" y="211.02" stroke="#2979ff" stroke-width="1.053" rx="2.105" ry="2.106"/><rect width="20" height="20.002" x=".472" y="232.08" stroke="#aeaeae" stroke-width="1.053" rx="2.105" ry="2.106"/><g stroke-width="3.979"><path fill="#000" d="m16.788 342.31-1.2721-1.2723-5.0436 5.0441-5.0436-5.0441-1.2722 1.2723 5.0436 5.0441-5.0436 5.0441 1.2722 1.2723 5.0436-5.0441 5.0436 5.0441 1.2721-1.2723-5.0436-5.0441z"/><path fill="#3096fa" d="m16.788 363.36-1.2721-1.2723-5.0436 5.0441-5.0436-5.0441-1.2722 1.2723 5.0436 5.0441-5.0436 5.0441 1.2722 1.2723 5.0436-5.0441 5.0436 5.0441 1.2721-1.2723-5.0436-5.0441z"/><path fill="#2979ff" d="m16.788 384.42-1.2721-1.2723-5.0436 5.0441-5.0436-5.0441-1.2722 1.2723 5.0436 5.0441-5.0436 5.0441 1.2722 1.2723 5.0436-5.0441 5.0436 5.0441 1.2721-1.2723-5.0436-5.0441z"/><path fill="#aeaeae" d="m16.788 405.47-1.2721-1.2723-5.0436 5.0441-5.0436-5.0441-1.2722 1.2723 5.0436 5.0441-5.0436 5.0441 1.2722 1.2723 5.0436-5.0441 5.0436 5.0441 1.2721-1.2723-5.0436-5.0441z"/></g></g><path stroke-width="1" d="m7.4546 92.91-3.3409-3.1343-1.1136 1.0447 4.4545 4.1791 9.5455-8.9553-1.1136-1.0447z"/><g stroke-width=".468"><path fill="#3096fa" d="m4.4744 75.029-2.2858-2.1423-0.76193 0.71411 3.0476 2.8565 6.5309-6.121-0.76193-0.71411z" transform="matrix(1.4616 0 0 1.463 .91489 3.1433)"/><path fill="#aeaeae" d="m4.4744 102.37-2.2858-2.1423-0.76193 0.71411 3.0476 2.8565 6.5309-6.121-0.76193-0.71411z" transform="matrix(1.4616 0 0 1.463 .91489 3.1433)"/><path fill="#2979ff" d="m4.4744 88.699-2.2858-2.1423-0.76193 0.71412 3.0476 2.8565 6.5309-6.121-0.76193-0.71411z" transform="matrix(1.4616 0 0 1.463 .91489 3.1433)"/></g><path stroke-width="1" d="m7.4546 252.91-3.3409-3.1343-1.1136 1.0447 4.4545 4.1791 9.5455-8.9553-1.1136-1.0447z"/><g stroke-width=".468"><path fill="#3096fa" d="m4.4744 75.029-2.2858-2.1423-0.76193 0.71411 3.0476 2.8565 6.5309-6.121-0.76193-0.71411z" transform="matrix(1.4616 0 0 1.463 .91489 163.14)"/><path fill="#aeaeae" d="m4.4744 102.37-2.2858-2.1423-0.76193 0.71411 3.0476 2.8565 6.5309-6.121-0.76193-0.71411z" transform="matrix(1.4616 0 0 1.463 .91489 163.14)"/><path fill="#2979ff" d="m4.4744 88.699-2.2858-2.1423-0.76193 0.71412 3.0476 2.8565 6.5309-6.121-0.76193-0.71411z" transform="matrix(1.4616 0 0 1.463 .91489 163.14)"/></g><path d="m3 169h14v2h-14z"/><g stroke-width=".468"><path fill="#3096fa" d="m2.0175 128.76h9.5785v1.367h-9.5785z" transform="matrix(1.4616 0 0 1.463 .051167 .62675)"/><path fill="#2979ff" d="m2.0175 142.43h9.5785v1.3671h-9.5785z" transform="matrix(1.4616 0 0 1.463 .051167 .62675)"/><path fill="#aeaeae" d="m2.0175 156.1h9.5785v1.3671h-9.5785z" transform="matrix(1.4616 0 0 1.463 .051167 .62675)"/></g></svg>