<svg xmlns="http://www.w3.org/2000/svg" id="bitmap:32-24" width="32" height="640" fill="#000" version="1.1" viewBox="0 0 32 640"><metadata/><rect width="32" height="640" fill="#fff" fill-opacity=".984"/><g fill="none" stroke-width="2"><rect width="30" height="30" x="1" y="1" stroke="#aeaeae" rx="2" ry="2"/><rect width="30" height="30" x="1" y="97" stroke="#aeaeae" rx="2" ry="2"/><rect width="30" height="30" x="1" y="65" stroke="#2979ff" rx="2" ry="2"/><rect width="30" height="30" x="1" y="33" stroke="#3096fa" rx="2" ry="2"/><rect width="30" height="30" x="1" y="129" stroke="#aeaeae" rx="2" ry="2"/><rect width="30" height="30" x="1" y="225" stroke="#aeaeae" rx="2" ry="2"/><rect width="30" height="30" x="1" y="193" stroke="#2979ff" rx="2" ry="2"/><rect width="30" height="30" x="1" y="161" stroke="#3096fa" rx="2" ry="2"/><rect width="30" height="30" x="1" y="257" stroke="#aeaeae" rx="2" ry="2"/><rect width="30" height="30" x="1" y="353" stroke="#aeaeae" rx="2" ry="2"/><rect width="30" height="30" x="1" y="321" stroke="#2979ff" rx="2" ry="2"/><rect width="30" height="30" x="1" y="289" stroke="#3096fa" rx="2" ry="2"/><rect width="30" height="30" x="1" y="385" stroke="#aeaeae" rx="2" ry="2"/><rect width="30" height="30" x="1" y="481" stroke="#aeaeae" rx="2" ry="2"/><rect width="30" height="30" x="1" y="449" stroke="#2979ff" rx="2" ry="2"/><rect width="30" height="30" x="1" y="417" stroke="#3096fa" rx="2" ry="2"/><rect width="30" height="30" x="1" y="513" stroke="#aeaeae" rx="2" ry="2"/><rect width="30" height="30" x="1" y="609" stroke="#aeaeae" rx="2" ry="2"/><rect width="30" height="30" x="1" y="577" stroke="#2979ff" rx="2" ry="2"/><rect width="30" height="30" x="1" y="545" stroke="#3096fa" rx="2" ry="2"/></g><path d="m12 148.45-5.2499-5.3284-1.75 1.7762 6.9998 7.1046 15-15.224-1.75-1.7762z"/><path d="m5 271h22v2h-22z"/><g><path fill="#3096fa" d="m91.273 181.45-5.2499-5.3284-1.75 1.7762 6.9998 7.1046 15-15.224-1.75-1.7762z" transform="translate(-79.273 -1)"/><path fill="#2979ff" d="m91.273 213.45-5.2499-5.3284-1.75 1.7762 6.9998 7.1046 15-15.224-1.75-1.7762z" transform="translate(-79.273 -1)"/><path fill="#aeaeae" d="m91.273 245.45-5.2499-5.3284-1.75 1.7762 6.9998 7.1046 15-15.224-1.75-1.7762z" transform="translate(-79.273 -1)"/><path d="m91.273 405.45-5.2499-5.3284-1.75 1.7762 6.9998 7.1046 15-15.224-1.75-1.7762z" transform="translate(-79.273 -1)"/><path fill="#3096fa" d="m91.273 437.45-5.2499-5.3284-1.75 1.7762 6.9998 7.1046 15-15.224-1.75-1.7762z" transform="translate(-79.273 -1)"/><path fill="#2979ff" d="m91.273 469.45-5.2499-5.3284-1.75 1.7762 6.9998 7.1046 15-15.224-1.75-1.7762z" transform="translate(-79.273 -1)"/><path fill="#aeaeae" d="m91.273 501.45-5.2499-5.3284-1.75 1.7762 6.9998 7.1046 15-15.224-1.75-1.7762z" transform="translate(-79.273 -1)"/></g><g stroke-width=".818"><path fill="#3096fa" d="m-59 273h18v2h-18z" transform="matrix(1.2222 0 0 1 77.111 30)"/><path fill="#2979ff" d="m-59 305h18v2h-18z" transform="matrix(1.2222 0 0 1 77.111 30)"/><path fill="#aeaeae" d="m-59 337h18v2h-18z" transform="matrix(1.2222 0 0 1 77.111 30)"/></g><g stroke-width="3.78"><path fill="#000" d="m-8.1872 427.01-2.0142-2.0143-7.9858 7.9857-7.9858-7.9857-2.0142 2.0143 7.9858 7.9857-7.9858 7.9857 2.0142 2.0143 7.9858-7.9857 7.9858 7.9857 2.0142-2.0143-7.9858-7.9857z" transform="translate(34.187 93.003)"/><path fill="#3096fa" d="m-8.1872 459.01-2.0142-2.0143-7.9858 7.9857-7.9858-7.9857-2.0142 2.0143 7.9858 7.9857-7.9858 7.9857 2.0142 2.0143 7.9858-7.9857 7.9858 7.9857 2.0142-2.0143-7.9858-7.9857z" transform="translate(34.187 93.003)"/><path fill="#2979ff" d="m-8.1872 491.01-2.0142-2.0143-7.9858 7.9857-7.9858-7.9857-2.0142 2.0143 7.9858 7.9857-7.9858 7.9857 2.0142 2.0143 7.9858-7.9857 7.9858 7.9857 2.0142-2.0143-7.9858-7.9857z" transform="translate(34.187 93.003)"/><path fill="#aeaeae" d="m-8.1872 523.01-2.0142-2.0143-7.9858 7.9857-7.9858-7.9857-2.0142 2.0143 7.9858 7.9857-7.9858 7.9857 2.0142 2.0143 7.9858-7.9857 7.9858 7.9857 2.0142-2.0143-7.9858-7.9857z" transform="translate(34.187 93.003)"/></g></svg>