<svg xmlns="http://www.w3.org/2000/svg" id="bitmap:15-32" width="15" height="64" version="1.1" viewBox="0 0 3.969 16.934"><metadata/><path stroke-width=".265" d="m1.5195 2.3298 1.3768-1.5756-0.19668-0.22507-1.3768 1.5756z"/><path stroke-width=".265" d="m1.3369 2.1287 1.3768 1.5756 0.19668-0.22507-1.3768-1.5756z"/><g stroke-width=".191"><path fill="#3096fa" d="m2.0888 6.5633-1.1498-1.5755 0.16426-0.22511 1.1498 1.5755z" transform="matrix(-1.1975 0 0 1 4.0209 0)"/><path fill="#3096fa" d="m2.2414 6.3621-1.1498 1.5755-0.16426-0.22511 1.1498-1.5755z" transform="matrix(-1.1975 0 0 1 4.0209 0)"/><path fill="#fff" d="m2.0888 10.797-1.1498-1.5755 0.16426-0.22511 1.1498 1.5755z" transform="matrix(-1.1975 0 0 1 4.0209 0)"/><path fill="#fff" d="m2.2414 10.596-1.1498 1.5755-0.16426-0.2251 1.1498-1.5755z" transform="matrix(-1.1975 0 0 1 4.0209 0)"/><path fill="#aeaeae" d="m2.0888 15.03-1.1498-1.5752 0.16426-0.22504 1.1498 1.5752z" transform="matrix(-1.1975 0 0 1 4.0209 0)"/><path fill="#aeaeae" d="m2.2414 14.829-1.1498 1.5752-0.16426-0.22504 1.1498-1.5752z" transform="matrix(-1.1975 0 0 1 4.0209 0)"/></g></svg>