<svg xmlns="http://www.w3.org/2000/svg" id="bitmap:10-32" width="10" height="76" version="1.1" viewBox="0 0 2.646 20.108"><metadata/><g stroke-width=".265"><path fill="none" d="m0-1.8521h6.35v6.35h-6.35z"/><path fill="none" d="m0 3.7042h6.35v6.35h-6.35z"/><path stroke-width=".265" d="m0.52916 2.2571 0.92137 0.91789 0.13162-0.13113-0.92137-0.91789z"/><path stroke-width=".265" d="m2.2496 2.1167-0.92137 0.91789 0.13162 0.13113 0.92137-0.91789z"/></g><g><g stroke-width=".265"><path fill="#3096fa" d="m0.16538 7.2842 0.92136 0.91789 0.13162-0.13113-0.92136-0.91789z" transform="matrix(1 0 0 1 .36378 0)"/><path fill="#3096fa" d="m1.8858 7.1437-0.92136 0.91789 0.13162 0.13113 0.92136-0.91789z" transform="matrix(1 0 0 1 .36378 0)"/><path fill="#fff" d="m0.16538 12.311 0.92136 0.91789 0.13162-0.13113-0.92136-0.91789z" transform="matrix(1 0 0 1 .36378 0)"/><path fill="#fff" d="m1.8858 12.171-0.92136 0.91789 0.13162 0.13113 0.92136-0.91789z" transform="matrix(1 0 0 1 .36378 0)"/></g><path fill="#aeaeae" stroke-width=".935" d="m0.16538 17.338 0.92136 0.91789 0.13162-0.13113-0.92136-0.91789z" transform="matrix(1 0 0 1 .36378 0)"/><path fill="#aeaeae" stroke-width=".935" d="m1.8858 17.198-0.92136 0.91789 0.13162 0.13113 0.92136-0.91789z" transform="matrix(1 0 0 1 .36378 0)"/></g></svg>