<svg xmlns="http://www.w3.org/2000/svg" id="bitmap:76-32" width="76" height="220" version="1.1" viewBox="0 0 20.108 58.211"><metadata/><path fill="#fff" stroke="#aeaeae" stroke-width="1.058" d="m14.453 11.113-13.924-0.0076v-10.568l13.924-0.00758 4.9323 5.2918z"/><path fill="#2979ff" stroke-width=".265" d="m14.848 34.926-14.849-0.0087v-11.625l14.849-0.008267 5.2599 5.8209z"/><g fill="#fff" stroke-width="1.058"><path stroke="#3096fa" d="m5.7394 18.124 13.924-0.0076v-10.568l-13.924-0.0075847-4.9324 5.2917z" transform="matrix(-1 0 0 1 20.192 4.631)"/><path stroke="#aeaeae" d="m5.7393 53.05 13.924-0.0079v-10.568l-13.924-0.0079-4.9323 5.2915z" transform="matrix(-1 0 0 1 20.192 4.631)"/><path stroke="#3096fa" d="m5.7394 41.408 13.924-0.0079v-10.568l-13.924-0.0079-4.9324 5.2915z" transform="matrix(-1 0 0 1 20.192 4.631)"/></g></svg>