<svg xmlns="http://www.w3.org/2000/svg" id="bitmap:45-32" width="45" height="225" version="1.1" viewBox="0 0 11.906 59.531"><metadata/><g stroke-width=".265"><path fill="#3096fa" d="m7.1834 3.175-0.57825 0.55959 1.8783 1.8217h-6.6314v0.79375h6.6314l-1.8824 1.8217 0.58235 0.55959 2.8707-2.7781z"/><path fill="#3096fa" d="m7.1834 15.081-0.57825 0.5596 1.8783 1.8217h-6.6314v0.79375h6.6314l-1.8824 1.8217 0.58235 0.55959 2.8707-2.7781z"/><path fill="#2979ff" d="m7.1834 26.988-0.57825 0.5596 1.8783 1.8217h-6.6314v0.79375h6.6314l-1.8824 1.8217 0.58235 0.55959 2.8707-2.7781z"/><path fill="#3096fa" d="m7.1834 50.8-0.57825 0.5596 1.8783 1.8217h-6.6314v0.79375h6.6314l-1.8824 1.8217 0.58235 0.55959 2.8707-2.7781z"/><path fill="#aeaeae" d="m7.1834 38.894-0.57825 0.5596 1.8783 1.8217h-6.6314v0.79375h6.6314l-1.8824 1.8217 0.58235 0.55959 2.8707-2.7781z"/></g></svg>