<svg xmlns="http://www.w3.org/2000/svg" id="bitmap:12-32" width="12" height="56" version="1.1" viewBox="0 0 3.175 14.817"><metadata/><path stroke-width=".265" d="m2.1846 2.0297-1.3768-1.313 0.19668-0.18756 1.3768 1.313z"/><path stroke-width=".265" d="m2.3672 1.8621-1.3768 1.313-0.19668-0.18756 1.3768-1.313z"/><g stroke-width=".191"><path fill="#3096fa" d="m1.8679 5.734-1.1498-1.3129 0.16426-0.18758 1.1498 1.3129z" transform="matrix(1.1975 0 0 1 -.052245 0)"/><path fill="#3096fa" d="m2.0205 5.5664-1.1498 1.3129-0.16426-0.18758 1.1498-1.3129z" transform="matrix(1.1975 0 0 1 -.052245 0)"/><path fill="#fff" d="m1.8679 9.4383-1.1498-1.3129 0.16426-0.18758 1.1498 1.3129z" transform="matrix(1.1975 0 0 1 -.052245 0)"/><path fill="#fff" d="m2.0205 9.2707-1.1498 1.3129-0.16426-0.18758 1.1498-1.3129z" transform="matrix(1.1975 0 0 1 -.052245 0)"/><path fill="#aeaeae" d="m1.8679 13.142-1.1498-1.3125 0.16426-0.18751 1.1498 1.3125z" transform="matrix(1.1975 0 0 1 -.052245 0)"/><path fill="#aeaeae" d="m2.0205 12.975-1.1498 1.3125-0.16426-0.18751 1.1498-1.3125z" transform="matrix(1.1975 0 0 1 -.052245 0)"/></g></svg>