<svg xmlns="http://www.w3.org/2000/svg" id="bitmap:21-32" width="21" height="72" version="1.1" viewBox="0 0 5.556 19.05"><metadata/><g stroke-width=".265"><path d="m2.7913 1.3437 1.9711 2.0654-0.2816 0.29504-1.9711-2.0654z"/><path d="m0.79369 3.3883 1.9711-2.0654 0.2816 0.29504-1.9711 2.0654z"/><path fill="#3096fa" d="m2.7913 6.1064 1.9711 2.0653-0.2816 0.29502-1.9711-2.0653z"/><path fill="#3096fa" d="m0.79369 8.1507 1.9711-2.0653 0.2816 0.29502-1.9711 2.0653z"/><path fill="#fff" d="m2.7913 10.869 1.9711 2.0652-0.2816 0.295-1.9711-2.0652z"/><path fill="#fff" d="m0.79369 12.913 1.9711-2.0652 0.2816 0.295-1.9711 2.0652z"/><path fill="#aeaeae" d="m2.7913 15.632 1.9711 2.0652-0.2816 0.295-1.9711-2.0652z"/><path fill="#aeaeae" d="m0.79369 17.676 1.9711-2.0652 0.2816 0.295-1.9711 2.0652z"/></g></svg>