<svg xmlns="http://www.w3.org/2000/svg" id="bitmap:25-32" width="25" height="75" version="1.1" viewBox="0 0 6.615 19.844"><metadata/><g stroke-width=".265"><path fill="#fff" stroke="#aeaeae" d="m1.9572 3.5718 4.2628-0.00227v-3.1704l-4.2628-0.002274-1.5101 1.5875z" transform="matrix(-1 0 0 1 6.6168 0)"/><path fill="#2979ff" d="m1.8564 11.642 4.4936-0.0025v-3.4347l-4.4936-0.0025-1.5918 1.7198z" transform="matrix(-1 0 0 1 6.6168 0)"/><g fill="#fff"><path stroke="#3096fa" d="m1.9572 7.5406 4.2628-0.00227v-3.1704l-4.2628-0.00227-1.5101 1.5875z" transform="matrix(-1 0 0 1 6.6168 0)"/><path stroke="#aeaeae" d="m1.9572 19.447 4.2628-0.0023v-3.1704l-4.2628-0.0023-1.5101 1.5875z" transform="matrix(-1 0 0 1 6.6168 0)"/><path stroke="#3096fa" d="m1.9572 15.478 4.2628-0.0023v-3.1704l-4.2628-0.0023-1.5101 1.5875z" transform="matrix(-1 0 0 1 6.6168 0)"/></g></g></svg>