<svg xmlns="http://www.w3.org/2000/svg" id="bitmap:23-32" width="23" height="184" version="1.1" viewBox="0 0 6.085 48.684"><g fill="none"><g stroke-width=".265"><rect width="2.91" height="2.91" x="1.191" y="1.984" stroke="#aeaeae"/><rect width="2.91" height="2.91" x="1.191" y="8.07" stroke="#3096fa"/><rect width="2.91" height="2.91" x="1.191" y="14.155" stroke="#2979ff"/></g><rect width="3.175" height=".265" x="-5.027" y="1.058" fill="#aeaeae" stroke-width=".239" transform="scale(-1,1)"/><rect width=".265" height="2.91" x="-5.027" y="1.323" fill="#aeaeae" stroke-width=".239" transform="scale(-1,1)"/><rect width="2.91" height="2.91" x="1.191" y="20.241" stroke="#aeaeae" stroke-width=".265"/><rect width="3.175" height=".265" x="-5.027" y="19.315" fill="#aeaeae" stroke-width=".239" transform="scale(-1,1)"/><rect width=".265" height="2.91" x="-5.027" y="19.579" fill="#aeaeae" stroke-width=".239" transform="scale(-1,1)"/><g stroke-width=".239"><rect width="3.175" height=".265" x="-5.027" y="7.144" fill="#3096fa" transform="scale(-1,1)"/><rect width=".265" height="2.91" x="-5.027" y="7.408" fill="#3096fa" transform="scale(-1,1)"/><rect width="3.175" height=".265" x="-5.027" y="13.229" fill="#2979ff" transform="scale(-1,1)"/><rect width=".265" height="2.91" x="-5.027" y="13.494" fill="#2979ff" transform="scale(-1,1)"/></g><g stroke-width=".265"><rect width="2.91" height="2.91" x="1.191" y="26.326" stroke="#aeaeae"/><rect width="2.91" height="2.91" x="1.191" y="32.412" stroke="#3096fa"/><rect width="2.91" height="2.91" x="1.191" y="38.497" stroke="#2979ff"/></g><rect width="3.175" height=".265" x="-5.027" y="25.4" fill="#aeaeae" stroke-width=".239" transform="scale(-1,1)"/><rect width=".265" height="2.91" x="-5.027" y="25.665" fill="#aeaeae" stroke-width=".239" transform="scale(-1,1)"/><rect width="2.91" height="2.91" x="1.191" y="44.583" stroke="#aeaeae" stroke-width=".265"/><rect width="3.175" height=".265" x="-5.027" y="43.657" fill="#aeaeae" stroke-width=".239" transform="scale(-1,1)"/><rect width=".265" height="2.91" x="-5.027" y="43.921" fill="#aeaeae" stroke-width=".239" transform="scale(-1,1)"/><g stroke-width=".239"><rect width="3.175" height=".265" x="-5.027" y="31.486" fill="#3096fa" transform="scale(-1,1)"/><rect width=".265" height="2.91" x="-5.027" y="31.75" fill="#3096fa" transform="scale(-1,1)"/><rect width="3.175" height=".265" x="-5.027" y="37.571" fill="#2979ff" transform="scale(-1,1)"/><rect width=".265" height="2.91" x="-5.027" y="37.836" fill="#2979ff" transform="scale(-1,1)"/></g></g></svg>