<svg xmlns="http://www.w3.org/2000/svg" id="bitmap:16-32" width="16" height="64" version="1.1" viewBox="0 0 4.233 16.933"><g stroke-width=".265"><path stroke-width=".265" d="m1.6356 2.7327-0.63138-0.66342-0.21047 0.22115 0.84183 0.88455 1.804-1.8955-0.21047-0.22115z"/><path fill="#aeaeae" stroke-width=".265" d="m1.6356 6.9659-0.63138-0.66342-0.21047 0.22115 0.84183 0.88455 1.804-1.8955-0.21047-0.22115z"/><path fill="#aeaeae" d="m2.9104 14.816a0.79374 0.79374 0 0 1-0.79374 0.79374 0.79374 0.79374 0 0 1-0.79374-0.79374 0.79374 0.79374 0 0 1 0.79374-0.79374 0.79374 0.79374 0 0 1 0.79374 0.79374z"/><path d="m2.9104 10.583a0.79374 0.79374 0 0 1-0.79374 0.79374 0.79374 0.79374 0 0 1-0.79374-0.79374 0.79374 0.79374 0 0 1 0.79374-0.79374 0.79374 0.79374 0 0 1 0.79374 0.79374z"/></g></svg>