<svg xmlns="http://www.w3.org/2000/svg" id="bitmap:38-32" width="38" height="152" version="1.1" viewBox="0 0 10.054 40.217"><metadata/><g stroke-width=".265"><path fill="#aeaeae" d="m4.1276 3.4396 0.29844 0.31977-0.96941 1.0409h3.4226v0.45358h-3.4226l0.97149 1.0409-0.30056 0.31977-1.4817-1.5875z"/><path fill="#3096fa" d="m4.1276 13.494 0.29844 0.31977-0.96941 1.0409h3.4226v0.45358h-3.4226l0.97149 1.0409-0.30056 0.31977-1.4817-1.5875z"/><path fill="#2979ff" d="m4.1276 23.548 0.29844 0.31977-0.96941 1.0409h3.4226v0.45358h-3.4226l0.97149 1.0409-0.30056 0.31977-1.4817-1.5875z"/><path fill="#aeaeae" d="m4.1276 33.602 0.29844 0.31977-0.96941 1.0409h3.4226v0.45358h-3.4226l0.97149 1.0409-0.30056 0.31977-1.4817-1.5875z"/></g></svg>