<svg xmlns="http://www.w3.org/2000/svg" id="bitmap:57-32" width="57" height="165" version="1.1" viewBox="0 0 15.081 43.658"><metadata/><path fill="#fff" stroke="#aeaeae" stroke-width=".794" d="m10.843 8.3346-10.446-0.0056885v-7.9263l10.446-0.005685 3.7003 3.9688z"/><path fill="#2979ff" stroke-width=".265" d="m11.141 26.195-11.137-0.0065v-8.7188l11.137-0.0062 3.945 4.3656z"/><g fill="#fff" stroke-width=".794"><path stroke="#3096fa" d="m4.5074 15.478 10.446-0.0057v-7.9262l-10.446-0.0056885-3.7004 3.9687z" transform="matrix(-1 0 0 1 15.35 1.5879)"/><path stroke="#aeaeae" d="m4.5073 41.673 10.446-0.0059v-7.9258l-10.446-0.0059-3.7003 3.9686z" transform="matrix(-1 0 0 1 15.35 1.5879)"/><path stroke="#3096fa" d="m4.5074 32.941 10.446-0.0059v-7.9258l-10.446-0.0059-3.7004 3.9686z" transform="matrix(-1 0 0 1 15.35 1.5879)"/></g></svg>