<svg xmlns="http://www.w3.org/2000/svg" id="bitmap:21-32" width="21" height="60" version="1.1" viewBox="0 0 5.556 15.875"><metadata/><g stroke-width=".265" transform="translate(-40.717,-1.1913)"><g fill="#fff"><g stroke="#3096fa" stroke-width=".292" transform="translate(.9364 4.9015) matrix(.95025 0 0 .86559 1.102 -4.705)"><rect width="5.556" height="5.821" x="40.849" y="7.409" stroke-width=".292" rx=".557" ry=".611"/></g></g><rect width="5.292" height="5.027" x="40.849" y="11.907" fill="#fff" stroke="#2979ff" stroke-width=".265" rx=".529" ry=".529"/><g stroke-width=".07"><path fill="#aeaeae" d="m44.554 5.6369-1.2274-1.2369q-0.10942 0.038059-0.21884 0.061845-0.10942 0.023789-0.2236 0.023789-0.46146 0-0.78497-0.32113-0.3235-0.32113-0.3235-0.78259 0-0.14747 0.03806-0.28782t0.10942-0.26403l0.68982 0.68982 0.43767-0.40914-0.70884-0.70885q0.1237-0.071361 0.26165-0.1118 0.13797-0.040438 0.28068-0.040438 0.47098 0 0.80162 0.33064t0.33064 0.80162q0 0.11418-0.02379 0.2236t-0.06184 0.21884l1.2322 1.2274q0.05232 0.052332 0.05232 0.12607 0 0.073739-0.05232 0.12607l-0.36156 0.33301q-0.05234 0.052332-0.1237 0.052332t-0.1237-0.052332zm0.13321-0.27117 0.1903-0.19029-1.2988-1.2988q0.07612-0.099904 0.11418-0.2355 0.03806-0.13559 0.03806-0.25927 0-0.3568-0.26403-0.60419-0.26403-0.24738-0.60181-0.25214l0.48049 0.49001q0.04282 0.042816 0.04282 0.10466 0 0.061846-0.04282 0.10466l-0.62797 0.58991q-0.04282 0.042816-0.10466 0.042816t-0.10466-0.042816l-0.46146-0.4567q0.01427 0.36631 0.25927 0.60419 0.245 0.23787 0.57802 0.23787 0.11894 0 0.25214-0.038059 0.13321-0.038059 0.23312-0.11418z"/><path fill="#3096fa" d="m44.554 10.929-1.2274-1.2369q-0.10942 0.03806-0.21884 0.06184-0.10942 0.02379-0.2236 0.02379-0.46146 0-0.78497-0.32113-0.3235-0.32112-0.3235-0.78258 0-0.14747 0.03806-0.28782t0.10942-0.26403l0.68982 0.68982 0.43767-0.40914-0.70884-0.70885q0.1237-0.07136 0.26165-0.1118 0.13797-0.04044 0.28068-0.04044 0.47098 0 0.80162 0.33064t0.33064 0.80162q0 0.11418-0.02379 0.2236t-0.06184 0.21884l1.2322 1.2274q0.05233 0.05234 0.05233 0.12607 0 0.07374-0.05233 0.12607l-0.36156 0.33301q-0.05234 0.05234-0.1237 0.05234t-0.1237-0.05234zm0.13321-0.27117 0.19029-0.19029-1.2988-1.2987q0.07611-0.0999 0.11418-0.23549 0.03806-0.13559 0.03806-0.25927 0-0.3568-0.26403-0.60419-0.26403-0.24738-0.60181-0.25213l0.48049 0.49001q0.04282 0.04282 0.04282 0.10466t-0.04282 0.10466l-0.62797 0.58991q-0.04282 0.04282-0.10466 0.04282t-0.10466-0.04282l-0.46146-0.4567q0.01427 0.36631 0.25927 0.60419 0.245 0.23787 0.57802 0.23787 0.11894 0 0.25214-0.03806 0.13321-0.03806 0.23312-0.11418z"/><path fill="#2979ff" d="m44.554 16.22-1.2274-1.2369q-0.10942 0.03806-0.21884 0.06184-0.10942 0.02379-0.2236 0.02379-0.46146 0-0.78497-0.32112-0.3235-0.32113-0.3235-0.78258 0-0.14747 0.03806-0.28782t0.10942-0.26403l0.68982 0.68982 0.43767-0.40914-0.70884-0.70885q0.1237-0.07136 0.26165-0.1118 0.13797-0.04044 0.28068-0.04044 0.47098 0 0.80162 0.33064t0.33064 0.80162q0 0.11418-0.02379 0.2236t-0.06184 0.21884l1.2322 1.2274q0.05233 0.05234 0.05233 0.12607 0 0.07374-0.05233 0.12607l-0.36156 0.33301q-0.05234 0.05234-0.1237 0.05234t-0.1237-0.05234zm0.13321-0.27117 0.19029-0.19029-1.2988-1.2987q0.07611-0.0999 0.11418-0.23548 0.03806-0.13559 0.03806-0.25927 0-0.3568-0.26403-0.60419-0.26403-0.24738-0.60181-0.25213l0.48049 0.49001q0.04282 0.04282 0.04282 0.10466t-0.04282 0.10466l-0.62797 0.58991q-0.04282 0.04282-0.10466 0.04282t-0.10466-0.04282l-0.46146-0.4567q0.01427 0.36631 0.25927 0.60419 0.245 0.23787 0.57802 0.23787 0.11894 0 0.25214-0.03806 0.13321-0.03806 0.23312-0.11418z"/></g></g></svg>