<svg xmlns="http://www.w3.org/2000/svg" id="bitmap:24-32" width="24" height="112" version="1.1" viewBox="0 0 6.35 29.634"><metadata/><path stroke-width=".265" d="m4.1373 4.0594-2.5241-2.626 0.36058-0.37511 2.5241 2.626z"/><path stroke-width=".265" d="m4.472 3.7243-2.5241 2.626-0.36058-0.37511 2.5241-2.626z"/><g stroke-width=".104"><path fill="#3096fa" d="m2.3298 11.468-1.1498-2.626 0.16426-0.37521 1.1498 2.626z" transform="matrix(2.1954 0 0 1 -.97767 0)"/><path fill="#3096fa" d="m2.4824 11.133-1.1498 2.626-0.16426-0.37521 1.1498-2.626z" transform="matrix(2.1954 0 0 1 -.97767 0)"/><path fill="#fff" d="m2.3298 18.877-1.1498-2.6258 0.16426-0.37518 1.1498 2.6258z" transform="matrix(2.1954 0 0 1 -.97767 0)"/><path fill="#fff" d="m2.4824 18.542-1.1498 2.6258-0.16426-0.37517 1.1498-2.6258z" transform="matrix(2.1954 0 0 1 -.97767 0)"/><path fill="#aeaeae" d="m2.3298 26.285-1.1498-2.6259 0.16426-0.37515 1.1498 2.6259z" transform="matrix(2.1954 0 0 1 -.97767 0)"/><path fill="#aeaeae" d="m2.4824 25.95-1.1498 2.6259-0.16426-0.37515 1.1498-2.6259z" transform="matrix(2.1954 0 0 1 -.97767 0)"/></g></svg>