<svg xmlns="http://www.w3.org/2000/svg" id="bitmap:11-32" width="11" height="36" version="1.1" viewBox="0 0 2.91 9.525"><metadata/><g stroke-width=".265"><path d="m1.4632 1.5759 1.1827-1.1474-0.16896-0.16391-1.1827 1.1474z"/><path d="m0.26459 0.4401 1.1827 1.1474 0.16896-0.16391-1.1827-1.1474z"/><path fill="#3096fa" d="m1.4632 3.9572 1.1827-1.1475-0.16896-0.16392-1.1827 1.1475z"/><path fill="#3096fa" d="m0.26459 2.8213 1.1827 1.1475 0.16896-0.16392-1.1827-1.1475z"/><path fill="#fff" d="m1.4632 6.3385 1.1827-1.1475-0.16896-0.16392-1.1827 1.1475z"/><path fill="#fff" d="m0.26459 5.2025 1.1827 1.1475 0.16896-0.16392-1.1827-1.1475z"/><path fill="#aeaeae" d="m1.4632 8.7197 1.1827-1.1475-0.16896-0.16392-1.1827 1.1475z"/><path fill="#aeaeae" d="m0.26459 7.5838 1.1827 1.1475 0.16896-0.16392-1.1827-1.1475z"/></g></svg>