<svg xmlns="http://www.w3.org/2000/svg" id="bitmap:10-32" width="10" height="27" version="1.1" viewBox="0 0 2.646 7.144"><metadata/><g fill="#aeaeae" stroke-width=".265"><path d="m2.5475 1.6941-0.6885-0.78776 0.098356-0.11254 0.6885 0.78776z"/><path d="m2.6389 1.5936-0.6885 0.78776-0.098356-0.11254 0.6885-0.78776z"/><path d="m1.4891 1.6941-0.6885-0.78776 0.098356-0.11254 0.6885 0.78776z"/><path d="m1.5806 1.5936-0.6885 0.78776-0.098356-0.11254 0.6885-0.78776z"/></g><g fill="#3096fa" stroke-width=".305"><path d="m2.5475 4.5518-0.6885-1.0503 0.098356-0.15005 0.6885 1.0503z" transform="matrix(1 0 0 .75003 0 .6614)"/><path d="m2.6389 4.4178-0.6885 1.0503-0.098356-0.15005 0.6885-1.0503z" transform="matrix(1 0 0 .75003 0 .6614)"/><path d="m1.4891 4.5518-0.6885-1.0503 0.098356-0.15005 0.6885 1.0503z" transform="matrix(1 0 0 .75003 0 .6614)"/><path d="m1.5806 4.4178-0.6885 1.0503-0.098356-0.15005 0.6885-1.0503z" transform="matrix(1 0 0 .75003 0 .6614)"/></g><g fill="#2979ff" stroke-width=".306"><path d="m2.5475 6.9332-0.6885-1.0503 0.098356-0.15005 0.6885 1.0503z" transform="matrix(1 0 0 .75 0 1.2568)"/><path d="m2.6389 6.7993-0.6885 1.0503-0.098356-0.15005 0.6885-1.0503z" transform="matrix(1 0 0 .75 0 1.2568)"/><path d="m1.4891 6.9332-0.6885-1.0503 0.098356-0.15005 0.6885 1.0503z" transform="matrix(1 0 0 .75 0 1.2568)"/><path d="m1.5806 6.7993-0.6885 1.0503-0.098356-0.15005 0.6885-1.0503z" transform="matrix(1 0 0 .75 0 1.2568)"/></g></svg>