<svg xmlns="http://www.w3.org/2000/svg" id="bitmap:25-32" width="25" height="200" version="1.1" viewBox="0 0 25 200"><metadata/><g fill="none" stroke-width="2"><g><ellipse cx="12.5" cy="12.5" fill="#fffff9" stroke="#aeaeae" rx="11.5" ry="11.5"/><ellipse cx="12.5" cy="37.5" fill="#fff" stroke="#3096fa" rx="11.5" ry="11.5"/><ellipse cx="12.5" cy="62.5" fill="#fff" stroke="#2979ff" rx="11.5" ry="11.5"/></g><ellipse cx="12.5" cy="87.5" stroke="#aeaeae" rx="11.5" ry="11.5"/><g fill="#fff"><ellipse cx="12.5" cy="112.5" stroke="#aeaeae" rx="11.5" ry="11.5"/><ellipse cx="12.5" cy="137.5" stroke="#3096fa" rx="11.5" ry="11.5"/><ellipse cx="12.5" cy="162.5" stroke="#2979ff" rx="11.5" ry="11.5"/></g><ellipse cx="12.5" cy="187.5" stroke="#aeaeae" rx="11.5" ry="11.5"/></g><path d="m20 112.5a7.5 7.5 0 0 1-7.5 7.5 7.5 7.5 0 0 1-7.5-7.5 7.5 7.5 0 0 1 7.5-7.5 7.5 7.5 0 0 1 7.5 7.5z"/><path fill="#3096fa" d="m20 137.5a7.5 7.5 0 0 1-7.5 7.5 7.5 7.5 0 0 1-7.5-7.5 7.5 7.5 0 0 1 7.5-7.5 7.5 7.5 0 0 1 7.5 7.5z"/><path fill="#2979ff" d="m20 162.5a7.5 7.5 0 0 1-7.5 7.5 7.5 7.5 0 0 1-7.5-7.5 7.5 7.5 0 0 1 7.5-7.5 7.5 7.5 0 0 1 7.5 7.5z"/><path fill="#aeaeae" d="m20 187.5a7.5 7.5 0 0 1-7.5 7.5 7.5 7.5 0 0 1-7.5-7.5 7.5 7.5 0 0 1 7.5-7.5 7.5 7.5 0 0 1 7.5 7.5z"/></svg>