<svg xmlns="http://www.w3.org/2000/svg" id="bitmap:29-32" width="29" height="85" version="1.1" viewBox="0 0 7.673 22.49"><metadata/><g stroke-width=".265"><path fill="#fff" stroke="#aeaeae" d="m2.0415 4.101 5.2345-0.00265v-3.6989l-5.2345-0.002653-1.8543 1.8521z" transform="matrix(-1 0 0 1 7.6729 0)"/><path fill="#2979ff" d="m1.9378 13.229 5.4706-0.0029v-3.963l-5.4706-0.0028846-1.9379 1.9843z" transform="matrix(-1 0 0 1 7.6729 0)"/><g fill="#fff"><path stroke="#3096fa" d="m2.3061 8.5991 5.2345-0.00265v-3.6989l-5.2345-0.00265-1.8543 1.8521z" transform="matrix(-1 0 0 1 7.6729 0) translate(-.26464)"/><path stroke="#aeaeae" d="m2.3061 22.093 5.2345-0.0027v-3.6988l-5.2345-0.0027-1.8543 1.8521z" transform="matrix(-1 0 0 1 7.6729 0) translate(-.26464)"/><path stroke="#3096fa" d="m2.3061 17.595 5.2345-0.0027v-3.6988l-5.2345-0.0027-1.8543 1.8521z" transform="matrix(-1 0 0 1 7.6729 0) translate(-.26464)"/></g></g></svg>