<svg xmlns="http://www.w3.org/2000/svg" id="bitmap:4-32" width="4" height="28" version="1.1" viewBox="0 0 1.058 7.408"><metadata/><path stroke-width=".265" d="m0.13109 1.0503 0.91792-0.91902-0.13113-0.13129-0.91792 0.91902z"/><path stroke-width=".265" d="m0.0092782 0.93305 0.91792 0.91902 0.13113-0.13129-0.91792-0.91902z"/><g stroke-width=".23"><path fill="#3096fa" d="m0.92862 2.9024-0.91988-0.91906 0.13141-0.1313 0.91988 0.91906z" transform="matrix(-.99786 0 0 1 1.0577 0)"/><path fill="#3096fa" d="m1.0507 2.7851-0.91988 0.91906-0.13141-0.1313 0.91988-0.91906z" transform="matrix(-.99786 0 0 1 1.0577 0)"/><path fill="#fff" d="m0.92862 4.7545-0.91988-0.91906 0.13141-0.1313 0.91988 0.91906z" transform="matrix(-.99786 0 0 1 1.0577 0)"/><path fill="#fff" d="m1.0507 4.6372-0.91988 0.91906-0.13141-0.1313 0.91988-0.91906z" transform="matrix(-.99786 0 0 1 1.0577 0)"/><path fill="#aeaeae" d="m0.92862 6.6064-0.91988-0.91899 0.13141-0.13129 0.91988 0.91899z" transform="matrix(-.99786 0 0 1 1.0577 0)"/><path fill="#aeaeae" d="m1.0507 6.4893-0.91988 0.91899-0.13141-0.13129 0.91988-0.91899z" transform="matrix(-.99786 0 0 1 1.0577 0)"/></g></svg>