<svg xmlns="http://www.w3.org/2000/svg" id="bitmap:32-32" width="32" height="256" version="1.1" viewBox="0 0 8.467 67.734"><g fill="none"><g stroke-width=".529"><rect width="3.44" height="3.44" x="1.852" y="3.175" stroke="#aeaeae"/><rect width="3.44" height="3.44" x="1.852" y="11.642" stroke="#3096fa"/><rect width="3.44" height="3.44" x="1.852" y="20.109" stroke="#2979ff"/></g><rect width="3.969" height=".529" x="-6.879" y="1.587" fill="#aeaeae" stroke-width=".239" transform="scale(-1,1)"/><rect width=".529" height="3.44" x="-6.879" y="2.117" fill="#aeaeae" stroke-width=".239" transform="scale(-1,1)"/><g stroke-width=".239"><rect width="3.969" height=".529" x="-6.879" y="10.054" fill="#3096fa" transform="scale(-1,1)"/><rect width=".529" height="3.44" x="-6.879" y="10.583" fill="#3096fa" transform="scale(-1,1)"/><rect width="3.969" height=".529" x="-6.879" y="18.521" fill="#2979ff" transform="scale(-1,1)"/><rect width=".529" height="3.44" x="-6.879" y="19.05" fill="#2979ff" transform="scale(-1,1)"/></g><rect width="3.44" height="3.44" x="1.852" y="28.575" stroke="#aeaeae" stroke-width=".529"/><rect width="3.969" height=".529" x="-6.879" y="26.988" fill="#aeaeae" stroke-width=".239" transform="scale(-1,1)"/><rect width=".529" height="3.44" x="-6.879" y="27.517" fill="#aeaeae" stroke-width=".239" transform="scale(-1,1)"/><g stroke-width=".529"><rect width="3.44" height="3.44" x="1.852" y="37.042" stroke="#aeaeae"/><rect width="3.44" height="3.44" x="1.852" y="45.509" stroke="#3096fa"/><rect width="3.44" height="3.44" x="1.852" y="53.976" stroke="#2979ff"/></g><rect width="3.969" height=".529" x="-6.879" y="35.454" fill="#aeaeae" stroke-width=".239" transform="scale(-1,1)"/><rect width=".529" height="3.44" x="-6.879" y="35.984" fill="#aeaeae" stroke-width=".239" transform="scale(-1,1)"/><g stroke-width=".239"><rect width="3.969" height=".529" x="-6.879" y="43.921" fill="#3096fa" transform="scale(-1,1)"/><rect width=".529" height="3.44" x="-6.879" y="44.45" fill="#3096fa" transform="scale(-1,1)"/><rect width="3.969" height=".529" x="-6.879" y="52.388" fill="#2979ff" transform="scale(-1,1)"/><rect width=".529" height="3.44" x="-6.879" y="52.917" fill="#2979ff" transform="scale(-1,1)"/></g><rect width="3.44" height="3.44" x="1.852" y="62.442" stroke="#aeaeae" stroke-width=".529"/><rect width="3.969" height=".529" x="-6.879" y="60.855" fill="#aeaeae" stroke-width=".239" transform="scale(-1,1)"/><rect width=".529" height="3.44" x="-6.879" y="61.384" fill="#aeaeae" stroke-width=".239" transform="scale(-1,1)"/></g></svg>