<svg xmlns="http://www.w3.org/2000/svg" id="bitmap:32-32" width="32" height="128" version="1.1" viewBox="0 0 8.467 33.866"><g stroke-width=".265"><path d="m3.5358 5.4654-1.2627-1.3268-0.42093 0.4423 1.6837 1.7691 3.608-3.791-0.42093-0.4423z"/><path fill="#aeaeae" d="m3.5358 13.932-1.2627-1.3268-0.42093 0.4423 1.6837 1.7691 3.608-3.791-0.42093-0.4423z"/><path fill="#aeaeae" d="m5.8208 29.633a1.5875 1.5875 0 0 1-1.5875 1.5875 1.5875 1.5875 0 0 1-1.5875-1.5875 1.5875 1.5875 0 0 1 1.5875-1.5875 1.5875 1.5875 0 0 1 1.5875 1.5875z"/><path d="m5.8208 21.167a1.5875 1.5875 0 0 1-1.5875 1.5875 1.5875 1.5875 0 0 1-1.5875-1.5875 1.5875 1.5875 0 0 1 1.5875-1.5875 1.5875 1.5875 0 0 1 1.5875 1.5875z"/></g></svg>