<svg xmlns="http://www.w3.org/2000/svg" id="bitmap:40-32" width="40" height="108" version="1.1" viewBox="0 0 10.583 28.576"><metadata/><g fill="#aeaeae"><path stroke-width=".265" d="m10.256 7.2345-2.2948-2.6259 0.32784-0.37515 2.2948 2.6259z"/><path stroke-width=".265" d="m10.56 6.8995-2.2948 2.6259-0.32784-0.37515 2.2948-2.6259z"/><path stroke-width=".265" d="m6.0221 7.325-2.295-2.6259 0.32786-0.37515 2.295 2.6259z"/><path stroke-width=".265" d="m6.3269 6.99-2.295 2.6259-0.32786-0.37515 2.295-2.6259z"/></g><g fill="#3096fa" stroke-width=".167"><path d="m7.4722 7.0903-2.295-1.0503 0.32788-0.15005 2.295 1.0503z" transform="matrix(1 0 0 2.5001 2.7834 -.96671)"/><path d="m7.7771 6.9563-2.295 1.0503-0.32788-0.15005 2.295-1.0503z" transform="matrix(1 0 0 2.5001 2.7834 -.96671)"/><path d="m3.2387 7.0903-2.2949-1.0503 0.32787-0.15005 2.2949 1.0503z" transform="matrix(1 0 0 2.5001 2.7834 -.96671)"/><path d="m3.5435 6.9563-2.2949 1.0503-0.32787-0.15005 2.2949-1.0503z" transform="matrix(1 0 0 2.5001 2.7834 -.96671)"/></g><g fill="#2979ff" stroke-width=".179"><path d="m7.9939 12.443-2.2948-1.2003 0.32784-0.17148 2.2948 1.2003z" transform="matrix(1 0 0 2.1875 2.2617 -.93389)"/><path d="m8.2984 12.29-2.2948 1.2003-0.32784-0.17148 2.2948-1.2003z" transform="matrix(1 0 0 2.1875 2.2617 -.93389)"/><path d="m3.7604 12.443-2.2949-1.2003 0.32785-0.17148 2.2949 1.2003z" transform="matrix(1 0 0 2.1875 2.2617 -.93389)"/><path d="m4.065 12.29-2.2949 1.2003-0.32785-0.17148 2.2949-1.2003z" transform="matrix(1 0 0 2.1875 2.2617 -.93389)"/></g></svg>