<svg xmlns="http://www.w3.org/2000/svg" id="bitmap:15-32" width="15" height="42" version="1.1" viewBox="0 0 3.969 11.113"><metadata/><g fill="#aeaeae" stroke-width=".265"><path d="m3.8049 2.5589-1.1475-1.3129 0.16393-0.18757 1.1475 1.3129z"/><path d="m3.9572 2.3914-1.1475 1.3129-0.16393-0.18757 1.1475-1.3129z"/><path d="m2.4819 2.5589-1.1475-1.3129 0.16393-0.18757 1.1475 1.3129z"/><path d="m2.6343 2.3914-1.1475 1.3129-0.16393-0.18757 1.1475-1.3129z"/></g><g fill="#3096fa" stroke-width=".237"><path d="m3.1352 4.5509-1.1475-1.0503 0.16393-0.15005 1.1475 1.0503z" transform="matrix(1 0 0 1.2501 .66966 .57429)"/><path d="m3.2876 4.4169-1.1475 1.0503-0.16393-0.15005 1.1475-1.0503z" transform="matrix(1 0 0 1.2501 .66966 .57429)"/><path d="m1.8122 4.5509-1.1475-1.0503 0.16393-0.15005 1.1475 1.0503z" transform="matrix(1 0 0 1.2501 .66966 .57429)"/><path d="m1.9646 4.4169-1.1475 1.0503-0.16393-0.15005 1.1475-1.0503z" transform="matrix(1 0 0 1.2501 .66966 .57429)"/></g><g fill="#2979ff" stroke-width=".237"><path d="m3.641 7.7455-1.1475-1.0503 0.16393-0.15005 1.1475 1.0503z" transform="matrix(1 0 0 1.25 .1639 .28556)"/><path d="m3.7933 7.6116-1.1475 1.0503-0.16393-0.15005 1.1475-1.0503z" transform="matrix(1 0 0 1.25 .1639 .28556)"/><path d="m2.318 7.7455-1.1475-1.0503 0.16393-0.15005 1.1475 1.0503z" transform="matrix(1 0 0 1.25 .1639 .28556)"/><path d="m2.4704 7.6116-1.1475 1.0503-0.16393-0.15005 1.1475-1.0503z" transform="matrix(1 0 0 1.25 .1639 .28556)"/></g></svg>