<svg xmlns="http://www.w3.org/2000/svg" id="bitmap:14-32" width="14" height="48" version="1.1" viewBox="0 0 3.704 12.7"><metadata/><g stroke-width=".265"><path d="m1.8609 2.3673 1.3141-1.3769-0.18773-0.19669-1.3141 1.3769z"/><path d="m0.52916 1.0044 1.3141 1.3769 0.18773-0.19669-1.3141-1.3769z"/><path fill="#3096fa" d="m1.8609 5.5423 1.3141-1.3769-0.18773-0.19669-1.3141 1.3769z"/><path fill="#3096fa" d="m0.52916 4.1794 1.3141 1.3769 0.18773-0.19669-1.3141-1.3769z"/><path fill="#fff" d="m1.8609 8.7174 1.3141-1.377-0.18773-0.1967-1.3141 1.377z"/><path fill="#fff" d="m0.52916 7.3542 1.3141 1.377 0.18773-0.1967-1.3141-1.377z"/><path fill="#aeaeae" d="m1.8609 11.893 1.3141-1.3769-0.18773-0.19669-1.3141 1.3769z"/><path fill="#aeaeae" d="m0.52916 10.53 1.3141 1.3769 0.18773-0.19669-1.3141-1.3769z"/></g></svg>