<svg xmlns="http://www.w3.org/2000/svg" id="bitmap:64-32" width="64" height="512" version="1.1" viewBox="0 0 16.933 135.47"><metadata/><g fill="#bdbdbd" stroke-width="0" transform="matrix(2 0 0 2 -1.8779e-5 -.52927)"><rect width="1.058" height="1.058" x="6.35" y="6.615"/><rect width="1.058" height="1.058" x="6.35" y="5.027"/><rect width="1.058" height="1.058" x="4.762" y="6.615"/><rect width="1.058" height="1.058" x="3.175" y="6.615"/><rect width="1.058" height="1.058" x="4.762" y="5.027"/><rect width="1.058" height="1.058" x="6.35" y="3.44"/><rect width="1.058" height="1.058" x="-2.117" y="15.081" transform="scale(-1,1)"/><rect width="1.058" height="1.058" x="-2.117" y="13.494" transform="scale(-1,1)"/><rect width="1.058" height="1.058" x="-3.704" y="15.081" transform="scale(-1,1)"/><rect width="1.058" height="1.058" x="-5.292" y="15.081" transform="scale(-1,1)"/><rect width="1.058" height="1.058" x="-3.704" y="13.494" transform="scale(-1,1)"/><rect width="1.058" height="1.058" x="-2.117" y="11.906" transform="scale(-1,1)"/><rect width="1.058" height="1.058" x="6.35" y="-19.315" transform="scale(1,-1)"/><rect width="1.058" height="1.058" x="6.35" y="-20.902" transform="scale(1,-1)"/><rect width="1.058" height="1.058" x="4.762" y="-19.315" transform="scale(1,-1)"/><rect width="1.058" height="1.058" x="3.175" y="-19.315" transform="scale(1,-1)"/><rect width="1.058" height="1.058" x="4.762" y="-20.902" transform="scale(1,-1)"/><rect width="1.058" height="1.058" x="6.35" y="-22.49" transform="scale(1,-1)"/><rect width="1.058" height="1.058" x="-2.117" y="-27.781" transform="scale(-1)"/><rect width="1.058" height="1.058" x="-2.117" y="-29.369" transform="scale(-1)"/><rect width="1.058" height="1.058" x="-3.704" y="-27.781" transform="scale(-1)"/><rect width="1.058" height="1.058" x="-5.292" y="-27.781" transform="scale(-1)"/><rect width="1.058" height="1.058" x="-3.704" y="-29.369" transform="scale(-1)"/><rect width="1.058" height="1.058" x="-2.117" y="-30.956" transform="scale(-1)"/><rect width="1.058" height="1.058" x="6.35" y="40.481"/><rect width="1.058" height="1.058" x="6.35" y="38.894"/><rect width="1.058" height="1.058" x="4.762" y="40.481"/><rect width="1.058" height="1.058" x="3.175" y="40.481"/><rect width="1.058" height="1.058" x="4.762" y="38.894"/><rect width="1.058" height="1.058" x="6.35" y="37.306"/><rect width="1.058" height="1.058" x="-2.117" y="48.948" transform="scale(-1,1)"/><rect width="1.058" height="1.058" x="-2.117" y="47.36" transform="scale(-1,1)"/><rect width="1.058" height="1.058" x="-3.704" y="48.948" transform="scale(-1,1)"/><rect width="1.058" height="1.058" x="-5.292" y="48.948" transform="scale(-1,1)"/><rect width="1.058" height="1.058" x="-3.704" y="47.36" transform="scale(-1,1)"/><rect width="1.058" height="1.058" x="-2.117" y="45.773" transform="scale(-1,1)"/><rect width="1.058" height="1.058" x="6.35" y="-53.181" transform="scale(1,-1)"/><rect width="1.058" height="1.058" x="6.35" y="-54.769" transform="scale(1,-1)"/><rect width="1.058" height="1.058" x="4.762" y="-53.181" transform="scale(1,-1)"/><rect width="1.058" height="1.058" x="3.175" y="-53.181" transform="scale(1,-1)"/><rect width="1.058" height="1.058" x="4.762" y="-54.769" transform="scale(1,-1)"/><rect width="1.058" height="1.058" x="6.35" y="-56.356" transform="scale(1,-1)"/><rect width="1.058" height="1.058" x="-2.117" y="-61.648" transform="scale(-1)"/><rect width="1.058" height="1.058" x="-2.117" y="-63.235" transform="scale(-1)"/><rect width="1.058" height="1.058" x="-3.704" y="-61.648" transform="scale(-1)"/><rect width="1.058" height="1.058" x="-5.292" y="-61.648" transform="scale(-1)"/><rect width="1.058" height="1.058" x="-3.704" y="-63.235" transform="scale(-1)"/><rect width="1.058" height="1.058" x="-2.117" y="-64.823" transform="scale(-1)"/></g></svg>