<svg xmlns="http://www.w3.org/2000/svg" id="bitmap:28-32" width="28" height="96" version="1.1" viewBox="0 0 7.408 25.4"><metadata/><path stroke-width=".265" d="m3.7217 1.8775 2.6282 2.5244-0.37547 0.36061-2.6282-2.5244z"/><path stroke-width=".265" d="m1.0582 4.3765 2.6282-2.5244 0.37547 0.36061-2.6282 2.5244z"/><g stroke-width=".265"><path fill="#3096fa" d="m3.7217 8.2277 2.6282 2.5242-0.37547 0.36057-2.6282-2.5242z"/><path fill="#3096fa" d="m1.0582 10.726 2.6282-2.5242 0.37547 0.36057-2.6282 2.5242z"/><path fill="#fff" d="m3.7217 14.578 2.6282 2.524-0.37547 0.36053-2.6282-2.524z"/><path fill="#fff" d="m1.0582 17.076 2.6282-2.524 0.37547 0.36053-2.6282 2.524z"/><path fill="#aeaeae" d="m3.7217 20.928 2.6282 2.524-0.37547 0.36053-2.6282-2.524z"/><path fill="#aeaeae" d="m1.0582 23.426 2.6282-2.524 0.37547 0.36053-2.6282 2.524z"/></g></svg>