<svg xmlns="http://www.w3.org/2000/svg" id="bitmap:24-32" width="24" height="192" version="1.1" viewBox="0 0 6.35 50.8"><metadata/><g fill="#bdbdbd" stroke-width="0" transform="matrix(1.5 0 0 1.5 -.1323 -.52924)"><rect width=".529" height=".529" x="3.44" y="3.704"/><rect width=".529" height=".529" x="2.734" y="3.704"/><rect width=".529" height=".529" x="2.029" y="3.704"/><rect width=".529" height=".529" x="2.734" y="2.999"/><rect width=".529" height=".529" x="3.44" y="2.999"/><rect width=".529" height=".529" x="3.44" y="2.293"/><rect width=".529" height=".529" x="3.44" y="-9.701" transform="scale(1,-1)"/><rect width=".529" height=".529" x="2.734" y="-9.701" transform="scale(1,-1)"/><rect width=".529" height=".529" x="2.029" y="-9.701" transform="scale(1,-1)"/><rect width=".529" height=".529" x="2.734" y="-10.407" transform="scale(1,-1)"/><rect width=".529" height=".529" x="3.44" y="-10.407" transform="scale(1,-1)"/><rect width=".529" height=".529" x="3.44" y="-11.113" transform="scale(1,-1)"/><rect width=".529" height=".529" x="-.97" y="7.938" transform="scale(-1,1)"/><rect width=".529" height=".529" x="-1.676" y="7.938" transform="scale(-1,1)"/><rect width=".529" height=".529" x="-2.381" y="7.938" transform="scale(-1,1)"/><rect width=".529" height=".529" x="-1.676" y="7.232" transform="scale(-1,1)"/><rect width=".529" height=".529" x="-.97" y="7.232" transform="scale(-1,1)"/><rect width=".529" height=".529" x="-.97" y="6.526" transform="scale(-1,1)"/><rect width=".529" height=".529" x="-.97" y="-13.935" transform="scale(-1)"/><rect width=".529" height=".529" x="-1.676" y="-13.935" transform="scale(-1)"/><rect width=".529" height=".529" x="-2.381" y="-13.935" transform="scale(-1)"/><rect width=".529" height=".529" x="-1.676" y="-14.64" transform="scale(-1)"/><rect width=".529" height=".529" x="-.97" y="-14.64" transform="scale(-1)"/><rect width=".529" height=".529" x="-.97" y="-15.346" transform="scale(-1)"/><rect width=".529" height=".529" x="3.44" y="20.638"/><rect width=".529" height=".529" x="2.734" y="20.638"/><rect width=".529" height=".529" x="2.029" y="20.638"/><rect width=".529" height=".529" x="2.734" y="19.932"/><rect width=".529" height=".529" x="3.44" y="19.932"/><rect width=".529" height=".529" x="3.44" y="19.226"/><rect width=".529" height=".529" x="3.44" y="-26.635" transform="scale(1,-1)"/><rect width=".529" height=".529" x="2.734" y="-26.635" transform="scale(1,-1)"/><rect width=".529" height=".529" x="2.029" y="-26.635" transform="scale(1,-1)"/><rect width=".529" height=".529" x="2.734" y="-27.34" transform="scale(1,-1)"/><rect width=".529" height=".529" x="3.44" y="-27.34" transform="scale(1,-1)"/><rect width=".529" height=".529" x="3.44" y="-28.046" transform="scale(1,-1)"/><rect width=".529" height=".529" x="-.97" y="24.871" transform="scale(-1,1)"/><rect width=".529" height=".529" x="-1.676" y="24.871" transform="scale(-1,1)"/><rect width=".529" height=".529" x="-2.381" y="24.871" transform="scale(-1,1)"/><rect width=".529" height=".529" x="-1.676" y="24.165" transform="scale(-1,1)"/><rect width=".529" height=".529" x="-.97" y="24.165" transform="scale(-1,1)"/><rect width=".529" height=".529" x="-.97" y="23.46" transform="scale(-1,1)"/><rect width=".529" height=".529" x="-.97" y="-30.868" transform="scale(-1)"/><rect width=".529" height=".529" x="-1.676" y="-30.868" transform="scale(-1)"/><rect width=".529" height=".529" x="-2.381" y="-30.868" transform="scale(-1)"/><rect width=".529" height=".529" x="-1.676" y="-31.574" transform="scale(-1)"/><rect width=".529" height=".529" x="-.97" y="-31.574" transform="scale(-1)"/><rect width=".529" height=".529" x="-.97" y="-32.279" transform="scale(-1)"/></g></svg>