<svg xmlns="http://www.w3.org/2000/svg" id="bitmap:39-32" width="39" height="312" version="1.1" viewBox="0 0 10.319 82.551"><g fill="none"><g stroke-width=".794"><rect width="4.763" height="4.763" x="1.984" y="3.572" stroke="#aeaeae"/><rect width="4.763" height="4.763" x="1.984" y="13.891" stroke="#3096fa"/><rect width="4.763" height="4.763" x="1.984" y="24.21" stroke="#2979ff"/></g><rect width="5.556" height=".794" x="-8.732" y="1.587" fill="#aeaeae" stroke-width=".239" transform="scale(-1,1)"/><rect width=".794" height="4.763" x="-8.732" y="2.381" fill="#aeaeae" stroke-width=".239" transform="scale(-1,1)"/><rect width="4.763" height="4.763" x="1.984" y="34.529" stroke="#aeaeae" stroke-width=".794"/><rect width="5.556" height=".794" x="-8.732" y="32.544" fill="#aeaeae" stroke-width=".239" transform="scale(-1,1)"/><rect width=".794" height="4.763" x="-8.732" y="33.338" fill="#aeaeae" stroke-width=".239" transform="scale(-1,1)"/><g stroke-width=".239"><rect width="5.556" height=".794" x="-8.732" y="11.906" fill="#3096fa" transform="scale(-1,1)"/><rect width=".794" height="4.763" x="-8.732" y="12.7" fill="#3096fa" transform="scale(-1,1)"/><rect width="5.556" height=".794" x="-8.732" y="22.225" fill="#2979ff" transform="scale(-1,1)"/><rect width=".794" height="4.763" x="-8.732" y="23.019" fill="#2979ff" transform="scale(-1,1)"/></g><g stroke-width=".794"><rect width="4.763" height="4.763" x="1.984" y="44.847" stroke="#aeaeae"/><rect width="4.763" height="4.763" x="1.984" y="55.166" stroke="#3096fa"/><rect width="4.763" height="4.763" x="1.984" y="65.485" stroke="#2979ff"/></g><rect width="5.556" height=".794" x="-8.732" y="42.863" fill="#aeaeae" stroke-width=".239" transform="scale(-1,1)"/><rect width=".794" height="4.763" x="-8.732" y="43.657" fill="#aeaeae" stroke-width=".239" transform="scale(-1,1)"/><rect width="4.763" height="4.763" x="1.984" y="75.804" stroke="#aeaeae" stroke-width=".794"/><rect width="5.556" height=".794" x="-8.732" y="73.82" fill="#aeaeae" stroke-width=".239" transform="scale(-1,1)"/><rect width=".794" height="4.763" x="-8.732" y="74.614" fill="#aeaeae" stroke-width=".239" transform="scale(-1,1)"/><g stroke-width=".239"><rect width="5.556" height=".794" x="-8.732" y="53.182" fill="#3096fa" transform="scale(-1,1)"/><rect width=".794" height="4.763" x="-8.732" y="53.976" fill="#3096fa" transform="scale(-1,1)"/><rect width="5.556" height=".794" x="-8.732" y="63.501" fill="#2979ff" transform="scale(-1,1)"/><rect width=".794" height="4.763" x="-8.732" y="64.295" fill="#2979ff" transform="scale(-1,1)"/></g></g></svg>