<svg xmlns="http://www.w3.org/2000/svg" id="bitmap:20-32" width="20" height="160" version="1.1" viewBox="0 0 5.292 42.333"><metadata/><g fill="#bdbdbd" stroke-width="0" transform="translate(0 -.26463)"><rect width=".794" height=".794" x="3.969" y="4.233"/><rect width=".794" height=".794" x="2.91" y="4.233"/><rect width=".794" height=".794" x="1.852" y="4.233"/><rect width=".794" height=".794" x="2.91" y="3.175"/><rect width=".794" height=".794" x="3.969" y="3.175"/><rect width=".794" height=".794" x="3.969" y="2.117"/><rect width=".794" height=".794" x="-1.323" y="9.525" transform="scale(-1,1)"/><rect width=".794" height=".794" x="-2.381" y="9.525" transform="scale(-1,1)"/><rect width=".794" height=".794" x="-3.439" y="9.525" transform="scale(-1,1)"/><rect width=".794" height=".794" x="-2.381" y="8.467" transform="scale(-1,1)"/><rect width=".794" height=".794" x="-1.323" y="8.467" transform="scale(-1,1)"/><rect width=".794" height=".794" x="-1.323" y="7.408" transform="scale(-1,1)"/><rect width=".794" height=".794" x="3.969" y="-12.171" transform="scale(1,-1)"/><rect width=".794" height=".794" x="2.91" y="-12.171" transform="scale(1,-1)"/><rect width=".794" height=".794" x="1.852" y="-12.171" transform="scale(1,-1)"/><rect width=".794" height=".794" x="2.91" y="-13.229" transform="scale(1,-1)"/><rect width=".794" height=".794" x="3.969" y="-13.229" transform="scale(1,-1)"/><rect width=".794" height=".794" x="3.969" y="-14.287" transform="scale(1,-1)"/><rect width=".794" height=".794" x="-1.323" y="-17.462" transform="scale(-1)"/><rect width=".794" height=".794" x="-2.381" y="-17.462" transform="scale(-1)"/><rect width=".794" height=".794" x="-3.439" y="-17.462" transform="scale(-1)"/><rect width=".794" height=".794" x="-2.381" y="-18.521" transform="scale(-1)"/><rect width=".794" height=".794" x="-1.323" y="-18.521" transform="scale(-1)"/><rect width=".794" height=".794" x="-1.323" y="-19.579" transform="scale(-1)"/><rect width=".794" height=".794" x="3.969" y="25.4"/><rect width=".794" height=".794" x="2.91" y="25.4"/><rect width=".794" height=".794" x="1.852" y="25.4"/><rect width=".794" height=".794" x="2.91" y="24.341"/><rect width=".794" height=".794" x="3.969" y="24.341"/><rect width=".794" height=".794" x="3.969" y="23.283"/><rect width=".794" height=".794" x="-1.323" y="30.691" transform="scale(-1,1)"/><rect width=".794" height=".794" x="-2.381" y="30.691" transform="scale(-1,1)"/><rect width=".794" height=".794" x="-3.439" y="30.691" transform="scale(-1,1)"/><rect width=".794" height=".794" x="-2.381" y="29.633" transform="scale(-1,1)"/><rect width=".794" height=".794" x="-1.323" y="29.633" transform="scale(-1,1)"/><rect width=".794" height=".794" x="-1.323" y="28.575" transform="scale(-1,1)"/><rect width=".794" height=".794" x="3.969" y="-33.337" transform="scale(1,-1)"/><rect width=".794" height=".794" x="2.91" y="-33.337" transform="scale(1,-1)"/><rect width=".794" height=".794" x="1.852" y="-33.337" transform="scale(1,-1)"/><rect width=".794" height=".794" x="2.91" y="-34.395" transform="scale(1,-1)"/><rect width=".794" height=".794" x="3.969" y="-34.395" transform="scale(1,-1)"/><rect width=".794" height=".794" x="3.969" y="-35.454" transform="scale(1,-1)"/><rect width=".794" height=".794" x="-1.323" y="-38.629" transform="scale(-1)"/><rect width=".794" height=".794" x="-2.381" y="-38.629" transform="scale(-1)"/><rect width=".794" height=".794" x="-3.439" y="-38.629" transform="scale(-1)"/><rect width=".794" height=".794" x="-2.381" y="-39.687" transform="scale(-1)"/><rect width=".794" height=".794" x="-1.323" y="-39.687" transform="scale(-1)"/><rect width=".794" height=".794" x="-1.323" y="-40.745" transform="scale(-1)"/></g></svg>