<svg xmlns="http://www.w3.org/2000/svg" id="bitmap:13-32" width="13" height="104" version="1.1" viewBox="0 0 3.44 27.517"><g fill="none"><g stroke-width=".265"><rect width="1.587" height="1.587" x=".661" y="1.191" stroke="#aeaeae"/><rect width="1.587" height="1.587" x=".661" y="4.63" stroke="#3096fa"/><rect width="1.587" height="1.587" x=".661" y="8.07" stroke="#2979ff"/></g><rect width="1.852" height=".265" x="-2.91" y=".529" fill="#aeaeae" stroke-width=".239" transform="scale(-1,1)"/><rect width=".265" height="1.587" x="-2.91" y=".794" fill="#aeaeae" stroke-width=".239" transform="scale(-1,1)"/><rect width="1.587" height="1.587" x=".661" y="11.51" stroke="#aeaeae" stroke-width=".265"/><rect width="1.852" height=".265" x="-2.91" y="10.848" fill="#aeaeae" stroke-width=".239" transform="scale(-1,1)"/><rect width=".265" height="1.587" x="-2.91" y="11.113" fill="#aeaeae" stroke-width=".239" transform="scale(-1,1)"/><g stroke-width=".239"><rect width="1.852" height=".265" x="-2.91" y="3.969" fill="#3096fa" transform="scale(-1,1)"/><rect width=".265" height="1.587" x="-2.91" y="4.233" fill="#3096fa" transform="scale(-1,1)"/><rect width="1.852" height=".265" x="-2.91" y="7.408" fill="#2979ff" transform="scale(-1,1)"/><rect width=".265" height="1.587" x="-2.91" y="7.673" fill="#2979ff" transform="scale(-1,1)"/></g><g stroke-width=".265"><rect width="1.587" height="1.587" x=".661" y="14.949" stroke="#aeaeae"/><rect width="1.587" height="1.587" x=".661" y="18.389" stroke="#3096fa"/><rect width="1.587" height="1.587" x=".661" y="21.828" stroke="#2979ff"/></g><rect width="1.852" height=".265" x="-2.91" y="14.288" fill="#aeaeae" stroke-width=".239" transform="scale(-1,1)"/><rect width=".265" height="1.587" x="-2.91" y="14.552" fill="#aeaeae" stroke-width=".239" transform="scale(-1,1)"/><rect width="1.587" height="1.587" x=".661" y="25.268" stroke="#aeaeae" stroke-width=".265"/><rect width="1.852" height=".265" x="-2.91" y="24.607" fill="#aeaeae" stroke-width=".239" transform="scale(-1,1)"/><rect width=".265" height="1.587" x="-2.91" y="24.871" fill="#aeaeae" stroke-width=".239" transform="scale(-1,1)"/><g stroke-width=".239"><rect width="1.852" height=".265" x="-2.91" y="17.727" fill="#3096fa" transform="scale(-1,1)"/><rect width=".265" height="1.587" x="-2.91" y="17.992" fill="#3096fa" transform="scale(-1,1)"/><rect width="1.852" height=".265" x="-2.91" y="21.167" fill="#2979ff" transform="scale(-1,1)"/><rect width=".265" height="1.587" x="-2.91" y="21.432" fill="#2979ff" transform="scale(-1,1)"/></g></g></svg>