<svg xmlns="http://www.w3.org/2000/svg" id="bitmap:26-32" width="26" height="208" version="1.1" viewBox="0 0 6.879 55.034"><g fill="none" stroke-width=".529"><g stroke-width=".529"><rect width="3.175" height="3.175" x="1.323" y="2.381" stroke="#aeaeae"/><rect width="3.175" height="3.175" x="1.323" y="9.261" stroke="#3096fa"/><rect width="3.175" height="3.175" x="1.323" y="16.14" stroke="#2979ff"/></g><rect width="3.704" height=".529" x="-5.821" y="1.058" fill="#aeaeae" stroke-width=".239" transform="scale(-1,1)"/><rect width=".529" height="3.175" x="-5.821" y="1.587" fill="#aeaeae" stroke-width=".239" transform="scale(-1,1)"/><rect width="3.175" height="3.175" x="1.323" y="23.019" stroke="#aeaeae" stroke-width=".529"/><rect width="3.704" height=".529" x="-5.821" y="21.696" fill="#aeaeae" stroke-width=".239" transform="scale(-1,1)"/><rect width=".529" height="3.175" x="-5.821" y="22.225" fill="#aeaeae" stroke-width=".239" transform="scale(-1,1)"/><g><rect width="3.704" height=".529" x="-5.821" y="7.938" fill="#3096fa" stroke-width=".239" transform="scale(-1,1)"/><rect width=".529" height="3.175" x="-5.821" y="8.467" fill="#3096fa" stroke-width=".239" transform="scale(-1,1)"/><rect width="3.704" height=".529" x="-5.821" y="14.817" fill="#2979ff" stroke-width=".239" transform="scale(-1,1)"/><rect width=".529" height="3.175" x="-5.821" y="15.346" fill="#2979ff" stroke-width=".239" transform="scale(-1,1)"/></g><g stroke-width=".529"><rect width="3.175" height="3.175" x="1.323" y="29.898" stroke="#aeaeae"/><rect width="3.175" height="3.175" x="1.323" y="36.778" stroke="#3096fa"/><rect width="3.175" height="3.175" x="1.323" y="43.657" stroke="#2979ff"/></g><rect width="3.704" height=".529" x="-5.821" y="28.575" fill="#aeaeae" stroke-width=".239" transform="scale(-1,1)"/><rect width=".529" height="3.175" x="-5.821" y="29.105" fill="#aeaeae" stroke-width=".239" transform="scale(-1,1)"/><rect width="3.175" height="3.175" x="1.323" y="50.536" stroke="#aeaeae" stroke-width=".529"/><rect width="3.704" height=".529" x="-5.821" y="49.213" fill="#aeaeae" stroke-width=".239" transform="scale(-1,1)"/><rect width=".529" height="3.175" x="-5.821" y="49.742" fill="#aeaeae" stroke-width=".239" transform="scale(-1,1)"/><g><rect width="3.704" height=".529" x="-5.821" y="35.455" fill="#3096fa" stroke-width=".239" transform="scale(-1,1)"/><rect width=".529" height="3.175" x="-5.821" y="35.984" fill="#3096fa" stroke-width=".239" transform="scale(-1,1)"/><rect width="3.704" height=".529" x="-5.821" y="42.334" fill="#2979ff" stroke-width=".239" transform="scale(-1,1)"/><rect width=".529" height="3.175" x="-5.821" y="42.863" fill="#2979ff" stroke-width=".239" transform="scale(-1,1)"/></g></g></svg>