<svg xmlns="http://www.w3.org/2000/svg" id="bitmap:13-32" width="13" height="108" version="1.1" viewBox="0 0 3.44 28.575"><metadata/><g><path stroke-width=".265" d="m1.8529 2.2565-1.0504 0.91854-0.15005-0.13122 1.0504-0.91854z" transform="translate(.92519 1.0583)"/><path stroke-width=".265" d="m-0.11368 2.1167 1.0504 0.91854-0.15005 0.13122-1.0504-0.91854z" transform="translate(.92519 1.0583)"/><g stroke-width=".231"><g stroke-width=".231"><path fill="#3096fa" d="m-7.3868 19.44-0.91792 0.91767-0.13113-0.1311 0.91792-0.91767z" transform="translate(.92519 1.0583) matrix(1.1443 0 0 1 10.306 -10.039)"/><path fill="#3096fa" d="m-9.1055 19.299 0.91792 0.91767-0.13113 0.1311-0.91792-0.91767z" transform="translate(.92519 1.0583) matrix(1.1443 0 0 1 10.306 -10.039)"/><path fill="#2979ff" d="m-7.3868 26.583-0.91792 0.91854-0.13113-0.13122 0.91792-0.91854z" transform="translate(.92519 1.0583) matrix(1.1443 0 0 1 10.306 -10.039)"/><path fill="#2979ff" d="m-9.1055 26.443 0.91792 0.91854-0.13113 0.13122-0.91792-0.91854z" transform="translate(.92519 1.0583) matrix(1.1443 0 0 1 10.306 -10.039)"/></g><path fill="#aeaeae" d="m-7.3868 33.727-0.91792 0.91854-0.13113-0.13122 0.91792-0.91854z" transform="translate(.92519 1.0583) matrix(1.1443 0 0 1 10.306 -10.039)"/><path fill="#aeaeae" d="m-9.1055 33.587 0.91792 0.91854-0.13113 0.13122-0.91792-0.91854z" transform="translate(.92519 1.0583) matrix(1.1443 0 0 1 10.306 -10.039)"/></g></g></svg>