<svg xmlns="http://www.w3.org/2000/svg" id="bitmap:18-32" width="18" height="60" version="1.1" viewBox="0 0 4.762 15.875"><metadata/><g stroke-width=".265"><path d="m2.3918 2.8942 1.5769-1.6063-0.22528-0.22946-1.5769 1.6063z"/><path d="m0.79371 1.3041 1.5769 1.6063 0.22528-0.22946-1.5769-1.6063z"/><path fill="#3096fa" d="m2.3918 6.8629 1.5769-1.6063-0.22528-0.22946-1.5769 1.6063z"/><path fill="#3096fa" d="m0.79371 5.2729 1.5769 1.6063 0.22528-0.22946-1.5769-1.6063z"/><path fill="#fff" d="m2.3918 10.831 1.5769-1.6065-0.22528-0.22948-1.5769 1.6065z"/><path fill="#fff" d="m0.79371 9.2414 1.5769 1.6065 0.22528-0.22948-1.5769-1.6065z"/><path fill="#aeaeae" d="m2.3918 14.8 1.5769-1.6064-0.22528-0.22947-1.5769 1.6064z"/><path fill="#aeaeae" d="m0.79371 13.21 1.5769 1.6064 0.22528-0.22947-1.5769-1.6064z"/></g></svg>