<svg xmlns="http://www.w3.org/2000/svg" id="bitmap:30-32" width="30" height="120" version="1.1" viewBox="0 0 7.938 31.75"><metadata/><g stroke-width=".265"><path fill="#aeaeae" d="m3.3206 2.3812 0.24249 0.31977-0.78766 1.0409h2.7809v0.45358h-2.7809l0.78935 1.0409-0.24421 0.31977-1.2039-1.5875z" transform="matrix(-1,0,0,1,7.673,0)"/><path fill="#3096fa" d="m3.3206 10.319 0.24249 0.31977-0.78766 1.0409h2.7809v0.45358h-2.7809l0.78935 1.0409-0.24421 0.31977-1.2039-1.5875z" transform="matrix(-1,0,0,1,7.673,0)"/><path fill="#2979ff" d="m3.3206 18.256 0.24249 0.31977-0.78766 1.0409h2.7809v0.45358h-2.7809l0.78935 1.0409-0.24421 0.31977-1.2039-1.5875z" transform="matrix(-1,0,0,1,7.673,0)"/><path fill="#aeaeae" d="m3.3206 26.194 0.24249 0.31977-0.78766 1.0409h2.7809v0.45358h-2.7809l0.78935 1.0409-0.24421 0.31977-1.2039-1.5875z" transform="matrix(-1,0,0,1,7.673,0)"/></g></svg>