<svg xmlns="http://www.w3.org/2000/svg" id="bitmap:20-32" width="20" height="54" version="1.1" viewBox="0 0 5.292 14.288"><metadata/><g fill="#aeaeae" stroke-width=".265"><path d="m5.095 3.3882-1.3769-1.5755 0.1967-0.22509 1.3769 1.5755z"/><path d="m5.2778 3.1872-1.3769 1.5755-0.1967-0.22509 1.3769-1.5755z"/><path d="m3.2429 3.3882-1.377-1.5755 0.19672-0.22509 1.377 1.5755z"/><path d="m3.4257 3.1872-1.377 1.5755-0.19672-0.22509 1.377-1.5755z"/></g><g fill="#3096fa" stroke-width=".216"><path d="m4.4254 5.6092-1.377-1.0503 0.19672-0.15005 1.377 1.0503z" transform="matrix(1 0 0 1.5001 .66966 -.26328)"/><path d="m4.6083 5.4752-1.377 1.0503-0.19672-0.15005 1.377-1.0503z" transform="matrix(1 0 0 1.5001 .66966 -.26328)"/><path d="m2.5732 5.6092-1.377-1.0503 0.19672-0.15005 1.377 1.0503z" transform="matrix(1 0 0 1.5001 .66966 -.26328)"/><path d="m2.7561 5.4752-1.377 1.0503-0.19672-0.15005 1.377-1.0503z" transform="matrix(1 0 0 1.5001 .66966 -.26328)"/></g><g fill="#2979ff" stroke-width=".216"><path d="m4.9311 9.5095-1.3769-1.0503 0.1967-0.15005 1.3769 1.0503z" transform="matrix(1 0 0 1.5 .1639 -1.3508)"/><path d="m5.1139 9.3756-1.3769 1.0503-0.1967-0.15005 1.3769-1.0503z" transform="matrix(1 0 0 1.5 .1639 -1.3508)"/><path d="m3.079 9.5095-1.377-1.0503 0.19672-0.15005 1.377 1.0503z" transform="matrix(1 0 0 1.5 .1639 -1.3508)"/><path d="m3.2618 9.3756-1.377 1.0503-0.19672-0.15005 1.377-1.0503z" transform="matrix(1 0 0 1.5 .1639 -1.3508)"/></g></svg>