<svg xmlns="http://www.w3.org/2000/svg" id="bitmap:52-24" width="52" height="1040" fill="#000" version="1.1" viewBox="0 0 52 1040"><metadata/><rect width="52" height="1040" fill="#fff" fill-opacity=".984"/><g fill="none" stroke-width="1.053" transform="matrix(.95 0 0 .9499 .051376 .05137)"><path d="m2.9e-6 0h36.923v36.965h-36.923z"/><g stroke-width="4.211"><rect width="50.526" height="50.532" x="2.051" y="2.051" stroke="#aeaeae" rx="2.105" ry="2.106"/><rect width="50.526" height="50.532" x="2.051" y="166.28" stroke="#aeaeae" rx="2.105" ry="2.106"/><rect width="50.526" height="50.532" x="2.051" y="56.794" stroke="#3096fa" rx="2.105" ry="2.106"/></g><path d="m0.76923 39.275h36.923v36.965h-36.923z"/><rect width="50.526" height="50.532" x="2.051" y="111.54" stroke="#2979ff" stroke-width="4.211" rx="2.105" ry="2.106"/><path d="m64.211 340.04h36.923v36.965h-36.923z"/><path d="m64.98 379.31h36.923v36.965h-36.923z"/><path d="m3.5e-6 80.09h36.923v36.965h-36.923z"/><path d="m0.76923 119.36h36.923v36.965h-36.923z"/><path d="m0 160.18h36.923v36.965h-36.923z"/><path d="m64.98 202.61h36.923v36.965h-36.923z"/><path d="m4.1802e-6 80.009h36.923v36.965h-36.923z"/><path d="m0.76923 119.28h36.923v36.965h-36.923z"/><path d="m3.8669e-6 160.02h36.923v36.965h-36.923z"/><path d="m1.1538e-4 218.97h36.923v36.965h-36.923z"/><g stroke-width="4.211"><rect width="50.526" height="50.532" x="2.051" y="221.02" stroke="#aeaeae" rx="2.105" ry="2.106"/><rect width="50.526" height="50.532" x="2.051" y="385.25" stroke="#aeaeae" rx="2.105" ry="2.106"/><rect width="50.526" height="50.532" x="2.051" y="275.76" stroke="#3096fa" rx="2.105" ry="2.106"/></g><path d="m0.76934 258.25h36.923v36.965h-36.923z"/><rect width="50.526" height="50.532" x="2.051" y="330.51" stroke="#2979ff" stroke-width="4.211" rx="2.105" ry="2.106"/><path d="m1.1538e-4 299.06h36.923v36.965h-36.923z"/><path d="m0.76934 338.33h36.923v36.965h-36.923z"/><path d="m1.1238e-4 379.15h36.923v36.965h-36.923z"/><path d="m1.1638e-4 298.98h36.923v36.965h-36.923z"/><path d="m0.76934 338.25h36.923v36.965h-36.923z"/><path d="m1.1638e-4 378.99h36.923v36.965h-36.923z"/><path d="m-1.0846e-4 437.94h36.923v36.965h-36.923z"/><g stroke-width="4.211"><rect width="50.526" height="50.532" x="2.051" y="439.99" stroke="#aeaeae" rx="2.105" ry="2.106"/><rect width="50.526" height="50.532" x="2.051" y="604.22" stroke="#aeaeae" rx="2.105" ry="2.106"/><rect width="50.526" height="50.532" x="2.051" y="494.73" stroke="#3096fa" rx="2.105" ry="2.106"/></g><path d="m0.76912 477.22h36.923v36.965h-36.923z"/><rect width="50.526" height="50.532" x="2.051" y="549.48" stroke="#2979ff" stroke-width="4.211" rx="2.105" ry="2.106"/><path d="m-1.0846e-4 518.03h36.923v36.965h-36.923z"/><path d="m0.76912 557.3h36.923v36.965h-36.923z"/><path d="m-1.1146e-4 598.12h36.923v36.965h-36.923z"/><path d="m-1.0746e-4 517.95h36.923v36.965h-36.923z"/><path d="m0.76912 557.22h36.923v36.965h-36.923z"/><path d="m-1.0746e-4 597.96h36.923v36.965h-36.923z"/><path d="m3.5403e-6 656.91h36.923v36.965h-36.923z"/><g stroke-width="4.211"><rect width="50.526" height="50.532" x="2.051" y="658.96" stroke="#aeaeae" rx="2.105" ry="2.106"/><rect width="50.526" height="50.532" x="2.051" y="823.19" stroke="#aeaeae" rx="2.105" ry="2.106"/><rect width="50.526" height="50.532" x="2.051" y="713.71" stroke="#3096fa" rx="2.105" ry="2.106"/></g><path d="m0.76923 696.19h36.923v36.965h-36.923z"/><rect width="50.526" height="50.532" x="2.051" y="768.45" stroke="#2979ff" stroke-width="4.211" rx="2.105" ry="2.106"/><path d="m3.5403e-6 737h36.923v36.965h-36.923z"/><path d="m0.76923 776.27h36.923v36.965h-36.923z"/><path d="m5.4029e-7 817.09h36.923v36.965h-36.923z"/><path d="m4.5403e-6 736.92h36.923v36.965h-36.923z"/><path d="m0.76923 776.19h36.923v36.965h-36.923z"/><path d="m4.5403e-6 816.93h36.923v36.965h-36.923z"/><path d="m1.1755e-4 875.88h36.923v36.965h-36.923z"/><g stroke-width="4.211"><rect width="50.526" height="50.532" x="2.051" y="877.93" stroke="#aeaeae" rx="2.105" ry="2.106"/><rect width="50.526" height="50.532" x="2.051" y="1042.2" stroke="#aeaeae" rx="2.105" ry="2.106"/><rect width="50.526" height="50.532" x="2.051" y="932.68" stroke="#3096fa" rx="2.105" ry="2.106"/></g><path d="m0.76934 915.16h36.923v36.965h-36.923z"/><rect width="50.526" height="50.532" x="2.051" y="987.42" stroke="#2979ff" stroke-width="4.211" rx="2.105" ry="2.106"/><path d="m1.1755e-4 955.97h36.923v36.965h-36.923z"/><path d="m0.76934 995.24h36.923v36.965h-36.923z"/><path d="m1.1455e-4 1036.1h36.923v36.965h-36.923z"/><path d="m1.1855e-4 955.89h36.923v36.965h-36.923z"/><path d="m0.76934 995.16h36.923v36.965h-36.923z"/><path d="m1.1855e-4 1035.9h36.923v36.965h-36.923z"/><path d="m64.98 202.45h36.923v36.965h-36.923z"/><g><path fill="#000" stroke-width="3.684" d="m-83.444 650.16-2.9077-3.3928-11.528 13.451-11.528-13.451-2.9079 3.3928 11.528 13.451-11.528 13.451 2.9079 3.3928 11.528-13.451 11.528 13.451 2.9077-3.3928-11.528-13.451z" transform="matrix(1.1667 0 0 1 141.51 239.58)"/><g stroke-width="3.684"><path fill="#3096fa" d="m-83.444 704.91-2.9077-3.3928-11.528 13.451-11.528-13.451-2.9079 3.3928 11.528 13.451-11.528 13.451 2.9079 3.3928 11.528-13.451 11.528 13.451 2.9077-3.3928-11.528-13.451z" transform="matrix(1.1667 0 0 1 141.51 239.58)"/><path fill="#2979ff" d="m-83.444 759.65-2.9077-3.3928-11.528 13.451-11.528-13.451-2.9079 3.3928 11.528 13.451-11.528 13.451 2.9079 3.3928 11.528-13.451 11.528 13.451 2.9077-3.3928-11.528-13.451z" transform="matrix(1.1667 0 0 1 141.51 239.58)"/><path fill="#aeaeae" d="m-83.444 814.39-2.9077-3.3928-11.528 13.451-11.528-13.451-2.9079 3.3928 11.528 13.451-11.528 13.451 2.9079 3.3928 11.528-13.451 11.528 13.451 2.9077-3.3928-11.528-13.451z" transform="matrix(1.1667 0 0 1 141.51 239.58)"/></g></g></g><path stroke-width="1" d="m19.454 242.15-8.5909-8.776-2.8635 2.9252 11.454 11.701 24.546-25.075-2.8635-2.9252z"/><g stroke-width=".412"><path fill="#3096fa" d="m-50.633 146.99-4.5716-5.9986-1.5239 1.9996 6.0952 7.9984 13.062-17.139-1.5239-1.9996z" transform="matrix(1.8792 0 0 1.463 114.6 79.099)"/><path fill="#aeaeae" d="m-50.633 218.08-4.5716-5.9986-1.5239 1.9996 6.0952 7.9984 13.062-17.139-1.5239-1.9996z" transform="matrix(1.8792 0 0 1.463 114.6 79.099)"/><path fill="#2979ff" d="m-50.633 182.54-4.5716-5.9986-1.5239 1.9996 6.0952 7.9984 13.062-17.139-1.5239-1.9996z" transform="matrix(1.8792 0 0 1.463 114.6 79.099)"/></g><path stroke-width="1" d="m19.454 658.22-8.5909-8.776-2.8635 2.9252 11.454 11.701 24.546-25.075-2.8635-2.9252z"/><g stroke-width=".412"><path fill="#3096fa" d="m-50.633 146.99-4.5716-5.9986-1.5239 1.9996 6.0952 7.9984 13.062-17.139-1.5239-1.9996z" transform="matrix(1.8792 0 0 1.463 114.6 495.17)"/><path fill="#aeaeae" d="m-50.633 218.08-4.5716-5.9986-1.5239 1.9996 6.0952 7.9984 13.062-17.139-1.5239-1.9996z" transform="matrix(1.8792 0 0 1.463 114.6 495.17)"/><path fill="#2979ff" d="m-50.633 182.54-4.5716-5.9986-1.5239 1.9996 6.0952 7.9984 13.062-17.139-1.5239-1.9996z" transform="matrix(1.8792 0 0 1.463 114.6 495.17)"/></g><path d="m8 440h36v4h-36z"/><g stroke-width=".412"><path fill="#3096fa" d="m-83.505 236.07h19.157v2.7341h-19.157z" transform="matrix(1.8792 0 0 1.463 164.92 146.62)"/><path fill="#2979ff" d="m-83.505 271.62h19.157v2.7341h-19.157z" transform="matrix(1.8792 0 0 1.463 164.92 146.62)"/><path fill="#aeaeae" d="m-83.505 307.16h19.157v2.7341h-19.157z" transform="matrix(1.8792 0 0 1.463 164.92 146.62)"/></g></svg>