<svg xmlns="http://www.w3.org/2000/svg" id="bitmap:16-32" width="16" height="128" version="1.1" viewBox="0 0 16 128"><metadata/><g fill="none"><g fill="#fff"><circle cx="8" cy="8" r="7.5" stroke="#aeaeae"/><circle cx="8" cy="24" r="7.5" stroke="#3096fa"/><circle cx="8" cy="40" r="7.5" stroke="#2979ff"/></g><circle cx="8" cy="56" r="7.5" stroke="#aeaeae"/><g fill="#fff"><circle cx="8" cy="72" r="7.5" stroke="#aeaeae"/><circle cx="8" cy="88" r="7.5" stroke="#3096fa"/><circle cx="8" cy="104" r="7.5" stroke="#2979ff"/></g><circle cx="8" cy="120" r="7.5" stroke="#aeaeae"/></g><path d="m13 72a5 5 0 0 1-5 5 5 5 0 0 1-5-5 5 5 0 0 1 5-5 5 5 0 0 1 5 5z"/><path fill="#3096fa" stroke="#3096fa" d="m12.5 88a4.5 4.5 0 0 1-4.5 4.5 4.5 4.5 0 0 1-4.5-4.5 4.5 4.5 0 0 1 4.5-4.5 4.5 4.5 0 0 1 4.5 4.5z"/><path fill="#2979ff" d="m13 104a5 5 0 0 1-5 5 5 5 0 0 1-5-5 5 5 0 0 1 5-5 5 5 0 0 1 5 5z"/><path fill="#aeaeae" d="m13 120a5 5 0 0 1-5 5 5 5 0 0 1-5-5 5 5 0 0 1 5-5 5 5 0 0 1 5 5z"/></svg>