<svg xmlns="http://www.w3.org/2000/svg" id="bitmap:23-32" width="23" height="184" version="1.1" viewBox="0 0 6.085 48.684"><rect width="3.969" height=".265" x="-5.027" y="4.763" fill="#aeaeae" transform="scale(-1,1)"/><g stroke-width="1.133" transform="matrix(.88235 0 0 1 .35802 .79377)"><rect width="4.498" height=".265" x="-5.292" y="22.225" fill="#aeaeae" transform="scale(-1,1)"/><rect width="4.498" height=".265" x="-5.292" y="10.054" fill="#3096fa" transform="scale(-1,1)"/><rect width="4.498" height=".265" x="-5.292" y="16.14" fill="#2979ff" transform="scale(-1,1)"/></g><rect width="3.969" height=".265" x="-5.027" y="29.105" fill="#aeaeae" transform="scale(-1,1)"/><g stroke-width="1.133" transform="matrix(.88235 0 0 1 .35802 .79377)"><rect width="4.498" height=".265" x="-5.292" y="46.567" fill="#aeaeae" transform="scale(-1,1)"/><rect width="4.498" height=".265" x="-5.292" y="34.396" fill="#3096fa" transform="scale(-1,1)"/><rect width="4.498" height=".265" x="-5.292" y="40.482" fill="#2979ff" transform="scale(-1,1)"/></g></svg>