<svg xmlns="http://www.w3.org/2000/svg" id="bitmap:20-32" width="20" height="60" version="1.1" viewBox="0 0 5.292 15.875"><metadata/><g stroke-width=".265"><path fill="#aeaeae" d="m5.2916 0.53295-0.53293-0.53295-2.1129 2.1129-2.1129-2.1129-0.53294 0.53295 2.1129 2.1129-2.1129 2.1129 0.53294 0.53295 2.1129-2.1129 2.1129 2.1129 0.53293-0.53295-2.1129-2.1129z"/><path fill="#ff1744" d="m5.2916 5.8246-0.53293-0.53295-2.1129 2.1129-2.1129-2.1129-0.53294 0.53295 2.1129 2.1129-2.1129 2.1129 0.53294 0.53295 2.1129-2.1129 2.1129 2.1129 0.53293-0.53295-2.1129-2.1129z"/><path fill="#d50000" d="m5.2916 11.116-0.53293-0.53295-2.1129 2.1129-2.1129-2.1129-0.53294 0.53295 2.1129 2.1129-2.1129 2.1129 0.53294 0.53295 2.1129-2.1129 2.1129 2.1129 0.53293-0.53295-2.1129-2.1129z"/></g></svg>