<svg xmlns="http://www.w3.org/2000/svg" id="bitmap:17-32" width="17" height="52" version="1.1" viewBox="0 0 4.498 13.758"><metadata/><g stroke-width=".265"><path fill="none" d="m0-1.8521h6.35v6.35h-6.35z"/><path fill="none" d="m0 3.7042h6.35v6.35h-6.35z"/><path stroke-width=".265" d="m0 0.84504 2.2374 2.0653 0.31962-0.29504-2.2374-2.0653z"/><path stroke-width=".265" d="m4.1782 0.52915-2.2374 2.0653 0.31962 0.29504 2.2374-2.0653z"/></g><g><g stroke-width=".12"><path fill="#3096fa" d="m-0.14935 2.6972 0.92136 2.0652 0.13162-0.29501-0.92136-2.0652z" transform="matrix(2.4286 0 0 1 .15208 1.5687) translate(.086725 .018767)"/><path fill="#3096fa" d="m1.5711 2.3812-0.92136 2.0652 0.13162 0.29501 0.92136-2.0652z" transform="matrix(2.4286 0 0 1 .15208 1.5687) translate(.086725 .018767)"/><path fill="#fff" d="m-0.14935 6.1358 0.92136 2.0661 0.13162-0.29517-0.92136-2.0661z" transform="matrix(2.4286 0 0 1 .15208 1.5687) translate(.086725 .018767)"/><path fill="#fff" d="m1.5711 5.8207-0.92136 2.0661 0.13162 0.29517 0.92136-2.0661z" transform="matrix(2.4286 0 0 1 .15208 1.5687) translate(.086725 .018767)"/></g><path fill="#aeaeae" stroke-width=".6" d="m-0.062621 9.5942 0.92136 2.066 0.13162-0.29514-0.92136-2.066z" transform="matrix(2.4286 0 0 1 .15208 1.5687)"/><path fill="#aeaeae" stroke-width=".6" d="m1.6578 9.2789-0.92136 2.066 0.13162 0.29514 0.92136-2.066z" transform="matrix(2.4286 0 0 1 .15208 1.5687)"/></g></svg>