<svg xmlns="http://www.w3.org/2000/svg" id="bitmap:10-32" width="10" height="40" version="1.1" viewBox="0 0 2.646 10.583"><g fill="none" stroke-width=".265" transform="matrix(.99998 0 0 .99998 1.3229 -.52926)"><rect width="1.323" height="1.323" x="-.926" y="1.72" stroke="#aeaeae"/><rect width="1.323" height="1.323" x="-.926" y="4.366" stroke="#3096fa"/><rect width="1.323" height="1.323" x="-.926" y="7.012" stroke="#2979ff"/></g><rect width="1.587" height=".265" x="-2.381" y=".529" fill="#aeaeae" stroke-width=".239" transform="scale(-1,1)"/><rect width=".265" height="1.323" x="-2.381" y=".794" fill="#aeaeae" stroke-width=".239" transform="scale(-1,1)"/><rect width="1.323" height="1.323" x=".397" y="9.128" fill="none" stroke="#aeaeae" stroke-width=".265"/><g stroke-width=".239"><rect width="1.587" height=".265" x="-2.381" y="8.466" fill="#aeaeae" transform="scale(-1,1)"/><rect width=".265" height="1.323" x="-2.381" y="8.731" fill="#aeaeae" transform="scale(-1,1)"/><g transform="matrix(.99998 0 0 .99998 1.3229 -.52926)"><rect width="1.587" height=".265" x="-1.058" y="3.704" fill="#3096fa" transform="scale(-1,1)"/><rect width=".265" height="1.323" x="-1.058" y="3.969" fill="#3096fa" transform="scale(-1,1)"/><rect width="1.587" height=".265" x="-1.058" y="6.35" fill="#2979ff" transform="scale(-1,1)"/><rect width=".265" height="1.323" x="-1.058" y="6.615" fill="#2979ff" transform="scale(-1,1)"/></g></g></svg>