<svg xmlns="http://www.w3.org/2000/svg" id="bitmap:14-32" width="14" height="40" version="1.1" viewBox="0 0 3.704 10.583"><metadata/><g stroke-width=".265"><path fill="none" d="m0-1.8521h6.35v6.35h-6.35z"/><path fill="none" d="m0 3.7042h6.35v6.35h-6.35z"/><path stroke-width=".265" d="m0.26458 0.77485 1.711 1.6064 0.24442-0.22948-1.711-1.6064z"/><path stroke-width=".265" d="m3.4597 0.52915-1.711 1.6064 0.24442 0.22948 1.711-1.6064z"/></g><g><g stroke-width=".158"><path fill="#3096fa" d="m-0.0404 1.8333 0.92136 1.6063 0.13162-0.22946-0.92136-1.6063z" transform="matrix(1.8572 0 0 1 .17855 1.5687) translate(.086725 .018767)"/><path fill="#3096fa" d="m1.68 1.5875-0.92136 1.6063 0.13162 0.22946 0.92136-1.6063z" transform="matrix(1.8572 0 0 1 .17855 1.5687) translate(.086725 .018767)"/><path fill="#fff" d="m-0.0404 4.4784 0.92136 1.607 0.13162-0.22958-0.92136-1.607z" transform="matrix(1.8572 0 0 1 .17855 1.5687) translate(.086725 .018767)"/><path fill="#fff" d="m1.68 4.2333-0.92136 1.607 0.13162 0.22958 0.92136-1.607z" transform="matrix(1.8572 0 0 1 .17855 1.5687) translate(.086725 .018767)"/></g><path fill="#aeaeae" stroke-width=".686" d="m0.046325 7.1431 0.92136 1.6069 0.13162-0.22956-0.92136-1.6069z" transform="matrix(1.8572 0 0 1 .17855 1.5687)"/><path fill="#aeaeae" stroke-width=".686" d="m1.7667 6.8979-0.92136 1.6069 0.13162 0.22956 0.92136-1.6069z" transform="matrix(1.8572 0 0 1 .17855 1.5687)"/></g></svg>