<svg xmlns="http://www.w3.org/2000/svg" id="bitmap:21-32" width="21" height="72" version="1.1" viewBox="0 0 5.556 19.05"><metadata/><g stroke-width=".265"><path d="m2.7913 3.6833 1.9711-2.0654-0.2816-0.29504-1.9711 2.0654z" transform="translate(0 -.26457)"/><path d="m0.79369 1.6387 1.9711 2.0654 0.2816-0.29504-1.9711-2.0654z" transform="translate(0 -.26457)"/><path fill="#3096fa" d="m2.7913 8.4457 1.9711-2.0653-0.2816-0.29502-1.9711 2.0653z" transform="translate(0 -.26457)"/><path fill="#3096fa" d="m0.79369 6.4014 1.9711 2.0653 0.2816-0.29502-1.9711-2.0653z" transform="translate(0 -.26457)"/><path fill="#fff" d="m2.7913 13.208 1.9711-2.0652-0.2816-0.295-1.9711 2.0652z" transform="translate(0 -.26457)"/><path fill="#fff" d="m0.79369 11.164 1.9711 2.0652 0.2816-0.295-1.9711-2.0652z" transform="translate(0 -.26457)"/><path fill="#aeaeae" d="m2.7913 17.971 1.9711-2.0652-0.2816-0.295-1.9711 2.0652z" transform="translate(0 -.26457)"/><path fill="#aeaeae" d="m0.79369 15.927 1.9711 2.0652 0.2816-0.295-1.9711-2.0652z" transform="translate(0 -.26457)"/></g></svg>