<svg xmlns="http://www.w3.org/2000/svg" id="bitmap:28-32" width="28" height="96" version="1.1" viewBox="0 0 7.408 25.4"><metadata/><g stroke-width=".265"><path d="m3.7217 4.4725 2.6282-2.5244-0.37547-0.36061-2.6282 2.5244z"/><path d="m1.0582 1.9735 2.6282 2.5244 0.37547-0.36061-2.6282-2.5244z"/><g><path fill="#3096fa" d="m3.7217 11.087 2.6282-2.5242-0.37547-0.36057-2.6282 2.5242z" transform="translate(0 -.2646)"/><path fill="#3096fa" d="m1.0582 8.5883 2.6282 2.5242 0.37547-0.36057-2.6282-2.5242z" transform="translate(0 -.2646)"/><path fill="#fff" d="m3.7217 17.437 2.6282-2.524-0.37547-0.36053-2.6282 2.524z" transform="translate(0 -.2646)"/><path fill="#fff" d="m1.0582 14.939 2.6282 2.524 0.37547-0.36053-2.6282-2.524z" transform="translate(0 -.2646)"/><path fill="#aeaeae" d="m3.7217 23.787 2.6282-2.524-0.37547-0.36053-2.6282 2.524z" transform="translate(0 -.2646)"/><path fill="#aeaeae" d="m1.0582 21.289 2.6282 2.524 0.37547-0.36053-2.6282-2.524z" transform="translate(0 -.2646)"/></g></g></svg>