<svg xmlns="http://www.w3.org/2000/svg" id="bitmap:27-32" width="27" height="80" version="1.1" viewBox="0 0 7.144 21.167"><metadata/><g stroke-width=".265"><path fill="none" d="m0-1.8521h6.35v6.35h-6.35z"/><g stroke-width=".265"><path fill="none" d="m0 3.7042h6.3501v6.35h-6.3501z"/><path d="m0.26449 1.5146 3.2904 2.9833 0.47003-0.42617-3.2904-2.9833z"/><path d="m6.409 1.0583-3.2904 2.9833 0.47003 0.42617 3.2904-2.9833z"/></g></g><g><g stroke-width=".082"><path fill="#3096fa" d="m-0.075292 5.2191 0.92136 2.983 0.13162-0.42613-0.92136-2.983z" transform="matrix(3.5715 0 0 1 .22365 1.5687) translate(.086725 .018767)"/><path fill="#3096fa" d="m1.6452 4.7625-0.92136 2.983 0.13162 0.42613 0.92136-2.983z" transform="matrix(3.5715 0 0 1 .22365 1.5687) translate(.086725 .018767)"/><path fill="#fff" d="m-0.075292 10.509 0.92136 2.9844 0.13162-0.42637-0.92136-2.9844z" transform="matrix(3.5715 0 0 1 .22365 1.5687) translate(.086725 .018767)"/><path fill="#fff" d="m1.6452 10.054-0.92136 2.9844 0.13162 0.42637 0.92136-2.9844z" transform="matrix(3.5715 0 0 1 .22365 1.5687) translate(.086725 .018767)"/></g><path fill="#aeaeae" stroke-width=".495" d="m0.011433 15.821 0.92136 2.9835 0.13162-0.42621-0.92136-2.9835z" transform="matrix(3.5715 0 0 1 .22365 1.5687)"/><path fill="#aeaeae" stroke-width=".495" d="m1.7319 15.365-0.92136 2.9835 0.13162 0.42621 0.92136-2.9835z" transform="matrix(3.5715 0 0 1 .22365 1.5687)"/></g></svg>