<svg xmlns="http://www.w3.org/2000/svg" id="bitmap:19-32" width="19" height="152" version="1.1" viewBox="0 0 19 152"><metadata/><g fill="none" stroke-width=".834" transform="matrix(1.2106 0 0 1.189 -.18477 -.17782)"><g><ellipse cx="8" cy="8.14" fill="#fffff9" stroke="#aeaeae" rx="7.431" ry="7.573"/><ellipse cx="8" cy="24.12" fill="#fff" stroke="#3096fa" rx="7.431" ry="7.573"/><ellipse cx="8" cy="40.1" fill="#fff" stroke="#2979ff" rx="7.431" ry="7.573"/></g><ellipse cx="8" cy="56.08" stroke="#aeaeae" rx="7.431" ry="7.573"/><g fill="#fff"><ellipse cx="8" cy="72.06" stroke="#aeaeae" rx="7.431" ry="7.573"/><ellipse cx="8" cy="88.04" stroke="#3096fa" rx="7.431" ry="7.573"/><ellipse cx="8" cy="104.02" stroke="#2979ff" rx="7.431" ry="7.573"/></g><ellipse cx="8" cy="120" stroke="#aeaeae" rx="7.431" ry="7.573"/></g><path stroke-width="1" d="m15 85.5a5.5 5.5 0 0 1-5.5 5.5 5.5 5.5 0 0 1-5.5-5.5 5.5 5.5 0 0 1 5.5-5.5 5.5 5.5 0 0 1 5.5 5.5z"/><g><path fill="#3096fa" stroke="#3096fa" stroke-width=".762" d="m12.967 88.044a5 4.2482 0 0 1-5 4.2482 5 4.2482 0 0 1-5-4.2482 5 4.2482 0 0 1 5-4.2482 5 4.2482 0 0 1 5 4.2482z" transform="matrix(1.0159 0 0 1.1881 1.3728 -.10631)"/><path fill="#2979ff" stroke-width=".762" d="m13.414 104.04a5.414 4.6292 0 0 1-5.414 4.6292 5.414 4.6292 0 0 1-5.414-4.6292 5.414 4.6292 0 0 1 5.414-4.6292 5.414 4.6292 0 0 1 5.414 4.6292z" transform="matrix(1.0159 0 0 1.1881 1.3728 -.10631)"/><path fill="#aeaeae" stroke-width=".762" d="m13.414 120.03a5.414 4.6292 0 0 1-5.414 4.6292 5.414 4.6292 0 0 1-5.414-4.6292 5.414 4.6292 0 0 1 5.414-4.6292 5.414 4.6292 0 0 1 5.414 4.6292z" transform="matrix(1.0159 0 0 1.1881 1.3728 -.10631)"/></g></svg>