<svg xmlns="http://www.w3.org/2000/svg" id="bitmap:9-32" width="9" height="20" version="1.1" viewBox="0 0 2.381 5.292"><metadata/><g stroke-width=".265"><path fill="none" d="m0-1.8521h6.35v6.35h-6.35z"/><path fill="none" d="m0 3.7042h6.35v6.35h-6.35z"/><path stroke-width=".265" d="m0 0.1755 1.1846 1.1474 0.16922-0.16392-1.1846-1.1474z"/><path stroke-width=".265" d="m2.212-2.65e-6 -1.1846 1.1474 0.16922 0.16392 1.1846-1.1474z"/></g><g stroke-width=".943"><path fill="#3096fa" stroke-width=".206" d="m-0.0404 1.4985 0.92136 1.1473 0.13162-0.1639-0.92136-1.1473z" transform="matrix(1.2857 0 0 1 .051943 0)"/><path fill="#3096fa" stroke-width=".206" d="m1.68 1.3229-0.92136 1.1473 0.13162 0.1639 0.92136-1.1473z" transform="matrix(1.2857 0 0 1 .051943 0)"/><path fill="#fff" stroke-width=".206" d="m-0.0404 2.8209 0.92136 1.1478 0.13162-0.16398-0.92136-1.1478z" transform="matrix(1.2857 0 0 1 .051943 0)"/><path fill="#fff" stroke-width=".206" d="m1.68 2.6458-0.92136 1.1478 0.13162 0.16398 0.92136-1.1478z" transform="matrix(1.2857 0 0 1 .051943 0)"/><path fill="#aeaeae" stroke-width=".825" d="m-0.0404 4.1438 0.92136 1.1478 0.13162-0.16398-0.92136-1.1478z" transform="matrix(1.2857 0 0 1 .051943 0)"/><path fill="#aeaeae" stroke-width=".825" d="m1.68 3.9687-0.92136 1.1478 0.13162 0.16398 0.92136-1.1478z" transform="matrix(1.2857 0 0 1 .051943 0)"/></g></svg>