<svg xmlns="http://www.w3.org/2000/svg" id="bitmap:45-32" width="45" height="180" version="1.1" viewBox="0 0 11.906 47.625"><metadata/><g stroke-width=".265"><path fill="#aeaeae" d="m5.0271 3.7042 0.37305 0.45302-1.2118 1.4747h4.2782v0.64259h-4.2782l1.2144 1.4747-0.3757 0.45302-1.8521-2.249z"/><path fill="#3096fa" d="m5.0271 15.611 0.37305 0.45302-1.2118 1.4747h4.2782v0.64259h-4.2782l1.2144 1.4747-0.3757 0.45302-1.8521-2.249z"/><path fill="#2979ff" d="m5.0271 27.517 0.37305 0.45302-1.2118 1.4747h4.2782v0.64259h-4.2782l1.2144 1.4747-0.3757 0.45302-1.8521-2.249z"/><path fill="#aeaeae" d="m5.0271 39.423 0.37305 0.45302-1.2118 1.4747h4.2782v0.64259h-4.2782l1.2144 1.4747-0.3757 0.45302-1.8521-2.249z"/></g></svg>