<svg xmlns="http://www.w3.org/2000/svg" id="bitmap:60-32" width="60" height="300" version="1.1" viewBox="0 0 15.875 79.376"><metadata/><g stroke-width=".066"><path fill="#3096fa" d="m4.7625 2.1167-0.37306 0.37306 1.2118 1.2144h-4.2783v0.52917h4.2783l-1.2144 1.2144 0.37571 0.37306 1.8521-1.8521z" transform="matrix(2 0 0 2 -.00011333 -1.3333e-5)"/><path fill="#3096fa" d="m4.7625 10.054-0.37306 0.37306 1.2118 1.2144h-4.2783v0.52917h4.2783l-1.2144 1.2144 0.37571 0.37306 1.8521-1.8521z" transform="matrix(2 0 0 2 -.00011333 -1.3333e-5)"/><path fill="#2979ff" d="m4.7625 17.992-0.37306 0.37306 1.2118 1.2144h-4.2783v0.52917h4.2783l-1.2144 1.2144 0.37571 0.37306 1.8521-1.8521z" transform="matrix(2 0 0 2 -.00011333 -1.3333e-5)"/><path fill="#aeaeae" d="m4.7625 25.929-0.37306 0.37306 1.2118 1.2144h-4.2783v0.52917h4.2783l-1.2144 1.2144 0.37571 0.37306 1.8521-1.8521z" transform="matrix(2 0 0 2 -.00011333 -1.3333e-5)"/><path fill="#3096fa" d="m4.7625 33.867-0.37306 0.37306 1.2118 1.2144h-4.2783v0.52917h4.2783l-1.2144 1.2144 0.37571 0.37306 1.8521-1.8521z" transform="matrix(2 0 0 2 -.00011333 -1.3333e-5)"/></g></svg>