<svg xmlns="http://www.w3.org/2000/svg" id="bitmap:7-32" width="7" height="16" version="1.1" viewBox="0 0 1.852 4.233"><metadata/><g stroke-width=".265"><path d="m0.93223 1.049 0.91987-0.91787-0.13141-0.13112-0.91987 0.91787z"/><path d="m0 0.1405 0.91987 0.91787 0.13141-0.13112-0.91987-0.91787z"/><path fill="#3096fa" d="m0.93223 2.1074 0.91987-0.91792-0.13141-0.13113-0.91987 0.91792z"/><path fill="#3096fa" d="m0 1.1988 0.91987 0.91792 0.13141-0.13113-0.91987-0.91792z"/><path fill="#fff" d="m0.93223 3.1657 0.91987-0.91792-0.13141-0.13113-0.91987 0.91792z"/><path fill="#fff" d="m0 2.2571 0.91987 0.91792 0.13141-0.13113-0.91987-0.91792z"/><path fill="#aeaeae" d="m0.93223 4.2242 0.91987-0.91802-0.13141-0.13115-0.91987 0.91802z"/><path fill="#aeaeae" d="m0 3.3154 0.91987 0.91802 0.13141-0.13115-0.91987-0.91802z"/></g></svg>