<svg xmlns="http://www.w3.org/2000/svg" id="bitmap:19-32" width="19" height="152" version="1.1" viewBox="0 0 5.027 40.217"><g stroke-width=".265"><path fill="#aeaeae" d="m4.2334 1.1402-0.34641-0.34642-1.3734 1.3734-1.3734-1.3734-0.34642 0.34642 1.3734 1.3734-1.3734 1.3734 0.34642 0.34642 1.3734-1.3734 1.3734 1.3734 0.34641-0.34642-1.3734-1.3734z"/><path fill="#aeaeae" d="m4.2334 16.222-0.34641-0.34642-1.3734 1.3734-1.3734-1.3734-0.34642 0.34642 1.3734 1.3734-1.3734 1.3734 0.34642 0.34642 1.3734-1.3734 1.3734 1.3734 0.34641-0.34642-1.3734-1.3734z"/><path fill="#ff1744" d="m4.2334 6.1673-0.34641-0.34642-1.3734 1.3734-1.3734-1.3734-0.34642 0.34642 1.3734 1.3734-1.3734 1.3734 0.34642 0.34642 1.3734-1.3734 1.3734 1.3734 0.34641-0.34642-1.3734-1.3734z"/><path fill="#d50000" d="m4.2334 11.194-0.34641-0.34642-1.3734 1.3734-1.3734-1.3734-0.34642 0.34642 1.3734 1.3734-1.3734 1.3734 0.34642 0.34642 1.3734-1.3734 1.3734 1.3734 0.34641-0.34642-1.3734-1.3734z"/><path fill="#aeaeae" d="m4.2334 21.249-0.34641-0.34642-1.3734 1.3734-1.3734-1.3734-0.34642 0.34642 1.3734 1.3734-1.3734 1.3734 0.34642 0.34642 1.3734-1.3734 1.3734 1.3734 0.34641-0.34642-1.3734-1.3734z"/><path fill="#aeaeae" d="m4.2334 36.33-0.34641-0.34642-1.3734 1.3734-1.3734-1.3734-0.34642 0.34642 1.3734 1.3734-1.3734 1.3734 0.34642 0.34642 1.3734-1.3734 1.3734 1.3734 0.34641-0.34642-1.3734-1.3734z"/><path fill="#ff1744" d="m4.2334 26.276-0.34641-0.34642-1.3734 1.3734-1.3734-1.3734-0.34642 0.34642 1.3734 1.3734-1.3734 1.3734 0.34642 0.34642 1.3734-1.3734 1.3734 1.3734 0.34641-0.34642-1.3734-1.3734z"/><path fill="#d50000" d="m4.2334 31.303-0.34641-0.34642-1.3734 1.3734-1.3734-1.3734-0.34642 0.34642 1.3734 1.3734-1.3734 1.3734 0.34642 0.34642 1.3734-1.3734 1.3734 1.3734 0.34641-0.34642-1.3734-1.3734z"/></g></svg>