<svg xmlns="http://www.w3.org/2000/svg" id="bitmap:62-32" width="62" height="38" version="1.1" viewBox="0 0 16.404 10.054"><g fill="#fff"><g><rect width="16.404" height=".794" x="0" y="0"/><rect width="16.404" height=".794" x="0" y="5.027"/><rect width=".794" height="4.233" x="0" y=".794"/></g><rect width=".529" height=".265" x=".794" y=".794"/><g><rect width=".794" height="4.233" x="0" y="5.821"/><rect width=".794" height="4.233" x="15.61" y="5.821"/><rect width=".794" height="4.233" x="15.61" y=".794"/><rect width=".265" height=".265" x=".794" y="1.058"/></g><rect width=".529" height=".265" x=".794" y="5.821"/><rect width=".265" height=".265" x=".794" y="6.085"/><rect width=".529" height=".265" x="-15.61" y="5.821" transform="scale(-1,1)"/><rect width=".265" height=".265" x="-15.61" y="6.085" transform="scale(-1,1)"/><rect width=".529" height=".265" x="-15.61" y=".794" transform="scale(-1,1)"/><rect width=".265" height=".265" x="-15.61" y="1.058" transform="scale(-1,1)"/></g></svg>