<svg xmlns="http://www.w3.org/2000/svg" id="bitmap:32-32" width="32" height="256" version="1.1" viewBox="0 0 8.466 67.733"><metadata/><g fill="#bdbdbd" stroke-width="0" transform="matrix(2 0 0 2 -1.8779e-5 -.52927)"><rect width=".529" height=".529" x="3.175" y="3.44"/><rect width=".529" height=".529" x="2.381" y="3.44"/><rect width=".529" height=".529" x="1.587" y="3.44"/><rect width=".529" height=".529" x="2.381" y="2.646"/><rect width=".529" height=".529" x="3.175" y="2.646"/><rect width=".529" height=".529" x="3.175" y="1.852"/><rect width=".529" height=".529" x="-1.058" y="7.673" transform="scale(-1,1)"/><rect width=".529" height=".529" x="-1.852" y="7.673" transform="scale(-1,1)"/><rect width=".529" height=".529" x="-2.646" y="7.673" transform="scale(-1,1)"/><rect width=".529" height=".529" x="-1.852" y="6.879" transform="scale(-1,1)"/><rect width=".529" height=".529" x="-1.058" y="6.879" transform="scale(-1,1)"/><rect width=".529" height=".529" x="-1.058" y="6.085" transform="scale(-1,1)"/><rect width=".529" height=".529" x="3.175" y="-9.79" transform="scale(1,-1)"/><rect width=".529" height=".529" x="2.381" y="-9.79" transform="scale(1,-1)"/><rect width=".529" height=".529" x="1.587" y="-9.79" transform="scale(1,-1)"/><rect width=".529" height=".529" x="2.381" y="-10.583" transform="scale(1,-1)"/><rect width=".529" height=".529" x="3.175" y="-10.583" transform="scale(1,-1)"/><rect width=".529" height=".529" x="3.175" y="-11.377" transform="scale(1,-1)"/><rect width=".529" height=".529" x="-1.058" y="-14.023" transform="scale(-1)"/><rect width=".529" height=".529" x="-1.852" y="-14.023" transform="scale(-1)"/><rect width=".529" height=".529" x="-2.646" y="-14.023" transform="scale(-1)"/><rect width=".529" height=".529" x="-1.852" y="-14.817" transform="scale(-1)"/><rect width=".529" height=".529" x="-1.058" y="-14.817" transform="scale(-1)"/><rect width=".529" height=".529" x="-1.058" y="-15.61" transform="scale(-1)"/><rect width=".529" height=".529" x="3.175" y="20.373"/><rect width=".529" height=".529" x="2.381" y="20.373"/><rect width=".529" height=".529" x="1.587" y="20.373"/><rect width=".529" height=".529" x="2.381" y="19.579"/><rect width=".529" height=".529" x="3.175" y="19.579"/><rect width=".529" height=".529" x="3.175" y="18.785"/><rect width=".529" height=".529" x="-1.058" y="24.606" transform="scale(-1,1)"/><rect width=".529" height=".529" x="-1.852" y="24.606" transform="scale(-1,1)"/><rect width=".529" height=".529" x="-2.646" y="24.606" transform="scale(-1,1)"/><rect width=".529" height=".529" x="-1.852" y="23.812" transform="scale(-1,1)"/><rect width=".529" height=".529" x="-1.058" y="23.812" transform="scale(-1,1)"/><rect width=".529" height=".529" x="-1.058" y="23.019" transform="scale(-1,1)"/><rect width=".529" height=".529" x="3.175" y="-26.723" transform="scale(1,-1)"/><rect width=".529" height=".529" x="2.381" y="-26.723" transform="scale(1,-1)"/><rect width=".529" height=".529" x="1.587" y="-26.723" transform="scale(1,-1)"/><rect width=".529" height=".529" x="2.381" y="-27.517" transform="scale(1,-1)"/><rect width=".529" height=".529" x="3.175" y="-27.517" transform="scale(1,-1)"/><rect width=".529" height=".529" x="3.175" y="-28.31" transform="scale(1,-1)"/><rect width=".529" height=".529" x="-1.058" y="-30.956" transform="scale(-1)"/><rect width=".529" height=".529" x="-1.852" y="-30.956" transform="scale(-1)"/><rect width=".529" height=".529" x="-2.646" y="-30.956" transform="scale(-1)"/><rect width=".529" height=".529" x="-1.852" y="-31.75" transform="scale(-1)"/><rect width=".529" height=".529" x="-1.058" y="-31.75" transform="scale(-1)"/><rect width=".529" height=".529" x="-1.058" y="-32.544" transform="scale(-1)"/></g></svg>