<svg xmlns="http://www.w3.org/2000/svg" id="bitmap:24-32" width="24" height="72" version="1.1" viewBox="0 0 6.35 19.05"><metadata/><g stroke-width=".118"><path fill="#aeaeae" d="M 4.2332,0.42636 3.80686,0 2.11656,1.6903 0.42626,0 -9e-5,0.42636 1.69021,2.11666 -9e-5,3.80696 0.42626,4.23332 2.11656,2.54302 3.80686,4.23332 4.2332,3.80696 2.5429,2.11666 Z" transform="matrix(1.5,0,0,1.5,1.1e-4,0)"/><path fill="#ff1744" d="m4.2332 4.6597-0.42634-0.42636-1.6903 1.6903-1.6903-1.6903-0.42635 0.42636 1.6903 1.6903-1.6903 1.6903 0.42635 0.42636 1.6903-1.6903 1.6903 1.6903 0.42634-0.42636-1.6903-1.6903z" transform="matrix(1.5,0,0,1.5,1.1e-4,0)"/><path fill="#d50000" d="m4.2332 8.893-0.42634-0.42636-1.6903 1.6903-1.6903-1.6903-0.42635 0.42636 1.6903 1.6903-1.6903 1.6903 0.42635 0.42636 1.6903-1.6903 1.6903 1.6903 0.42634-0.42636-1.6903-1.6903z" transform="matrix(1.5,0,0,1.5,1.1e-4,0)"/></g></svg>