<svg xmlns="http://www.w3.org/2000/svg" id="bitmap:7-32" width="7" height="56" version="1.1" viewBox="0 0 1.852 14.817"><g stroke-width=".265"><path fill="#aeaeae" d="m1.5875 0.39783-0.13323-0.13324-0.52823 0.52823-0.52823-0.52823-0.13324 0.13324 0.52823 0.52823-0.52823 0.52823 0.13324 0.13324 0.52823-0.52823 0.52823 0.52823 0.13323-0.13324-0.52823-0.52823z"/><path fill="#aeaeae" d="m1.5875 5.9541-0.13323-0.13324-0.52823 0.52823-0.52823-0.52823-0.13324 0.13324 0.52823 0.52823-0.52823 0.52823 0.13324 0.13324 0.52823-0.52823 0.52823 0.52823 0.13323-0.13324-0.52823-0.52823z"/><path fill="#ff1744" d="m1.5875 2.2499-0.13323-0.13324-0.52823 0.52823-0.52823-0.52823-0.13324 0.13324 0.52823 0.52823-0.52823 0.52823 0.13324 0.13324 0.52823-0.52823 0.52823 0.52823 0.13323-0.13324-0.52823-0.52823z"/><path fill="#d50000" d="m1.5875 4.102-0.13323-0.13324-0.52823 0.52823-0.52823-0.52823-0.13324 0.13324 0.52823 0.52823-0.52823 0.52823 0.13324 0.13324 0.52823-0.52823 0.52823 0.52823 0.13323-0.13324-0.52823-0.52823z"/><path fill="#aeaeae" d="m1.5875 7.8062-0.13323-0.13324-0.52823 0.52823-0.52823-0.52823-0.13324 0.13324 0.52823 0.52823-0.52823 0.52823 0.13324 0.13324 0.52823-0.52823 0.52823 0.52823 0.13323-0.13324-0.52823-0.52823z"/><path fill="#aeaeae" d="m1.5875 13.363-0.13323-0.13324-0.52823 0.52823-0.52823-0.52823-0.13324 0.13324 0.52823 0.52823-0.52823 0.52823 0.13324 0.13324 0.52823-0.52823 0.52823 0.52823 0.13323-0.13324-0.52823-0.52823z"/><path fill="#ff1744" d="m1.5875 9.6584-0.13323-0.13324-0.52823 0.52823-0.52823-0.52823-0.13324 0.13324 0.52823 0.52823-0.52823 0.52823 0.13324 0.13324 0.52823-0.52823 0.52823 0.52823 0.13323-0.13324-0.52823-0.52823z"/><path fill="#d50000" d="m1.5875 11.51-0.13323-0.13324-0.52823 0.52823-0.52823-0.52823-0.13324 0.13324 0.52823 0.52823-0.52823 0.52823 0.13324 0.13324 0.52823-0.52823 0.52823 0.52823 0.13323-0.13324-0.52823-0.52823z"/></g></svg>