<svg xmlns="http://www.w3.org/2000/svg" id="bitmap:17-24" width="17" height="340" version="1.1" viewBox="0 0 4.498 89.959"><metadata/><rect width="4.498" height="89.959" x="0" fill="#fefefe"/><g stroke-width=".265"><g fill="#fefefe"><rect width="4.233" height="4.233" x=".132" y=".132" stroke="#aeaeae" rx=".529" ry=".529"/><g stroke="#3096fa"><rect width="4.233" height="4.233" x=".132" y="4.63" rx=".529" ry=".529"/><rect width="4.233" height="4.233" x=".132" y="72.099" rx=".529" ry=".529"/><rect width="4.233" height="4.233" x=".132" y="76.597" rx=".529" ry=".529"/><rect width="4.233" height="4.233" x=".132" y="81.095" rx=".529" ry=".529"/><rect width="4.233" height="4.233" x=".132" y="85.593" rx=".529" ry=".529"/></g></g><rect width="4.233" height="4.233" x=".132" y="9.128" fill="#2979ff" stroke="#2979ff" rx=".529" ry=".529"/><g fill="#fefefe"><rect width="4.233" height="4.233" x=".132" y="13.626" stroke="#aeaeae" rx=".529" ry=".529"/><rect width="4.233" height="4.233" x=".132" y="18.124" stroke="#aeaeae" rx=".529" ry=".529"/><rect width="4.233" height="4.233" x=".132" y="22.622" stroke="#3096fa" rx=".529" ry=".529"/></g><rect width="4.233" height="4.233" x=".132" y="27.12" fill="#2979ff" stroke="#2979ff" rx=".529" ry=".529"/><g fill="#fefefe"><rect width="4.233" height="4.233" x=".132" y="31.618" stroke="#aeaeae" rx=".529" ry=".529"/><rect width="4.233" height="4.233" x=".132" y="36.116" stroke="#aeaeae" rx=".529" ry=".529"/><rect width="4.233" height="4.233" x=".132" y="40.614" stroke="#3096fa" rx=".529" ry=".529"/></g><rect width="4.233" height="4.233" x=".132" y="45.111" fill="#2979ff" stroke="#2979ff" rx=".529" ry=".529"/><g fill="#fefefe"><rect width="4.233" height="4.233" x=".132" y="49.609" stroke="#aeaeae" rx=".529" ry=".529"/><rect width="4.233" height="4.233" x=".132" y="54.107" stroke="#aeaeae" rx=".529" ry=".529"/><rect width="4.233" height="4.233" x=".132" y="58.605" stroke="#3096fa" rx=".529" ry=".529"/></g><rect width="4.233" height="4.233" x=".132" y="63.103" fill="#2979ff" stroke="#2979ff" rx=".529" ry=".529"/><rect width="4.233" height="4.233" x=".132" y="67.601" fill="#fefefe" stroke="#aeaeae" rx=".529" ry=".529"/></g></svg>