<svg xmlns="http://www.w3.org/2000/svg" id="bitmap:48-32" width="48" height="140" version="1.1" viewBox="0 0 12.7 37.043"><metadata/><path fill="#fff" stroke="#aeaeae" stroke-width=".529" d="m9.1824 7.1439-8.9159-0.00493v-6.8694l8.9159-0.004927 3.1584 3.4396z"/><path fill="#2979ff" stroke-width=".265" d="m9.3779 22.226-9.3782-0.0055v-7.3977l9.3782-0.0053 3.3221 3.7041z"/><g fill="#fff" stroke-width=".529"><path stroke="#3096fa" d="m3.7844 12.965 8.9157-0.0049v-6.8695l-8.9157-0.00493-3.1584 3.4396z" transform="matrix(-1 0 0 1 12.964 1.5879)"/><path stroke="#aeaeae" d="m3.782 35.19 8.9159-0.0051v-6.8691l-8.9159-0.0051-3.1584 3.4395z" transform="matrix(-1 0 0 1 12.964 1.5879)"/><path stroke="#3096fa" d="m3.782 27.782 8.9157-0.0051v-6.8691l-8.9157-0.0051-3.1584 3.4395z" transform="matrix(-1 0 0 1 12.964 1.5879)"/></g></svg>