<svg xmlns="http://www.w3.org/2000/svg" xmlns:xlink="http://www.w3.org/1999/xlink" id="bitmap:72-32" width="144" height="24" version="1.1"><metadata id="metadata280"/><defs id="defs4"><linearGradient id="linearGradient5060"><stop id="stop5062" offset="0" stop-color="#000"/><stop id="stop5064" offset="1" stop-color="#000" stop-opacity="0"/></linearGradient><linearGradient id="linearGradient2797"><stop id="stop2799" offset="0" stop-color="#FFF"/><stop id="stop2801" offset="1" stop-color="#FFF" stop-opacity="0"/></linearGradient><linearGradient id="linearGradient2871"><stop id="stop2873" offset="0" stop-color="#3465a4"/><stop id="stop2875" offset="1" stop-color="#3465a4"/></linearGradient><linearGradient id="linearGradient2380"><stop id="stop2382-9" offset="0" stop-color="#b9cfe7"/><stop id="stop2384" offset="1" stop-color="#729fcf"/></linearGradient><linearGradient id="linearGradient2402"><stop id="stop2404" offset="0" stop-color="#729fcf"/><stop id="stop2406" offset="1" stop-color="#528ac5"/></linearGradient><radialGradient id="radialGradient3380" cx="25.125" cy="36.75" r="15.75" gradientTransform="matrix(1,0,0,0.595238,0,14.875)" gradientUnits="userSpaceOnUse"><stop id="stop21646" offset="0" stop-color="#000"/><stop id="stop21648" offset="1" stop-color="#000" stop-opacity="0"/></radialGradient><linearGradient id="linearGradient3382" x1="23.996" x2="41.048" y1="20.105" y2="37.96" gradientTransform="matrix(0.67419,0,0,0.674276,63.822139,1020.1817)" gradientUnits="userSpaceOnUse"><stop id="stop4983" offset="0" stop-color="#C00"/><stop id="stop4985" offset="1" stop-color="#b30000"/></linearGradient><radialGradient id="radialGradient3384" cx="24.302" cy="33.302" r="12.302" gradientTransform="matrix(1.105562,0,0,1.105705,53.33881,1005.6202)" gradientUnits="userSpaceOnUse"><stop id="stop9649" offset="0" stop-color="#FFF"/><stop id="stop9651" offset="1" stop-color="#dbdbdb"/></radialGradient><linearGradient id="linearGradient3386" x1="21.75" x2="24.302" y1="15.802" y2="35.052" gradientTransform="matrix(0.652641,0,0,0.652725,64.345805,1020.7054)" gradientUnits="userSpaceOnUse"><stop id="stop2258" offset="0" stop-color="#ff0202"/><stop id="stop2260" offset="1" stop-color="#ff9b9b"/></linearGradient><linearGradient id="linearGradient3388" x1="15.737" x2="53.57" y1="12.504" y2="47.374" gradientTransform="matrix(0.658703,0,0,0.658681,64.193874,1020.5559)" gradientUnits="userSpaceOnUse"><stop id="stop11782" offset="0" stop-color="#ff8b8b"/><stop id="stop11784" offset="1" stop-color="#ec1b1b"/></linearGradient><radialGradient id="radialGradient3390" cx="16.75" cy="10.666" r="21.25" gradientTransform="matrix(2.737165,0,0,2.125222,29.37911,1006.2414)" gradientUnits="userSpaceOnUse"><stop id="stop2250" offset="0" stop-color="#FFF"/><stop id="stop2252" offset="1" stop-color="#FFF" stop-opacity="0"/></radialGradient><linearGradient id="linearGradient3392" x1="302.86" x2="302.86" y1="366.65" y2="609.51" gradientTransform="matrix(2.774389,0,0,1.969706,-1892.179,-872.8854)" gradientUnits="userSpaceOnUse"><stop id="stop5050" offset="0" stop-color="#000" stop-opacity="0"/><stop id="stop5056" offset=".5" stop-color="#000"/><stop id="stop5052" offset="1" stop-color="#000" stop-opacity="0"/></linearGradient><radialGradient id="radialGradient3394" cx="605.71" cy="486.65" r="117.14" gradientTransform="matrix(2.774389,0,0,1.969706,-1891.633,-872.8854)" gradientUnits="userSpaceOnUse" xlink:href="#linearGradient5060"/><radialGradient id="radialGradient3396" cx="605.71" cy="486.65" r="117.14" gradientTransform="matrix(-2.774389,0,0,1.969706,112.7623,-872.8854)" gradientUnits="userSpaceOnUse" xlink:href="#linearGradient5060"/><linearGradient id="linearGradient3398" x1="52.006" x2="14.049" y1="166.13" y2="-42.219" gradientTransform="matrix(0.221835,0,0,0.110024,140.0235,1030.616)" gradientUnits="userSpaceOnUse"><stop id="stop17" offset="0" stop-color="#CCC"/><stop id="stop19" offset=".983" stop-color="#FFF"/></linearGradient><linearGradient id="linearGradient3400" x1="17.603" x2="17.683" y1="26.057" y2="32.654" gradientTransform="matrix(0.675325,0,0,0.710034,127.07761,1018.7743)" gradientUnits="userSpaceOnUse"><stop id="stop2331" offset="0" stop-color="#000" stop-opacity=".186"/><stop id="stop2333" offset="1" stop-color="#FFF"/></linearGradient><radialGradient id="radialGradient3402" cx="24.195" cy="10.578" r="15.243" gradientTransform="matrix(0.750176,-2.390279e-8,2.846547e-8,0.893373,125.97906,1021.2658)" gradientUnits="userSpaceOnUse"><stop id="stop2380" offset="0" stop-color="#575757"/><stop id="stop2382" offset="1" stop-color="#575757" stop-opacity="0"/></radialGradient><linearGradient id="linearGradient3404" x1="17.85" x2="19.04" y1="28.939" y2="41.032" gradientTransform="matrix(0.667809,0,0,0.721564,128.52999,1019.1429)" gradientUnits="userSpaceOnUse"><stop id="stop2408" offset="0" stop-color="#7c7e79"/><stop id="stop2414" offset=".172" stop-color="#848681"/><stop id="stop2410" offset="1" stop-color="#898c86"/></linearGradient><radialGradient id="radialGradient3406" cx="20.444" cy="37.426" r="1.082" gradientTransform="matrix(0.845492,0,0,0.650968,124.14222,1020.6369)" gradientUnits="userSpaceOnUse"><stop id="stop2321" offset="0" stop-color="#000"/><stop id="stop2323" offset="1" stop-color="#000" stop-opacity="0"/></radialGradient><radialGradient id="radialGradient3408" cx="19.986" cy="36.778" r="1.082" gradientTransform="matrix(0.845492,0,0,0.650968,124.14222,1020.5274)" gradientUnits="userSpaceOnUse"><stop id="stop2309" offset="0" stop-color="#edd400"/><stop id="stop2311" offset="1" stop-color="#980"/></radialGradient><linearGradient id="linearGradient3410" x1="64.388" x2="64.388" y1="65.124" y2="35.569" gradientTransform="matrix(0.236067,0,0,0.236067,129.07598,1020.3064)" gradientUnits="userSpaceOnUse"><stop id="stop336" offset="0" stop-color="#FFF"/><stop id="stop338" offset=".854" stop-color="#ff6200"/><stop id="stop340" offset="1" stop-color="#f25d00"/></linearGradient><radialGradient id="radialGradient3412" cx="7.533" cy="24.203" r="8.245" gradientTransform="matrix(2.733392,0,0,2.800883,111.04015,968.00238)" gradientUnits="userSpaceOnUse"><stop id="stop2301" offset="0" stop-color="#FFF"/><stop id="stop2303" offset="1" stop-color="#FFF" stop-opacity="0"/></radialGradient><radialGradient id="radialGradient3414" cx="11.681" cy="19.554" r="8.245" gradientTransform="matrix(2.733392,0,0,-2.800883,124.51812,1090.5979)" gradientUnits="userSpaceOnUse"><stop id="stop2343" offset="0" stop-color="#000"/><stop id="stop2345" offset="1" stop-color="#000" stop-opacity="0"/></radialGradient><radialGradient id="radialGradient3416" cx="29.913" cy="30.443" r="4.002" gradientTransform="matrix(2.525807,0,0,1.713442,72.53038,988.81062)" gradientUnits="userSpaceOnUse"><stop id="stop2370" offset="0" stop-color="#FFF"/><stop id="stop2372" offset="1" stop-color="#FFF" stop-opacity="0"/></radialGradient><radialGradient id="radialGradient3418" cx="24.837" cy="36.421" r="15.645" gradientTransform="matrix(1,0,0,0.536723,0,16.87306)" gradientUnits="userSpaceOnUse"><stop id="stop8664" offset="0" stop-color="#000"/><stop id="stop8666" offset="1" stop-color="#000" stop-opacity="0"/></radialGradient><linearGradient id="linearGradient3420" x1="13.479" x2="15.419" y1="10.612" y2="19.115" gradientTransform="matrix(0.666667,0,0,0.646309,96.83003,1019.302)" gradientUnits="userSpaceOnUse"><stop id="stop2833" offset="0" stop-color="#3465a4"/><stop id="stop2855" offset=".333" stop-color="#5b86be"/><stop id="stop2835" offset="1" stop-color="#83a8d8" stop-opacity="0"/></linearGradient><linearGradient id="linearGradient3422" x1="37.128" x2="37.065" y1="29.73" y2="26.194" gradientTransform="matrix(-0.666667,0,0,-0.646309,128.20505,1049.113)" gradientUnits="userSpaceOnUse"><stop id="stop2849" offset="0" stop-color="#3465a4"/><stop id="stop2851" offset="1" stop-color="#3465a4" stop-opacity="0"/></linearGradient><linearGradient id="linearGradient3424" x1="62.514" x2="15.985" y1="36.061" y2="20.609" gradientUnits="userSpaceOnUse" xlink:href="#linearGradient2380"/><linearGradient id="linearGradient3426" x1="46.835" x2="45.38" y1="45.264" y2="50.94" gradientUnits="userSpaceOnUse" xlink:href="#linearGradient2871"/><linearGradient id="linearGradient3430" x1="32.648" x2="37.124" y1="30.749" y2="24.842" gradientTransform="matrix(0.666667,0,0,0.647455,96.519755,1019.8536)" gradientUnits="userSpaceOnUse"><stop id="stop2692" offset="0" stop-color="#c4d7eb"/><stop id="stop2694" offset="1" stop-color="#c4d7eb" stop-opacity="0"/></linearGradient><linearGradient id="linearGradient3432" x1="36.714" x2="37.124" y1="31.456" y2="24.842" gradientTransform="matrix(0.666667,0,0,0.647455,96.519755,1019.8536)" gradientUnits="userSpaceOnUse"><stop id="stop2684" offset="0" stop-color="#3977c3"/><stop id="stop2686" offset="1" stop-color="#89aedc" stop-opacity="0"/></linearGradient><linearGradient id="linearGradient3434" x1="18.936" x2="53.589" y1="23.668" y2="26.649" gradientUnits="userSpaceOnUse" xlink:href="#linearGradient2402"/><linearGradient id="linearGradient3442" x1="5.965" x2="52.854" y1="26.048" y2="26.048" gradientUnits="userSpaceOnUse" xlink:href="#linearGradient2797"/><radialGradient id="radialGradient3322" cx="24.837" cy="36.421" r="15.645" gradientTransform="matrix(-0.7448685,0,0,-0.26869776,102.90414,28.832549)" gradientUnits="userSpaceOnUse" xlink:href="#radialGradient3418"/><linearGradient id="linearGradient3359" x1="32.648" x2="37.124" y1="30.749" y2="24.842" gradientTransform="matrix(0.50000025,0,0,0.48559125,72.082345,0.68696)" gradientUnits="userSpaceOnUse" xlink:href="#linearGradient3430"/><linearGradient id="linearGradient3361" x1="36.714" x2="37.124" y1="31.456" y2="24.842" gradientTransform="matrix(0.50000025,0,0,0.48559125,72.082345,0.68696)" gradientUnits="userSpaceOnUse"><stop id="stop4156" offset="0" stop-color="#39c33c"/><stop id="stop4158" offset="1" stop-color="#89aedc" stop-opacity="0"/></linearGradient><linearGradient id="linearGradient3366" x1="13.479" x2="15.419" y1="10.612" y2="19.115" gradientTransform="matrix(0.50000025,0,0,0.48473175,72.315052,0.27326)" gradientUnits="userSpaceOnUse" xlink:href="#linearGradient3420"/><linearGradient id="linearGradient3368" x1="37.128" x2="37.065" y1="29.73" y2="26.194" gradientTransform="matrix(-0.50000025,0,0,-0.48473175,95.846317,22.63151)" gradientUnits="userSpaceOnUse" xlink:href="#linearGradient3422"/><linearGradient id="linearGradient4144" x1="18.936" x2="53.589" y1="23.668" y2="26.649" gradientUnits="userSpaceOnUse"><stop id="stop4140" offset="0" stop-color="#72cf75"/><stop id="stop4142" offset="1" stop-color="#52c555"/></linearGradient><linearGradient id="linearGradient4152" x1="46.835" x2="45.38" y1="45.264" y2="50.94" gradientUnits="userSpaceOnUse"><stop id="stop4148" offset="0" stop-color="#34a437"/><stop id="stop4150" offset="1" stop-color="#34a437"/></linearGradient><radialGradient id="radialGradient3546" cx="24.837" cy="36.421" r="15.645" gradientTransform="matrix(1,0,0,0.536723,0,16.87306)" gradientUnits="userSpaceOnUse" xlink:href="#radialGradient3418"/><linearGradient id="linearGradient3548" x1="13.479" x2="15.419" y1="10.612" y2="19.115" gradientTransform="matrix(0.666667,0,0,0.646309,96.83003,1019.302)" gradientUnits="userSpaceOnUse" xlink:href="#linearGradient3420"/><linearGradient id="linearGradient3550" x1="37.128" x2="37.065" y1="29.73" y2="26.194" gradientTransform="matrix(-0.666667,0,0,-0.646309,128.20505,1049.113)" gradientUnits="userSpaceOnUse" xlink:href="#linearGradient3422"/><linearGradient id="linearGradient3558" x1="32.648" x2="37.124" y1="30.749" y2="24.842" gradientTransform="matrix(0.666667,0,0,0.647455,96.519755,1019.8536)" gradientUnits="userSpaceOnUse" xlink:href="#linearGradient3430"/><linearGradient id="linearGradient3572" x1="18.936" x2="53.589" y1="23.668" y2="26.649" gradientUnits="userSpaceOnUse" xlink:href="#linearGradient4144"/><linearGradient id="linearGradient3574" x1="46.835" x2="45.38" y1="45.264" y2="50.94" gradientUnits="userSpaceOnUse" xlink:href="#linearGradient4152"/><linearGradient id="linearGradient3281" x1="4" x2="4" y1="2" y2="5" gradientTransform="translate(96,0)" gradientUnits="userSpaceOnUse"><stop id="stop10746" offset="0" stop-color="#729fcf"/><stop id="stop10748" offset="1" stop-color="#3465a4"/></linearGradient><linearGradient id="linearGradient3278" x1="4" x2="4" y1="15" y2="4" gradientTransform="translate(96,-1)" gradientUnits="userSpaceOnUse"><stop id="stop10718" offset="0" stop-color="#d3d7cf"/><stop id="stop10720" offset="1" stop-color="#babdb6"/></linearGradient><linearGradient id="linearGradient3680" x1="4" x2="4" y1="2" y2="5" gradientTransform="translate(96,0)" gradientUnits="userSpaceOnUse" xlink:href="#linearGradient3281"/><linearGradient id="linearGradient3682" x1="4" x2="4" y1="15" y2="4" gradientTransform="translate(96,-1)" gradientUnits="userSpaceOnUse" xlink:href="#linearGradient3278"/><radialGradient id="radialGradient3244" cx="17.481" cy="16.118" r="16.956" gradientTransform="matrix(-0.411558,0.00716573,-0.00521275,-0.299389,21.69622,19.724318)" gradientUnits="userSpaceOnUse"><stop id="stop2593-6" offset="0" stop-color="#73d216"/><stop id="stop2595-2" offset="1" stop-color="#4e9a06"/></radialGradient><radialGradient id="radialGradient3241" cx="15.987" cy="1.535" r="17.171" gradientTransform="matrix(-0.99935,0,0,0.783428,33.4962,1.6234577)" gradientUnits="userSpaceOnUse"><stop id="stop8652-1" offset="0" stop-color="#FFF"/><stop id="stop8654-1" offset="1" stop-color="#FFF" stop-opacity="0"/></radialGradient><radialGradient id="radialGradient4057" cx="15.987" cy="1.535" r="17.171" gradientTransform="matrix(-0.60036103,0,0,0.47064556,118.32064,6.859513)" gradientUnits="userSpaceOnUse" xlink:href="#radialGradient3241"/><radialGradient id="radialGradient4060" cx="17.481" cy="16.118" r="16.956" gradientTransform="matrix(-0.24724409,0.00430482,-0.00313157,-0.1798584,111.23178,17.733632)" gradientUnits="userSpaceOnUse" xlink:href="#radialGradient3244"/></defs><g id="g3609" transform="matrix(0.75,0,0,0.74999999,-48.000003,-765.27164)"><path id="path21642" fill="url(#radialGradient3380)" opacity=".631" style="color:#000" fill-rule="evenodd" d="m40.875,36.75a15.75,9.375,0,1,1,-31.5,0,15.75,9.375,0,1,1,31.5,0z" transform="matrix(0.782536,0,0,0.36,60.663725,1035.7572)"/><path id="path9480" stroke-linejoin="miter" style="stroke-dasharray:none" fill="url(#linearGradient3382)" fill-rule="evenodd" stroke="#860000" stroke-linecap="butt" stroke-miterlimit="4" stroke-width="1" d="m74.333,1021.9,11.519,0,8.644,8.8292,0,12.065-8.5276,8.1027-11.751,0-8.7134-8.6568,0-11.594,8.8296-8.7468z"/><path id="path2787" stroke-linejoin="round" style="stroke-dasharray:none" fill="url(#radialGradient3384)" fill-rule="evenodd" stroke="url(#linearGradient3386)" stroke-linecap="round" stroke-miterlimit="4" stroke-width=".8" d="m75.289,1028.9-2.7849,2.7853,4.9177,4.9183-4.9177,4.9184,2.7849,2.7853,4.9177-4.9184,4.9177,4.9184,2.7849-2.7853-4.9177-4.9184,4.9177-4.9183-2.7849-2.7853-4.9177,4.9183-4.9177-4.9183z"/><path id="path9482" fill="none" stroke="url(#linearGradient3388)" stroke-linecap="butt" stroke-linejoin="miter" stroke-miterlimit="4" stroke-width="1" d="m74.747,1022.9,10.689,0,8.0677,8.1824,0,11.273-7.8109,7.5425-11.045,0-8.1423-8.088,0-10.778,8.2414-8.1316z" opacity=".813"/><path id="path2241" fill="url(#radialGradient3390)" fill-rule="evenodd" d="m74.527,1022.4-8.5228,8.5126,0,11.295,1.9351,1.9309c11.043,0.038,10.855-8.6495,26.063-7.8897v-5.2529l-8.3582-8.5956h-11.117z" opacity=".29"/></g><g id="g3961" transform="matrix(0.75,0,0,0.75,-47.999996,-765.27162)"><g id="g5022" fill-rule="nonzero" transform="matrix(0.01379016,0,0,0.01239639,156.26546,1048.1206)"><rect id="rect4173" opacity=".402" style="color:#000" width="1339.6" height="478.36" x="-1559.3" y="-150.7" fill="url(#linearGradient3392)"/><path id="path5058" opacity=".402" style="color:#000" fill="url(#radialGradient3394)" d="m-219.62-150.68v478.33c142.87,0.90045,345.4-107.17,345.4-239.2s-159.44-239.13-345.4-239.13z"/><path id="path5018" opacity=".402" style="color:#000" fill="url(#radialGradient3396)" d="m-1559.3-150.68v478.33c-142.87,0.90045-345.4-107.17-345.4-239.2s159.44-239.13,345.4-239.13z"/></g><path id="rect1512" stroke-linejoin="miter" style="color:#000" fill="url(#linearGradient3398)" fill-rule="nonzero" stroke="#757575" stroke-dashoffset="0" stroke-linecap="butt" stroke-miterlimit="4" stroke-width="1" d="m142.42,1025.8,3.9225,0c0.55289,0,9.1431,10.176,9.1431,10.773l-0.29203,12.194c0,0.5968-0.44511,1.0773-0.998,1.0773h-20.712c-0.55289,0-0.998-0.4805-0.998-1.0773l0.0372-12.194c0-0.5969,9.3443-10.773,9.8972-10.773z"/><path id="path5" fill="none" d="m159.29,1050.9-30.217,0,0-30.217,30.217,0,0,30.217z"/><path id="path2327" fill="url(#linearGradient3400)" fill-rule="evenodd" d="m144,1039.4-0.0344,9.9962-8.8984,0-0.0838-9.9962,9.0165,0z"/><path id="path2357" fill="none" stroke="#FFF" stroke-dashoffset="0" stroke-linecap="butt" stroke-linejoin="miter" stroke-miterlimit="4" stroke-width="1" d="m142.61,1026.6,3.5558,0c0.50121,0,8.3159,9.3803,8.3159,9.9305l-0.22206,11.864c0,0.2992-0.0919,0.4257-0.32774,0.4257l-20.077,0.01c-0.2358,0-0.37353-0.052-0.37353-0.2955l0.13774-12.004c0-0.5502,8.4892-9.9305,8.9905-9.9305z" opacity=".313" style="color:#000"/><path id="path23" fill="url(#radialGradient3402)" fill-rule="evenodd" d="m132.79,1039-0.0362,1.7301,12.245-8.7861,10.191,7.4362,0.0476-0.2078-10.914-10.603-11.534,10.43z" opacity=".2"/><path id="path188" fill="url(#linearGradient3404)" fill-rule="evenodd" d="m143.25,1040,0,9.3338-7.3717,0-0.14199-9.3338,7.5137,0z"/><path id="path2315" fill="url(#radialGradient3406)" fill-rule="evenodd" d="m141.43,1044.3c0.50552,0,0.91413,0.3144,0.91413,0.7012,0,0.3907-0.40861,0.7077-0.91413,0.7077-0.50513,0-0.91569-0.317-0.91569-0.7077,0.00039-0.3868,0.41056-0.7012,0.91569-0.7012z" opacity=".409"/><path id="path217" fill="url(#radialGradient3408)" fill-rule="evenodd" d="m141.34,1044c0.50551,0,0.91413,0.3144,0.91413,0.7011,0,0.3907-0.40862,0.7077-0.91413,0.7077-0.50513,0-0.91569-0.317-0.91569-0.7077,0.00039-0.3867,0.41056-0.7011,0.91569-0.7011z"/><path id="path342" fill="url(#linearGradient3410)" d="m144.28,1028.1,12.618,11.447,0.32979,0.2613,0.26912-0.1142-0.24858-0.5078-0.18508-0.149-12.783-10.382-12.926,10.496-0.1584,0.096-0.14448,0.4712,0.28895,0.086,0.25637-0.2056,12.684-11.499z"/><path id="path362" fill="#ef2929" stroke-linejoin="round" style="stroke-dasharray:none" stroke="#a40000" stroke-miterlimit="4" stroke-width=".8" d="m144.2,1021.9-14.72,11.986,0,5,1,1s13.654-11.203,13.798-11.317l13.202,11.317,1-1v-4l-14.202-13.055-0.0784,0.07z"/><path id="path1536" opacity=".409" style="color:#000" fill="url(#radialGradient3412)" fill-rule="nonzero" d="m129.98,1034.1,0,4.25,14.246-12.013-0.0469-3.9289-14.199,11.692z"/><path id="path2337" opacity=".149" style="color:#000" fill="url(#radialGradient3414)" fill-rule="nonzero" d="m144.31,1026.2,0.0663-3.8941,13.589,12.76-0.0175,3.2098-13.637-12.075z"/><path id="rect2361" fill="none" stroke="#FFF" stroke-dashoffset="0" stroke-linecap="butt" stroke-linejoin="miter" stroke-miterlimit="4" stroke-width="1" d="m145.82,1039.2,6.6456,0c0.56648,0,1.0225,0.4065,1.0225,0.9114l-0.006,5.9496c0,0.505-0.43838,0.8296-1.0049,0.8296h-6.6574c-0.56649,0-1.0225-0.4065-1.0225-0.9115v-5.8677c0-0.5049,0.45605-0.9114,1.0225-0.9114z" opacity=".318" style="color:#000"/><rect id="rect3263" width="7" height="6" x="145.48" y="1039.9" fill="#3465a4" stroke-linejoin="miter" style="color:#000;stroke-dasharray:none" fill-rule="nonzero" stroke="#757575" stroke-dashoffset="0" stroke-linecap="butt" stroke-miterlimit="4" stroke-width="1" rx=".267" ry=".23"/><path id="rect2363" opacity=".398" style="color:#000" fill="url(#radialGradient3416)" fill-rule="nonzero" d="m146,1043.3c2.4359,0.1802,3.7217-0.787,5.9708-0.8452l0.0166-2.0954h-6l0.0126,2.9439z"/></g><g id="g3876" transform="matrix(0.75,0,0,0.75,-47.999995,-765.27165)"><path id="path8660-0" fill="url(#radialGradient3546)" opacity=".383" style="color:#000" fill-rule="evenodd" d="m40.482,36.421a15.645,8.3969,0,1,1,-31.289,0,15.645,8.3969,0,1,1,31.289,0z" transform="matrix(-0.993158,0,0,-0.667502,137.20489,1070.0684)"/><g id="g3667" transform="translate(-0.41059,1.42455)"><path id="path2865" stroke-linejoin="miter" style="color:#000;stroke-dasharray:none" fill="url(#linearGradient3548)" fill-rule="nonzero" stroke="url(#linearGradient3550)" stroke-dashoffset="0" stroke-linecap="butt" stroke-miterlimit="4" stroke-width="1" d="m109.96,1026.2s-5.9583-0.4039-4.125,6.3823h-5.125s0.33334-7.6749,9.25-6.3823z" display="block"/><g id="g1878" fill="url(#linearGradient3424)" stroke="#3465a4" stroke-width="1.523" transform="matrix(-0.386034,-0.316192,-0.326152,0.374245,134.46368,1028.1234)"><path id="path1880" stroke-linejoin="miter" style="color:#000;stroke-dasharray:none" fill="url(#linearGradient3424)" fill-rule="nonzero" stroke="url(#linearGradient3426)" stroke-dashoffset="0" stroke-linecap="butt" stroke-miterlimit="4" stroke-width="2.01" d="M44.307,50.23c18.514-14.411,5.358-36.818-21.845-37.732l-0.348-9.3465-14.49,17.346,15.09,12.722s-0.25192-9.8812-0.25192-9.8812c18.83,0.99898,32.982,14.072,21.844,26.892z" display="block"/></g><path id="path2839" stroke-linejoin="miter" style="color:#000;stroke-dasharray:none" fill="url(#linearGradient3558)" fill-rule="nonzero" stroke="url(#linearGradient3432)" stroke-dashoffset="0" stroke-linecap="butt" stroke-miterlimit="4" stroke-width="1" d="m115.44,1041.5s5.9583,0.4046,4.125-6.3936h5.1839c0,0.9728-0.39226,7.6885-9.3089,6.3936z" display="block"/><g id="g2779" stroke-linejoin="miter" style="color:#000;stroke-dasharray:none" fill="url(#linearGradient3434)" fill-rule="nonzero" stroke="url(#linearGradient3426)" stroke-dashoffset="0" stroke-linecap="butt" stroke-miterlimit="4" stroke-width="2.008" display="block" transform="matrix(0.386034,0.316753,0.326152,-0.374909,91.23907,1039.6243)"><path id="path2781" stroke-linejoin="miter" style="color:#000;stroke-dasharray:none" fill="url(#linearGradient3434)" fill-rule="nonzero" stroke="url(#linearGradient3426)" stroke-dashoffset="0" stroke-linecap="butt" stroke-miterlimit="4" stroke-width="2.008" d="M44.307,50.23c18.514-14.411,5.358-36.818-21.845-37.732l-0.063-9.429-14.605,17.355,14.668,12.582v-9.6684c18.83,0.99898,32.982,14.072,21.844,26.892z" display="block"/></g><path id="path2791" opacity=".272" style="color:#000" fill="#FFF" fill-rule="nonzero" d="m101.42,1044.2-0.005-9.2715,8.1406-0.04-2.8009,3.2437,2.7032,1.7397c-2,1.4568-2.9393,1.3182-3.606,2.9773l-1.9248-1.4913-2.5069,2.8418z"/><g id="g2793" fill="none" stroke="#FFF" stroke-width="1.59" opacity=".5" transform="matrix(0.328713,0.262901,0.277723,-0.311169,94.451191,1039.6682)"><path id="path2795" fill="none" stroke="url(#linearGradient3442)" stroke-linejoin="miter" style="color:#000;stroke-dasharray:none" stroke-dashoffset="0" stroke-linecap="butt" stroke-miterlimit="4" stroke-width="2.388" d="M51.77,46.731c9.12-15.22-5.305-35.305-33.483-34.489l-0.061-7.0152-11.692,14.07,11.502,9.847s0.05562-9.0069,0.05562-9.0069c23.572,0.79434,37.206,12.015,33.678,26.594z" display="block"/></g><g id="g2805" fill="none" stroke="#FFF" stroke-width="1.523" opacity=".5" transform="matrix(-0.339024,-0.277687,-0.286434,0.328671,131.88578,1028.1196)"><path id="path2807" fill="none" stroke="url(#linearGradient3442)" stroke-linejoin="miter" style="color:#000;stroke-dasharray:none" stroke-dashoffset="0" stroke-linecap="butt" stroke-miterlimit="4" stroke-width="2.288" d="M51.39,46.506c9.12-15.22-5.103-33.388-32.525-33.75l-0.203-6.8084-11.22,13.22,11.585,9.795s-0.31396-8.424-0.31396-8.424c22.406,0.47504,35.698,11.698,32.677,25.967z" display="block"/></g><path id="path2811" opacity=".272" style="color:#000" fill="#FFF" fill-rule="nonzero" d="m101.06,1030.1c1.8331-6.967,11.056-4.1901,13.552-3.1271,2.7835,0.1366,3.6269-1.4573,5.8438-1.564-9.3665-6.3273-18.708-4.0447-19.396,4.6911z"/></g></g><g id="g4174"><path id="path3252" opacity=".383" style="color:#000" fill="url(#radialGradient3322)" fill-rule="evenodd" d="m72.75,19.046a11.653,4.2037,0,1,1,23.306,0,11.653,4.2037,0,1,1,-23.306,0z"/><g id="g4160"><path id="path3256" stroke-linejoin="miter" style="color:#000;stroke-dasharray:none" fill="url(#linearGradient3366)" fill-rule="nonzero" stroke="url(#linearGradient3368)" stroke-dashoffset="0" stroke-linecap="butt" stroke-miterlimit="4" stroke-width=".75" d="m82.163,5.4468s-4.4687-0.30292-3.0938,4.7867h-3.8438s0.25-5.7562,6.9375-4.7867z" display="block"/><g id="g3258" fill="url(#linearGradient3424)" stroke="#3465a4" stroke-width="1.523" transform="matrix(-0.2895255,-0.237144,-0.244614,0.28068375,100.54029,6.88931)"><path id="path3260" stroke-linejoin="miter" style="color:#000;stroke-dasharray:none" fill="url(#linearGradient3424)" fill-rule="nonzero" stroke="url(#linearGradient3426)" stroke-dashoffset="0" stroke-linecap="butt" stroke-miterlimit="4" stroke-width="2.01" d="M44.307,50.23c18.514-14.411,5.358-36.818-21.845-37.732l-0.348-9.3465-14.49,17.346,15.09,12.722s-0.25192-9.8812-0.25192-9.8812c18.83,0.99898,32.982,14.072,21.844,26.892z" display="block"/></g><path id="path3262" stroke-linejoin="miter" style="color:#000;stroke-dasharray:none" fill="url(#linearGradient3359)" fill-rule="nonzero" stroke="url(#linearGradient3361)" stroke-dashoffset="0" stroke-linecap="butt" stroke-miterlimit="4" stroke-width=".75" d="m86.273,16.922s4.4687,0.30345,3.0938-4.7952h3.8879c0,0.7296-0.2942,5.7664-6.9817,4.7952z" display="block"/><g id="g3264" stroke-linejoin="miter" style="color:#000;stroke-dasharray:none" fill="url(#linearGradient3572)" fill-rule="nonzero" stroke="url(#linearGradient3574)" stroke-dashoffset="0" stroke-linecap="butt" stroke-miterlimit="4" stroke-width="2.008" display="block" transform="matrix(0.2895255,0.23756475,0.244614,-0.28118175,68.121832,15.514985)"><path id="path3266" stroke-linejoin="miter" style="color:#000;stroke-dasharray:none" fill="url(#linearGradient3572)" fill-rule="nonzero" stroke="url(#linearGradient3574)" stroke-dashoffset="0" stroke-linecap="butt" stroke-miterlimit="4" stroke-width="2.008" d="M44.307,50.23c18.514-14.411,5.358-36.818-21.845-37.732l-0.063-9.429-14.605,17.355,14.668,12.582v-9.6684c18.83,0.99898,32.982,14.072,21.844,26.892z" display="block"/></g><path id="path3268" opacity=".272" style="color:#000" fill="#FFF" fill-rule="nonzero" d="m75.758,18.947-0.0038-6.9536,6.1054-0.03-2.1007,2.4328,2.0274,1.3048c-1.5,1.0926-2.2045,0.98865-2.7045,2.233l-1.4436-1.1185-1.8802,2.1314z"/><g id="g3270" fill="none" stroke="#FFF" stroke-width="1.59" opacity=".5" transform="matrix(0.24653475,0.19717575,0.20829225,-0.23337675,70.530922,15.54791)"><path id="path3272" fill="none" stroke="url(#linearGradient3442)" stroke-linejoin="miter" style="color:#000;stroke-dasharray:none" stroke-dashoffset="0" stroke-linecap="butt" stroke-miterlimit="4" stroke-width="2.388" d="M51.77,46.731c9.12-15.22-5.305-35.305-33.483-34.489l-0.061-7.0152-11.692,14.07,11.502,9.847s0.05562-9.0069,0.05562-9.0069c23.572,0.79434,37.206,12.015,33.678,26.594z" display="block"/></g><g id="g3274" fill="none" stroke="#FFF" stroke-width="1.523" opacity=".5" transform="matrix(-0.254268,-0.20826525,-0.2148255,0.24650325,98.606864,6.88646)"><path id="path3276" fill="none" stroke="url(#linearGradient3442)" stroke-linejoin="miter" style="color:#000;stroke-dasharray:none" stroke-dashoffset="0" stroke-linecap="butt" stroke-miterlimit="4" stroke-width="2.288" d="M51.39,46.506c9.12-15.22-5.103-33.388-32.525-33.75l-0.203-6.8084-11.22,13.22,11.585,9.795s-0.31396-8.424-0.31396-8.424c22.406,0.47504,35.698,11.698,32.677,25.967z" display="block"/></g><path id="path3278" opacity=".272" style="color:#000" fill="#FFF" fill-rule="nonzero" d="M75.488,8.3718c1.375-5.2252,8.292-3.1426,10.164-2.3453,2.088,0.1025,2.72-1.093,4.383-1.173-7.025-4.7455-14.031-3.0335-14.547,3.5183z"/></g></g><g id="g4091"><g id="g3306"><path id="rect9935" fill="url(#linearGradient3281)" stroke="#204a87" stroke-linecap="round" stroke-linejoin="round" stroke-miterlimit="4" stroke-width="1" d="m98.5,1.5,19,0c0.554,0,1,0.446,1,1v20h-21v-20c0-0.554,0.446-1,1-1z"/><rect id="rect9941" stroke-linejoin="miter" style="stroke-dasharray:none" width="5" height="15" x="99.5" y="5.5" fill="url(#linearGradient3278)" stroke="#d3d7cf" stroke-linecap="round" stroke-miterlimit="4" stroke-width="1"/><path id="path9939" fill="#204a87" fill-rule="evenodd" stroke="#888a85" stroke-linecap="butt" stroke-linejoin="miter" stroke-width="1" d="M105.5,21"/><rect id="rect10713" stroke-linejoin="miter" style="stroke-dasharray:none" width="10" height="15" x="106.5" y="5.5" fill="#eeeeec" stroke="#eeeeec" stroke-linecap="round" stroke-miterlimit="4" stroke-width="1"/><path id="path10754" fill="none" stroke="#888a85" stroke-linecap="butt" stroke-linejoin="miter" stroke-width="1" d="m105.5,21,0-16"/></g><g id="g4062"><path id="path8643-2" stroke-linejoin="round" style="color:#000;stroke-dasharray:none" fill="url(#radialGradient4060)" fill-rule="evenodd" stroke="#3a7304" stroke-dashoffset="0" stroke-linecap="round" stroke-miterlimit="10" stroke-width="1" d="m109.93,15.797,0-5.4068-3.6045,0,0-2.403-6.0267,5.1397,6.0267,5.0731,0-2.403,3.6045,0z"/><path id="path8645-4" opacity=".508" style="color:#000" fill="url(#radialGradient4057)" fill-rule="evenodd" d="m106.03,8.5876,0,2.1026,3.6045,0-0.0191,2.7034c-3.6045-1.8023-5.4068,1.2015-8.7109-0.30038l5.1254-4.5056z"/><path id="path8658-0" fill="none" stroke="#FFF" stroke-dashoffset="0" stroke-linecap="butt" stroke-linejoin="miter" stroke-miterlimit="10" stroke-width="1" d="m109.13,14.796,0-3.6053-3.6045,0,0-1.5023-3.7056,3.4049,3.7056,3.2049,0-1.5023z" opacity=".481" style="color:#000;stroke-dasharray:none"/></g></g><g id="g4079"><g id="g3668" transform="translate(24,0)"><path id="path3670" fill="url(#linearGradient3680)" stroke="#204a87" stroke-linecap="round" stroke-linejoin="round" stroke-miterlimit="4" stroke-width="1" d="m98.5,1.5,19,0c0.554,0,1,0.446,1,1v20h-21v-20c0-0.554,0.446-1,1-1z"/><rect id="rect3672" stroke-linejoin="miter" style="stroke-dasharray:none" width="5" height="15" x="99.5" y="5.5" fill="url(#linearGradient3682)" stroke="#d3d7cf" stroke-linecap="round" stroke-miterlimit="4" stroke-width="1"/><path id="path3674" fill="#204a87" fill-rule="evenodd" stroke="#888a85" stroke-linecap="butt" stroke-linejoin="miter" stroke-width="1" d="M105.5,21"/><rect id="rect3676" stroke-linejoin="miter" style="stroke-dasharray:none" width="10" height="15" x="106.5" y="5.5" fill="#eeeeec" stroke="#eeeeec" stroke-linecap="round" stroke-miterlimit="4" stroke-width="1"/><path id="path3678" fill="none" stroke="#888a85" stroke-linecap="butt" stroke-linejoin="miter" stroke-width="1" d="m105.5,21,0-16"/></g><g id="g4067" transform="matrix(-1,0,0,1,235.23162,0)"><path id="path4069" stroke-linejoin="round" style="color:#000;stroke-dasharray:none" fill="url(#radialGradient4060)" fill-rule="evenodd" stroke="#3a7304" stroke-dashoffset="0" stroke-linecap="round" stroke-miterlimit="10" stroke-width="1" d="m109.93,15.797,0-5.4068-3.6045,0,0-2.403-6.0267,5.1397,6.0267,5.0731,0-2.403,3.6045,0z"/><path id="path4071" opacity=".508" style="color:#000" fill="url(#radialGradient4057)" fill-rule="evenodd" d="m106.03,8.5876,0,2.1026,3.6045,0-0.0191,2.7034c-3.6045-1.8023-5.4068,1.2015-8.7109-0.30038l5.1254-4.5056z"/><path id="path4073" fill="none" stroke="#FFF" stroke-dashoffset="0" stroke-linecap="butt" stroke-linejoin="miter" stroke-miterlimit="10" stroke-width="1" d="m109.13,14.796,0-3.6053-3.6045,0,0-1.5023-3.7056,3.4049,3.7056,3.2049,0-1.5023z" opacity=".481" style="color:#000;stroke-dasharray:none"/></g></g></svg>