<svg xmlns="http://www.w3.org/2000/svg" xmlns:svg="http://www.w3.org/2000/svg" xmlns:xlink="http://www.w3.org/1999/xlink" id="svg2" width="48" height="48" version="1.1"><metadata id="metadata303"/><defs id="defs4"><linearGradient id="linearGradient3933"><stop id="stop3935" offset="0" stop-color="#000" stop-opacity=".302"/><stop id="stop3941" offset=".885" stop-color="#000" stop-opacity=".2"/><stop id="stop3937" offset="1" stop-color="#000" stop-opacity="0"/></linearGradient><filter id="filter3391" width="1.134" height="1.336" x="-.067" y="-.168" color-interpolation-filters="sRGB"><feGaussianBlur id="feGaussianBlur3393" stdDeviation=".14"/></filter><linearGradient id="linearGradient3198"><stop id="stop3200" offset="0" stop-color="#FFF"/><stop id="stop3202" offset="1" stop-color="#FFF" stop-opacity="0"/></linearGradient><filter id="filter3391-9" width="1.134" height="1.336" x="-.067" y="-.168" color-interpolation-filters="sRGB"><feGaussianBlur id="feGaussianBlur3393-0" stdDeviation=".14"/></filter><linearGradient id="linearGradient3052" x1="16" x2="20.5" y1="27.5" y2="25.5" gradientTransform="translate(-8.0000004,15.967633)" gradientUnits="userSpaceOnUse"><stop id="stop3375" offset="0" stop-color="#000"/><stop id="stop3377" offset="1" stop-color="#373737" stop-opacity="0"/></linearGradient><linearGradient id="linearGradient3054" x1="16" x2="21.5" y1="27" y2="27" gradientTransform="translate(-8.0000004,15.967633)" gradientUnits="userSpaceOnUse"><stop id="stop3444" offset="0" stop-color="#000"/><stop id="stop3446" offset="1" stop-color="#000" stop-opacity="0"/></linearGradient><radialGradient id="radialGradient3319" cx="18" cy="14.19" r="5.505" gradientTransform="matrix(0.5171097,0,0,0.09372595,295.71991,44.846526)" gradientUnits="userSpaceOnUse"><stop id="stop3454-5" offset="0" stop-color="#FFF"/><stop id="stop3456-4" offset="1" stop-color="#FFF" stop-opacity="0"/></radialGradient><linearGradient id="linearGradient3324" x1="17.605" x2="23" y1="18.312" y2="18.312" gradientTransform="matrix(0.5171097,0,0,0.509783,292.0317,35.706174)" gradientUnits="userSpaceOnUse" xlink:href="#linearGradient3198"/><linearGradient id="linearGradient3327" x1="30.376" x2="22" y1="25.27" y2="19" gradientTransform="matrix(0.51465215,0,0,0.51427415,291.66575,36.071594)" gradientUnits="userSpaceOnUse" xlink:href="#linearGradient3198"/><radialGradient id="radialGradient3330" cx="25.017" cy="13.192" r="9.751" gradientTransform="matrix(0.6409233,0,0,0.23260484,289.25876,43.172933)" gradientUnits="userSpaceOnUse"><stop id="stop3173-2" offset="0" stop-color="#fd0000"/><stop id="stop3175-4" offset="1" stop-color="#6a0000"/></radialGradient><linearGradient id="linearGradient3332" x1="27.217" x2="22.036" y1="15.984" y2="7.135" gradientTransform="matrix(0.6409233,0,0,0.4699064,289.25876,40.562616)" gradientUnits="userSpaceOnUse"><stop id="stop4404-2" offset="0" stop-color="#e80000"/><stop id="stop4406-1" offset="1" stop-color="#490000"/></linearGradient><radialGradient id="radialGradient3335" cx="26.625" cy="26.577" r="12.5" gradientTransform="matrix(0.4905733,-0.1612076,0.0594676,0.1758752,290.71541,48.376273)" gradientUnits="userSpaceOnUse"><stop id="stop3191-6" offset="0" stop-color="#e40000"/><stop id="stop3193-5" offset="1" stop-color="#490000"/></radialGradient><linearGradient id="linearGradient3338" x1="29" x2="19" y1="33" y2="27" gradientTransform="matrix(0.5171097,0,0,0.5097831,291.58937,36.045709)" gradientUnits="userSpaceOnUse"><stop id="stop3222-8" offset="0" stop-color="#373737"/><stop id="stop3224-5" offset="1" stop-color="#FFF"/></linearGradient><linearGradient id="linearGradient3341" x1="25.269" x2="17.799" y1="12.038" y2="5.035" gradientTransform="matrix(0.7042341,0,0,0.4625263,287.80262,49.412231)" gradientUnits="userSpaceOnUse" xlink:href="#linearGradient3198"/><linearGradient id="linearGradient3344" x1="27.681" x2="21.44" y1="14.243" y2="9.277" gradientTransform="matrix(0.6372376,0,0,0.5144393,289.34354,48.841188)" gradientUnits="userSpaceOnUse"><stop id="stop3230-47" offset="0" stop-color="#373737"/><stop id="stop3232-9" offset="1" stop-color="#cfcfcf" stop-opacity=".678"/></linearGradient><radialGradient id="radialGradient3347" cx="27.5" cy="22.614" r="6.5" gradientTransform="matrix(0.7955532,-0.039214,0.04965997,0.9791288,282.80915,27.21674)" gradientUnits="userSpaceOnUse"><stop id="stop3348-2" offset="0" stop-color="#737373"/><stop id="stop3350-2" offset="1" stop-color="#000" stop-opacity="0"/></radialGradient><radialGradient id="radialGradient3350" cx="37.375" cy="33.188" r="14.625" gradientTransform="matrix(0.2103491,0,0,0.05208649,295.79979,45.30668)" gradientUnits="userSpaceOnUse"><stop id="stop4335-63" offset="0" stop-color="#000"/><stop id="stop4337-0" offset="1" stop-color="#000" stop-opacity="0"/></radialGradient><radialGradient id="radialGradient3115" cx="18" cy="14.19" r="5.505" gradientTransform="matrix(1.0342194,0,0,0.1874519,175.43981,33.693031)" gradientUnits="userSpaceOnUse"><stop id="stop3454-4" offset="0" stop-color="#FFF"/><stop id="stop3456-9" offset="1" stop-color="#FFF" stop-opacity="0"/></radialGradient><linearGradient id="linearGradient3120" x1="17.605" x2="23" y1="18.312" y2="18.312" gradientTransform="matrix(1.0342194,0,0,1.019566,168.0634,15.412329)" gradientUnits="userSpaceOnUse" xlink:href="#linearGradient3198"/><linearGradient id="linearGradient3123" x1="30.376" x2="22" y1="25.27" y2="19" gradientTransform="matrix(1.0293043,0,0,1.0285483,167.3315,16.143168)" gradientUnits="userSpaceOnUse" xlink:href="#linearGradient3198"/><radialGradient id="radialGradient3126" cx="25.017" cy="13.192" r="9.751" gradientTransform="matrix(1.2818465,0,0,0.46520969,162.51753,30.345846)" gradientUnits="userSpaceOnUse"><stop id="stop3173-5" offset="0" stop-color="#fd0000"/><stop id="stop3175-8" offset="1" stop-color="#6a0000"/></radialGradient><linearGradient id="linearGradient3128" x1="27.217" x2="22.036" y1="15.984" y2="7.135" gradientTransform="matrix(1.2818465,0,0,0.9398128,162.51753,25.125212)" gradientUnits="userSpaceOnUse"><stop id="stop4404-1" offset="0" stop-color="#e80000"/><stop id="stop4406-5" offset="1" stop-color="#490000"/></linearGradient><radialGradient id="radialGradient3132" cx="26.625" cy="26.577" r="12.5" gradientTransform="matrix(0.9811466,-0.3224151,0.1189352,0.3517503,165.43081,40.752527)" gradientUnits="userSpaceOnUse"><stop id="stop3191-9" offset="0" stop-color="#e40000"/><stop id="stop3193-7" offset="1" stop-color="#490000"/></radialGradient><linearGradient id="linearGradient3135" x1="29" x2="19" y1="33" y2="27" gradientTransform="matrix(1.0342194,0,0,1.0195661,167.17874,16.091399)" gradientUnits="userSpaceOnUse"><stop id="stop3222-6" offset="0" stop-color="#373737"/><stop id="stop3224-3" offset="1" stop-color="#FFF"/></linearGradient><linearGradient id="linearGradient3138" x1="25.269" x2="17.799" y1="12.038" y2="5.035" gradientTransform="matrix(1.2818465,0,0,0.9398128,162.51753,42.162079)" gradientUnits="userSpaceOnUse" xlink:href="#linearGradient3198"/><linearGradient id="linearGradient3141" x1="27.681" x2="21.44" y1="14.243" y2="9.277" gradientTransform="matrix(1.2744752,0,0,1.0288787,162.68707,41.182354)" gradientUnits="userSpaceOnUse"><stop id="stop3230-4" offset="0" stop-color="#373737"/><stop id="stop3232-6" offset="1" stop-color="#cfcfcf" stop-opacity=".678"/></linearGradient><radialGradient id="radialGradient3144" cx="27.5" cy="22.614" r="6.5" gradientTransform="matrix(1.5911065,-0.078428,0.09931994,1.9582576,149.61831,-1.566539)" gradientUnits="userSpaceOnUse"><stop id="stop3348-7" offset="0" stop-color="#737373"/><stop id="stop3350-0" offset="1" stop-color="#000" stop-opacity="0"/></radialGradient><radialGradient id="radialGradient3148" cx="37.375" cy="33.188" r="14.625" gradientTransform="matrix(0.4206982,0,0,0.10417298,175.59958,34.613341)" gradientUnits="userSpaceOnUse"><stop id="stop4335-6" offset="0" stop-color="#000"/><stop id="stop4337-5" offset="1" stop-color="#000" stop-opacity="0"/></radialGradient><radialGradient id="radialGradient3926" cx="18" cy="14.19" r="5.505" gradientTransform="matrix(1.551329,0,0,0.2811779,7.1597166,22.539516)" gradientUnits="userSpaceOnUse"><stop id="stop3454" offset="0" stop-color="#FFF"/><stop id="stop3456" offset="1" stop-color="#FFF" stop-opacity="0"/></radialGradient><linearGradient id="linearGradient3930" x1="17.605" x2="23" y1="18.312" y2="18.312" gradientTransform="matrix(1.551329,0,0,1.5293489,-3.904902,-4.881536)" gradientUnits="userSpaceOnUse" xlink:href="#linearGradient3198"/><linearGradient id="linearGradient3934" x1="30.376" x2="22" y1="25.27" y2="19" gradientTransform="matrix(1.5439563,0,0,1.5428223,-5.002754,-3.785278)" gradientUnits="userSpaceOnUse" xlink:href="#linearGradient3198"/><radialGradient id="radialGradient3937" cx="25.017" cy="13.192" r="9.751" gradientTransform="matrix(1.9227697,0,0,0.69781448,-12.223704,17.518739)" gradientUnits="userSpaceOnUse"><stop id="stop3173" offset="0" stop-color="#fd0000"/><stop id="stop3175" offset="1" stop-color="#6a0000"/></radialGradient><linearGradient id="linearGradient3939" x1="27.217" x2="22.036" y1="15.984" y2="7.135" gradientTransform="matrix(1.9227697,0,0,1.4097191,-12.223704,9.6877877)" gradientUnits="userSpaceOnUse"><stop id="stop4404" offset="0" stop-color="#e80000"/><stop id="stop4406" offset="1" stop-color="#490000"/></linearGradient><radialGradient id="radialGradient3942" cx="26.625" cy="26.577" r="12.5" gradientTransform="matrix(1.4717199,-0.4836227,0.1784028,0.5276254,-7.853782,33.128759)" gradientUnits="userSpaceOnUse"><stop id="stop3191" offset="0" stop-color="#e40000"/><stop id="stop3193" offset="1" stop-color="#490000"/></radialGradient><linearGradient id="linearGradient3945" x1="29" x2="19" y1="33" y2="27" gradientTransform="matrix(1.551329,0,0,1.529349,-5.231894,-3.862931)" gradientUnits="userSpaceOnUse"><stop id="stop3222" offset="0" stop-color="#373737"/><stop id="stop3224" offset="1" stop-color="#FFF"/></linearGradient><linearGradient id="linearGradient3948" x1="25.269" x2="17.799" y1="12.038" y2="5.035" gradientTransform="matrix(1.9227697,0,0,1.4097191,-12.223704,34.901493)" gradientUnits="userSpaceOnUse" xlink:href="#linearGradient3198"/><linearGradient id="linearGradient3951" x1="29.455" x2="21.44" y1="19.122" y2="9.277" gradientTransform="matrix(1.9227697,0,0,1.4097191,-12.223704,34.922047)" gradientUnits="userSpaceOnUse"><stop id="stop3230" offset="0" stop-color="#373737"/><stop id="stop3232" offset="1" stop-color="#373737" stop-opacity="0"/></linearGradient><radialGradient id="radialGradient3955" cx="27.5" cy="22.614" r="6.5" gradientTransform="matrix(2.3866597,-0.117642,0.1489799,2.9373862,-31.572536,-30.349836)" gradientUnits="userSpaceOnUse"><stop id="stop3348" offset="0" stop-color="#737373"/><stop id="stop3350" offset="1" stop-color="#000" stop-opacity="0"/></radialGradient><radialGradient id="radialGradient3958" cx="31.071" cy="55.076" r="8.553" gradientTransform="matrix(1.1299037,0.00293243,-0.00104388,0.40221964,-2.8919247,29.673628)" gradientUnits="userSpaceOnUse" xlink:href="#linearGradient3933"/><radialGradient id="radialGradient3961" cx="37.375" cy="33.188" r="14.625" gradientTransform="matrix(0.6310473,0,0,0.15625948,7.3993769,23.919982)" gradientUnits="userSpaceOnUse"><stop id="stop4335" offset="0" stop-color="#000"/><stop id="stop4337" offset="1" stop-color="#000" stop-opacity="0"/></radialGradient><radialGradient id="radialGradient3965" cx="31.071" cy="55.076" r="8.553" gradientTransform="matrix(0.76667705,0.00198975,-7.0830713e-4,0.27291933,168.20209,38.465153)" gradientUnits="userSpaceOnUse" xlink:href="#linearGradient3933"/><radialGradient id="radialGradient3922" cx="37.375" cy="33.188" r="14.625" gradientTransform="matrix(0.6310473,0,0,0.15625948,7.3993769,23.919982)" gradientUnits="userSpaceOnUse" xlink:href="#radialGradient3961"/><radialGradient id="radialGradient3924" cx="27.5" cy="22.614" r="6.5" gradientTransform="matrix(2.3866597,-0.117642,0.1489799,2.9373862,-31.572536,-30.349836)" gradientUnits="userSpaceOnUse" xlink:href="#radialGradient3955"/><linearGradient id="linearGradient3926" x1="29.455" x2="21.44" y1="19.122" y2="9.277" gradientTransform="matrix(1.9227697,0,0,1.4097191,-12.223704,34.922047)" gradientUnits="userSpaceOnUse" xlink:href="#linearGradient3951"/><linearGradient id="linearGradient3928" x1="29" x2="19" y1="33" y2="27" gradientTransform="matrix(1.551329,0,0,1.529349,-5.231894,-3.862931)" gradientUnits="userSpaceOnUse" xlink:href="#linearGradient3945"/><radialGradient id="radialGradient3930" cx="26.625" cy="26.577" r="12.5" gradientTransform="matrix(1.4717199,-0.4836227,0.1784028,0.5276254,-7.853782,33.128759)" gradientUnits="userSpaceOnUse" xlink:href="#radialGradient3942"/><radialGradient id="radialGradient3932" cx="25.017" cy="13.192" r="9.751" gradientTransform="matrix(1.9227697,0,0,0.69781448,-12.223704,17.518739)" gradientUnits="userSpaceOnUse" xlink:href="#radialGradient3937"/><linearGradient id="linearGradient3935" x1="27.217" x2="22.036" y1="15.984" y2="7.135" gradientTransform="matrix(1.9227697,0,0,1.4097191,-12.223704,9.6877877)" gradientUnits="userSpaceOnUse" xlink:href="#linearGradient3939"/><radialGradient id="radialGradient3938" cx="18" cy="14.19" r="5.505" gradientTransform="matrix(1.551329,0,0,0.2811779,7.1597166,22.539516)" gradientUnits="userSpaceOnUse" xlink:href="#radialGradient3926"/><linearGradient id="linearGradient3940" x1="16" x2="20.5" y1="27.5" y2="25.5" gradientTransform="translate(-8.0000004,15.967633)" gradientUnits="userSpaceOnUse" xlink:href="#linearGradient3052"/><linearGradient id="linearGradient3942" x1="16" x2="21.5" y1="27" y2="27" gradientTransform="translate(-8.0000004,15.967633)" gradientUnits="userSpaceOnUse" xlink:href="#linearGradient3054"/></defs><g id="g3985" transform="translate(-8,-8)"><path id="path4331" d="m 40.214,29.106 a 9.2291,2.2853 0 0 1 -18.458,0 9.2291,2.2853 0 1 1 18.458,0 z" style="opacity:.07000002;fill:url(#radialGradient3922)"/><path id="path3420" d="m 42.261,52 a 10.426,3.4403 0 0 1 -20.852,0 10.426,3.4403 0 1 1 20.852,0 z" style="fill:url(#radialGradient3958)"/><path id="path3159" d="m 39.757,12.195 c -0.77566,-1.5293 -14.738,-1.5293 -15.513,0 0,2.294 -2.327,9.1761 -2.327,15.293 0,6.1174 7.7566,9.9408 10.084,9.9408 2.327,0 10.084,-3.8234 10.084,-9.9408 0,-6.1174 -2.327,-12.999 -2.327,-15.293 z" style="fill:url(#radialGradient3924);fill-rule:evenodd"/><path id="path2385" style="fill:none;stroke:#919191;stroke-width:1.01098025;stroke-linecap:round;stroke-linejoin:round;stroke-miterlimit:0;stroke-dasharray:none" stroke-miterlimit="0" d="m 39.757,12.216 a 7.7566,1.5499 0 0 1 -15.513,0 7.7566,1.5499 0 1 1 15.513,0 z"/><path id="path3157" style="fill:url(#linearGradient3926);stroke:#888a85;stroke-width:1.01098025;stroke-linecap:round;stroke-linejoin:round;stroke-miterlimit:0;stroke-dasharray:none" stroke-miterlimit="0" d="m 40.532,50.429 a 8.5325,3.0793722 0 0 1 -17.065,0 8.5325,3.0793722 0 1 1 17.065,0 z"/><path id="path3236" style="fill:none;stroke:url(#linearGradient3948);stroke-width:1.01098025;stroke-linecap:round;stroke-linejoin:round;stroke-miterlimit:0;stroke-dasharray:none" stroke-miterlimit="0" d="m 39.5,50.408 a 7.5,1.9084 0 0 1 -15,0 7.5,1.9084 0 1 1 15,0 z"/><path id="path3163" d="m 28.122,35.9 c 1.5513,1.5293 3.1027,3.8234 3.1027,12.235 0,1.5293 0.20982,2.294 0.77566,2.294 0.56585,0 0.77566,-0.76467 0.77566,-2.294 0,-8.4114 1.5513,-10.705 3.1027,-12.235" style="fill:url(#linearGradient3928);fill-rule:evenodd;stroke:#888a85;stroke-width:1px;stroke-linecap:round;stroke-linejoin:miter"/><path id="path3179" d="m 22,25 c 0,9 7.673,12.429 10,12.429 C 34.327,37.429 42,34 42,25" style="fill:url(#radialGradient3930);fill-rule:evenodd"/><path id="path5788" style="fill:url(#radialGradient3932);stroke:url(#linearGradient3935);stroke-width:1.01098025;stroke-linecap:round;stroke-linejoin:round;stroke-miterlimit:0;stroke-dasharray:none" stroke-miterlimit="0" d="m 41.5,25.195 a 9.5,2.294 0 0 1 -19,0 9.5,2.294 0 1 1 19,0 z"/><path id="path3196" d="m 23,25.5 c -1.5,6.5 6.5,11 9,11 2.5,0 11,-4.5 9,-12 -0.5,-4 -1,-6 -2,-9.5" style="fill:none;stroke:url(#linearGradient3934);stroke-width:1px;stroke-linecap:round;stroke-linejoin:miter"/><path id="path3266" d="M 26.346,15 H 31 c 0,0 -2.327,9.1761 -2.327,12.999 0,2.294 1.5513,3.8234 0.77566,4.588 -0.77566,0.76468 -4.654,-2.2183 -4.654,-6.1174 0,-1.5293 0.77566,-6.1174 1.5513,-11.47 z" style="fill:url(#linearGradient3930);fill-rule:evenodd"/><path id="path3358" stroke-miterlimit="0" d="M 39.5,13.5 C 39,14 36.038,14.55 31.757,14.55 27.475,14.55 25,14 24.5,13.5" style="fill:none;stroke:#fff;stroke-width:1.01098013;stroke-linecap:round;stroke-linejoin:round;stroke-miterlimit:0"/><path id="path3450" stroke-miterlimit="0" d="m 41,24.5 c 0,0.85555 -3.5,2 -9.019,2.0499 -5.519,0.05 -8.981,-1.194 -8.981,-2.05" style="fill:none;stroke:url(#radialGradient3938);stroke-width:1.01098013;stroke-linecap:round;stroke-linejoin:round;stroke-miterlimit:0"/><path id="path3395" d="m 30,38 c 0,0 0.5,1 2,0.95884 1.5,-0.041 2,-0.959 2,-0.959" style="opacity:.35;fill:none;stroke:#000;stroke-width:1px;stroke-linecap:round;stroke-linejoin:round"/><path id="path3363" d="m 8,43.468 2.5,-1 2.4688,0.125 -4.9687,0.875 z" transform="matrix(1.551329,0,0,1.5293489,19.589369,-16.477177)" style="fill:url(#linearGradient3940);fill-rule:evenodd;stroke:url(#linearGradient3942);stroke-width:.64922434px;stroke-linecap:round;stroke-linejoin:round;filter:url(#filter3391)"/><path id="path3354" d="m 39.757,12.195 c -0.77566,-2.294 -14.738,-2.294 -15.513,0 0,2.294 -2.327,9.1761 -2.327,15.293 0,6.1174 7.7566,9.9408 10.084,9.9408 2.327,0 10.084,-3.8234 10.084,-9.9408 0,-6.1174 -2.327,-12.999 -2.327,-15.293 z" style="fill:none;stroke:#919191;stroke-width:1px;stroke-linecap:round;stroke-linejoin:miter"/></g></svg>